<mxfile host="app.diagrams.net" modified="2023-05-22T20:48:14.650Z" agent="Mozilla/5.0 (Windows NT 10.0; Win64; x64) AppleWebKit/537.36 (KHTML, like Gecko) Chrome/113.0.0.0 Safari/537.36" etag="2SreGhABM684lypFSYCS" version="21.3.2" type="github">
  <diagram name="Página-1" id="LDBdHK_t5nrsPzFhc7is">
    <mxGraphModel dx="880" dy="452" grid="1" gridSize="10" guides="1" tooltips="1" connect="1" arrows="1" fold="1" page="1" pageScale="1" pageWidth="827" pageHeight="1169" math="0" shadow="0">
      <root>
        <mxCell id="0" />
        <mxCell id="1" parent="0" />
        <mxCell id="lZyJ6sqDVqnryt-lG0rH-1" value="" style="ellipse;whiteSpace=wrap;html=1;aspect=fixed;" parent="1" vertex="1">
          <mxGeometry x="40" y="60" width="140" height="140" as="geometry" />
        </mxCell>
        <mxCell id="lZyJ6sqDVqnryt-lG0rH-2" value="&lt;font style=&quot;font-size: 16px;&quot;&gt;Universo de clientes a nivel nacional&lt;/font&gt;" style="text;html=1;strokeColor=none;fillColor=none;align=center;verticalAlign=middle;whiteSpace=wrap;rounded=0;fontStyle=1;fontSize=16;" parent="1" vertex="1">
          <mxGeometry x="30" y="20" width="160" height="30" as="geometry" />
        </mxCell>
        <mxCell id="lZyJ6sqDVqnryt-lG0rH-7" value="" style="endArrow=classic;html=1;rounded=0;exitX=1;exitY=0.5;exitDx=0;exitDy=0;" parent="1" source="lZyJ6sqDVqnryt-lG0rH-1" edge="1">
          <mxGeometry width="50" height="50" relative="1" as="geometry">
            <mxPoint x="390" y="180" as="sourcePoint" />
            <mxPoint x="300" y="130" as="targetPoint" />
          </mxGeometry>
        </mxCell>
        <mxCell id="lZyJ6sqDVqnryt-lG0rH-10" value="" style="ellipse;whiteSpace=wrap;html=1;aspect=fixed;" parent="1" vertex="1">
          <mxGeometry x="310" y="85" width="90" height="90" as="geometry" />
        </mxCell>
        <mxCell id="lZyJ6sqDVqnryt-lG0rH-11" value="Clientes TOP" style="text;html=1;strokeColor=none;fillColor=none;align=center;verticalAlign=middle;whiteSpace=wrap;rounded=0;fontStyle=1;fontSize=14;" parent="1" vertex="1">
          <mxGeometry x="320" y="50" width="90" height="30" as="geometry" />
        </mxCell>
        <mxCell id="lZyJ6sqDVqnryt-lG0rH-13" value="" style="ellipse;whiteSpace=wrap;html=1;aspect=fixed;" parent="1" vertex="1">
          <mxGeometry x="370" y="110" width="20" height="20" as="geometry" />
        </mxCell>
        <mxCell id="lZyJ6sqDVqnryt-lG0rH-14" value="" style="endArrow=none;html=1;rounded=0;exitX=1;exitY=1;exitDx=0;exitDy=0;entryX=0;entryY=0.5;entryDx=0;entryDy=0;" parent="1" source="lZyJ6sqDVqnryt-lG0rH-13" target="lZyJ6sqDVqnryt-lG0rH-16" edge="1">
          <mxGeometry width="50" height="50" relative="1" as="geometry">
            <mxPoint x="390" y="160" as="sourcePoint" />
            <mxPoint x="440" y="110" as="targetPoint" />
          </mxGeometry>
        </mxCell>
        <mxCell id="lZyJ6sqDVqnryt-lG0rH-15" value="" style="endArrow=none;html=1;rounded=0;exitX=0.5;exitY=0;exitDx=0;exitDy=0;entryX=0;entryY=0.5;entryDx=0;entryDy=0;" parent="1" source="lZyJ6sqDVqnryt-lG0rH-13" target="lZyJ6sqDVqnryt-lG0rH-16" edge="1">
          <mxGeometry width="50" height="50" relative="1" as="geometry">
            <mxPoint x="390" y="160" as="sourcePoint" />
            <mxPoint x="440" y="110" as="targetPoint" />
          </mxGeometry>
        </mxCell>
        <mxCell id="lZyJ6sqDVqnryt-lG0rH-16" value="" style="whiteSpace=wrap;html=1;aspect=fixed;" parent="1" vertex="1">
          <mxGeometry x="450" y="80" width="80" height="80" as="geometry" />
        </mxCell>
        <mxCell id="lZyJ6sqDVqnryt-lG0rH-17" value="&lt;font style=&quot;font-size: 12px;&quot;&gt;Milagro&lt;br&gt;21/05/2022&lt;br&gt;21/05/2023&lt;/font&gt;" style="text;html=1;strokeColor=none;fillColor=none;align=center;verticalAlign=middle;whiteSpace=wrap;rounded=0;fontStyle=1;fontSize=13;" parent="1" vertex="1">
          <mxGeometry x="450" y="30" width="80" height="50" as="geometry" />
        </mxCell>
        <mxCell id="rWU9i9-iqi5T9KxDgLIL-4" value="" style="shape=actor;whiteSpace=wrap;html=1;" parent="1" vertex="1">
          <mxGeometry x="460" y="92.5" width="10" height="15" as="geometry" />
        </mxCell>
        <mxCell id="rWU9i9-iqi5T9KxDgLIL-5" value="" style="shape=actor;whiteSpace=wrap;html=1;" parent="1" vertex="1">
          <mxGeometry x="470" y="102.5" width="10" height="15" as="geometry" />
        </mxCell>
        <mxCell id="rWU9i9-iqi5T9KxDgLIL-6" value="" style="shape=actor;whiteSpace=wrap;html=1;" parent="1" vertex="1">
          <mxGeometry x="480" y="112.5" width="10" height="15" as="geometry" />
        </mxCell>
        <mxCell id="rWU9i9-iqi5T9KxDgLIL-7" value="" style="shape=actor;whiteSpace=wrap;html=1;" parent="1" vertex="1">
          <mxGeometry x="490" y="122.5" width="10" height="15" as="geometry" />
        </mxCell>
        <mxCell id="rWU9i9-iqi5T9KxDgLIL-8" value="" style="shape=actor;whiteSpace=wrap;html=1;" parent="1" vertex="1">
          <mxGeometry x="500" y="132.5" width="10" height="15" as="geometry" />
        </mxCell>
        <mxCell id="rWU9i9-iqi5T9KxDgLIL-9" value="" style="shape=actor;whiteSpace=wrap;html=1;" parent="1" vertex="1">
          <mxGeometry x="510" y="142.5" width="10" height="15" as="geometry" />
        </mxCell>
        <mxCell id="rWU9i9-iqi5T9KxDgLIL-10" value="" style="shape=actor;whiteSpace=wrap;html=1;" parent="1" vertex="1">
          <mxGeometry x="460" y="112.5" width="10" height="15" as="geometry" />
        </mxCell>
        <mxCell id="rWU9i9-iqi5T9KxDgLIL-16" value="" style="shape=actor;whiteSpace=wrap;html=1;" parent="1" vertex="1">
          <mxGeometry x="470" y="122.5" width="10" height="15" as="geometry" />
        </mxCell>
        <mxCell id="rWU9i9-iqi5T9KxDgLIL-17" value="" style="shape=actor;whiteSpace=wrap;html=1;" parent="1" vertex="1">
          <mxGeometry x="480" y="132.5" width="10" height="15" as="geometry" />
        </mxCell>
        <mxCell id="rWU9i9-iqi5T9KxDgLIL-18" value="" style="shape=actor;whiteSpace=wrap;html=1;" parent="1" vertex="1">
          <mxGeometry x="490" y="142.5" width="10" height="15" as="geometry" />
        </mxCell>
        <mxCell id="rWU9i9-iqi5T9KxDgLIL-19" value="" style="shape=actor;whiteSpace=wrap;html=1;" parent="1" vertex="1">
          <mxGeometry x="472" y="85" width="10" height="15" as="geometry" />
        </mxCell>
        <mxCell id="rWU9i9-iqi5T9KxDgLIL-20" value="" style="shape=actor;whiteSpace=wrap;html=1;" parent="1" vertex="1">
          <mxGeometry x="482" y="95" width="10" height="15" as="geometry" />
        </mxCell>
        <mxCell id="rWU9i9-iqi5T9KxDgLIL-21" value="" style="shape=actor;whiteSpace=wrap;html=1;" parent="1" vertex="1">
          <mxGeometry x="492" y="105" width="10" height="15" as="geometry" />
        </mxCell>
        <mxCell id="rWU9i9-iqi5T9KxDgLIL-22" value="" style="shape=actor;whiteSpace=wrap;html=1;" parent="1" vertex="1">
          <mxGeometry x="502" y="115" width="10" height="15" as="geometry" />
        </mxCell>
        <mxCell id="rWU9i9-iqi5T9KxDgLIL-23" value="" style="shape=actor;whiteSpace=wrap;html=1;" parent="1" vertex="1">
          <mxGeometry x="512" y="125" width="10" height="15" as="geometry" />
        </mxCell>
        <mxCell id="rWU9i9-iqi5T9KxDgLIL-24" value="" style="shape=actor;whiteSpace=wrap;html=1;" parent="1" vertex="1">
          <mxGeometry x="522" y="135" width="10" height="15" as="geometry" />
        </mxCell>
        <mxCell id="rWU9i9-iqi5T9KxDgLIL-25" value="" style="shape=actor;whiteSpace=wrap;html=1;" parent="1" vertex="1">
          <mxGeometry x="460" y="130" width="10" height="15" as="geometry" />
        </mxCell>
        <mxCell id="rWU9i9-iqi5T9KxDgLIL-26" value="" style="shape=actor;whiteSpace=wrap;html=1;" parent="1" vertex="1">
          <mxGeometry x="470" y="142.5" width="10" height="15" as="geometry" />
        </mxCell>
        <mxCell id="rWU9i9-iqi5T9KxDgLIL-27" value="" style="shape=actor;whiteSpace=wrap;html=1;" parent="1" vertex="1">
          <mxGeometry x="485" y="80" width="10" height="15" as="geometry" />
        </mxCell>
        <mxCell id="rWU9i9-iqi5T9KxDgLIL-28" value="" style="shape=actor;whiteSpace=wrap;html=1;" parent="1" vertex="1">
          <mxGeometry x="495" y="90" width="10" height="15" as="geometry" />
        </mxCell>
        <mxCell id="rWU9i9-iqi5T9KxDgLIL-29" value="" style="shape=actor;whiteSpace=wrap;html=1;" parent="1" vertex="1">
          <mxGeometry x="505" y="100" width="10" height="15" as="geometry" />
        </mxCell>
        <mxCell id="rWU9i9-iqi5T9KxDgLIL-30" value="" style="shape=actor;whiteSpace=wrap;html=1;" parent="1" vertex="1">
          <mxGeometry x="515" y="110" width="10" height="15" as="geometry" />
        </mxCell>
        <mxCell id="w7dJ4YQWi7hbh1Hqf787-4" value="" style="edgeStyle=orthogonalEdgeStyle;rounded=0;orthogonalLoop=1;jettySize=auto;html=1;" parent="1" source="rWU9i9-iqi5T9KxDgLIL-38" target="4HomfuytI-s5-69t1NZN-21" edge="1">
          <mxGeometry relative="1" as="geometry" />
        </mxCell>
        <mxCell id="rWU9i9-iqi5T9KxDgLIL-38" value="&lt;b&gt;&lt;font style=&quot;font-size: 13px;&quot;&gt;Sistema de recomendación&lt;/font&gt;&lt;/b&gt;" style="rounded=1;whiteSpace=wrap;html=1;" parent="1" vertex="1">
          <mxGeometry x="575" y="90" width="180" height="60" as="geometry" />
        </mxCell>
        <mxCell id="rWU9i9-iqi5T9KxDgLIL-42" value="" style="verticalLabelPosition=bottom;sketch=0;aspect=fixed;html=1;verticalAlign=top;strokeColor=none;align=center;outlineConnect=0;shape=mxgraph.citrix.process;" parent="1" vertex="1">
          <mxGeometry x="760" y="86.5" width="52" height="62" as="geometry" />
        </mxCell>
        <mxCell id="rWU9i9-iqi5T9KxDgLIL-46" value="" style="ellipse;whiteSpace=wrap;html=1;aspect=fixed;" parent="1" vertex="1">
          <mxGeometry x="90" y="90" width="80" height="80" as="geometry" />
        </mxCell>
        <mxCell id="lZyJ6sqDVqnryt-lG0rH-9" value="Enfoque Clientes +" style="text;html=1;strokeColor=none;fillColor=none;align=center;verticalAlign=middle;whiteSpace=wrap;rounded=0;fontSize=13;fontStyle=1" parent="1" vertex="1">
          <mxGeometry x="80" y="105" width="100" height="40" as="geometry" />
        </mxCell>
        <mxCell id="4HomfuytI-s5-69t1NZN-2" value="Actor" style="shape=umlActor;verticalLabelPosition=top;verticalAlign=bottom;html=1;outlineConnect=0;labelPosition=center;align=center;" parent="1" vertex="1">
          <mxGeometry x="295" y="265" width="30" height="60" as="geometry" />
        </mxCell>
        <mxCell id="4HomfuytI-s5-69t1NZN-8" value="" style="shape=curlyBracket;whiteSpace=wrap;html=1;rounded=1;labelPosition=left;verticalLabelPosition=middle;align=right;verticalAlign=middle;rotation=90;" parent="1" vertex="1">
          <mxGeometry x="380" y="115" width="20" height="247.5" as="geometry" />
        </mxCell>
        <mxCell id="4HomfuytI-s5-69t1NZN-9" value="Actor" style="shape=umlActor;verticalLabelPosition=top;verticalAlign=bottom;html=1;outlineConnect=0;labelPosition=center;align=center;" parent="1" vertex="1">
          <mxGeometry x="345" y="265" width="30" height="60" as="geometry" />
        </mxCell>
        <mxCell id="4HomfuytI-s5-69t1NZN-10" value="Actor" style="shape=umlActor;verticalLabelPosition=top;verticalAlign=bottom;html=1;outlineConnect=0;labelPosition=center;align=center;" parent="1" vertex="1">
          <mxGeometry x="395" y="265" width="30" height="60" as="geometry" />
        </mxCell>
        <mxCell id="4HomfuytI-s5-69t1NZN-11" value="&lt;b&gt;&lt;font style=&quot;font-size: 15px;&quot;&gt;...&lt;/font&gt;&lt;/b&gt;" style="text;html=1;align=center;verticalAlign=middle;resizable=0;points=[];autosize=1;strokeColor=none;fillColor=none;" parent="1" vertex="1">
          <mxGeometry x="425" y="265" width="40" height="30" as="geometry" />
        </mxCell>
        <mxCell id="4HomfuytI-s5-69t1NZN-12" value="Actor" style="shape=umlActor;verticalLabelPosition=top;verticalAlign=bottom;html=1;outlineConnect=0;labelPosition=center;align=center;" parent="1" vertex="1">
          <mxGeometry x="465" y="265" width="30" height="60" as="geometry" />
        </mxCell>
        <mxCell id="4HomfuytI-s5-69t1NZN-13" value="Top 20" style="text;html=1;strokeColor=none;fillColor=none;align=center;verticalAlign=middle;whiteSpace=wrap;rounded=0;" parent="1" vertex="1">
          <mxGeometry x="277" y="332.5" width="60" height="30" as="geometry" />
        </mxCell>
        <mxCell id="4HomfuytI-s5-69t1NZN-14" value="Top 20" style="text;html=1;strokeColor=none;fillColor=none;align=center;verticalAlign=middle;whiteSpace=wrap;rounded=0;" parent="1" vertex="1">
          <mxGeometry x="330" y="332.5" width="60" height="30" as="geometry" />
        </mxCell>
        <mxCell id="4HomfuytI-s5-69t1NZN-15" value="Top 20" style="text;html=1;strokeColor=none;fillColor=none;align=center;verticalAlign=middle;whiteSpace=wrap;rounded=0;" parent="1" vertex="1">
          <mxGeometry x="380" y="332.5" width="60" height="30" as="geometry" />
        </mxCell>
        <mxCell id="4HomfuytI-s5-69t1NZN-16" value="Top 20" style="text;html=1;strokeColor=none;fillColor=none;align=center;verticalAlign=middle;whiteSpace=wrap;rounded=0;" parent="1" vertex="1">
          <mxGeometry x="450" y="332.5" width="60" height="30" as="geometry" />
        </mxCell>
        <mxCell id="4HomfuytI-s5-69t1NZN-17" value="" style="shape=curlyBracket;whiteSpace=wrap;html=1;rounded=1;labelPosition=left;verticalLabelPosition=middle;align=right;verticalAlign=middle;rotation=-90;" parent="1" vertex="1">
          <mxGeometry x="380" y="245" width="20" height="247.5" as="geometry" />
        </mxCell>
        <mxCell id="4HomfuytI-s5-69t1NZN-18" value="" style="shape=image;html=1;verticalLabelPosition=bottom;verticalAlign=top;imageAspect=1;aspect=fixed;image=img/clipart/Gear_128x128.png" parent="1" vertex="1">
          <mxGeometry x="260" y="276.23" width="32" height="37.54" as="geometry" />
        </mxCell>
        <mxCell id="4HomfuytI-s5-69t1NZN-21" value="&lt;font style=&quot;font-size: 12px;&quot;&gt;Top 20 por cliente de clases recomendadas&lt;/font&gt;" style="strokeWidth=2;html=1;shape=mxgraph.flowchart.database;whiteSpace=wrap;" parent="1" vertex="1">
          <mxGeometry x="583.75" y="252.5" width="162.5" height="110" as="geometry" />
        </mxCell>
        <mxCell id="ZwVfSL07MJ75u5k9PvvK-14" value="" style="edgeStyle=orthogonalEdgeStyle;rounded=0;orthogonalLoop=1;jettySize=auto;html=1;" edge="1" parent="1" source="AdBYq1xFmMbyyhqE8FVt-1" target="ZwVfSL07MJ75u5k9PvvK-4">
          <mxGeometry relative="1" as="geometry">
            <Array as="points">
              <mxPoint x="130" y="390" />
              <mxPoint x="180" y="390" />
            </Array>
          </mxGeometry>
        </mxCell>
        <mxCell id="ZwVfSL07MJ75u5k9PvvK-17" style="edgeStyle=orthogonalEdgeStyle;rounded=0;orthogonalLoop=1;jettySize=auto;html=1;" edge="1" parent="1" source="AdBYq1xFmMbyyhqE8FVt-1" target="ZwVfSL07MJ75u5k9PvvK-5">
          <mxGeometry relative="1" as="geometry">
            <Array as="points">
              <mxPoint x="130" y="390" />
              <mxPoint x="642" y="390" />
            </Array>
          </mxGeometry>
        </mxCell>
        <mxCell id="AdBYq1xFmMbyyhqE8FVt-1" value="Top 10 general de las clases más recomendadas" style="rounded=1;whiteSpace=wrap;html=1;" parent="1" vertex="1">
          <mxGeometry x="30" y="265" width="200" height="60" as="geometry" />
        </mxCell>
        <mxCell id="w7dJ4YQWi7hbh1Hqf787-1" value="" style="endArrow=classic;html=1;rounded=0;exitX=1;exitY=0.5;exitDx=0;exitDy=0;entryX=0;entryY=0.5;entryDx=0;entryDy=0;" parent="1" source="lZyJ6sqDVqnryt-lG0rH-16" target="rWU9i9-iqi5T9KxDgLIL-38" edge="1">
          <mxGeometry width="50" height="50" relative="1" as="geometry">
            <mxPoint x="390" y="230" as="sourcePoint" />
            <mxPoint x="440" y="180" as="targetPoint" />
            <Array as="points" />
          </mxGeometry>
        </mxCell>
        <mxCell id="w7dJ4YQWi7hbh1Hqf787-8" value="" style="shape=flexArrow;endArrow=classic;html=1;rounded=0;" parent="1" edge="1">
          <mxGeometry width="50" height="50" relative="1" as="geometry">
            <mxPoint x="572" y="307" as="sourcePoint" />
            <mxPoint x="522" y="307" as="targetPoint" />
          </mxGeometry>
        </mxCell>
        <mxCell id="w7dJ4YQWi7hbh1Hqf787-9" value="" style="endArrow=classic;html=1;rounded=0;" parent="1" edge="1">
          <mxGeometry width="50" height="50" relative="1" as="geometry">
            <mxPoint x="254" y="297" as="sourcePoint" />
            <mxPoint x="234" y="297" as="targetPoint" />
          </mxGeometry>
        </mxCell>
        <mxCell id="ZwVfSL07MJ75u5k9PvvK-1" value="" style="shape=image;verticalLabelPosition=bottom;labelBackgroundColor=default;verticalAlign=top;aspect=fixed;imageAspect=0;image=data:image/png,iVBORw0KGgoAAAANSUhEUgAAAuUAAAGkCAYAAACW1luqAAAgAElEQVR4nOydPXajPhfGH97zXwqkyHgF8grsNKncpoPSNOlSpkuDS+jSukoTWIFZgSdFYC96C8AWXwJsY5zM8zvH58ygb+nq6iJdEcP3fWnbNshp/P37F3/+/Jm6GoTcPJwrhBzhfCC/Bcryeaj997+J60IIIYQQQsg/D41yQgghhBBCJoZGOSGEEEIIIRMznlEeOTDmG6RnZWHAcKKLVWkSLtAPl+ZX9CshV4Lz5Qdyg3qXEEK64E45IeRXkm7moxjTkWNc1OAbq57kPC49zqQ/TXOi73hcY9woG2Qs/pu6AoQQ8pNY+BJy6kqQ0eE43xZ9x+Ma40bZIGNR3ylPN5gbBoz8d3xZTbGZH58bhoOoNd0cm+8BtWgts3+8dDNX6jbH5vAK21HvS9PZD/r6tLajbx+11uWH9yv53bTJYIc+cqIITk0+szDLjYFgCcMwMN/02NPqOV/q7iy6uXBqPU/UE61EcIw5Nhunkt8Qvd53PUixmc+xSdU2O4hKaap1PrUPm+rZoHd1Y9sSdrlx/u00jbdufNT+r8rlHPOWOVEbj17jdk7d+pZRlEPZOI8T9EZvucrHI3KUMcp/JVm5gTH0fV8eCaUNSOElx/8LTyYykZ6AhB0eYiaekIAtsydZeCkdICE8mcgu2sqUMrTVMo/PD+UX/088KQ51qeRuN9S7V736sd/vlf9194O2Pq3taO+jdn52v5LfR3muqLTJqkY2C50EIYtkjTJpN0nvkDrU8+36/yXqeZqe6G4fKun0dT9vPaj/H7JIUtUX5/Vhl97VyVHfce/b5vZxrtI+H34a9baX+6a7/6ty2T0nBo7bGXWbQjZ+GpeR5aF6Y6hchdKuysEF9fg5qP1XNspDuzY58to1LAJKA5vCQ7ufkdZWpuxotFpm4kmhDFw5zrETa/W+ACVh7OqHrvq0tUPTR6388H4lv49Wxd1XvkvzK1OSJdms6JxBRvmA+VL6f+dcOKGep+oJfQOlXU3TVc6p60FDm2ttVPM+tw+Hrj9q/L7jfkKbu9bA32aUl+VRsx6U+rJBLmUPo7z3fD2jbhPKxk/jkkZ5b71RS94hV9VxGmKbjTyGav/V3VfEPazqs+QLcS2ihXsR4ytpCx9AU5kNlI5sLfdYprnGLvGwXxoNR9UxXEs9klgiOKeuOnr1g6Y+unb07KMSv6Vfye+nRVZbZfOKdehmjLlwop64dN1PWQ/GqIeOHnpXK0d9xn2UNv92jn0zyjw+eb4OqBtl46YZJFfmHWbY4ztXl9FHAMzuYB4i3IZNUzfK4y/U5Mi6h6hFTPAVC9xbbeEDaCqzSuTAcmcIpYSUEjLxymWaa+ykhJQhZq6l+BbZxzSH3w5rs17E2fTqh476tLWjTx9V+S39Sn4/TbLaJZvXqEMvxpgLJ+qJS5dzynowRj10dOndLjnqM+6jtPm3k/fNWPP45Pk6oG6UjdtlqFyl39grhvcysBH6CyXCbdg0ZaN88QgbAV4POy8RnPkGqfmAlQiwVDR/unlFIFZ4MJG/gSjp0g3my57vGG1ldiSL3treiizcFyOT1/v1WjcquvphUH2UdpzSR7+pX8nvpqestsumhv13v8+WnThfLjYX1HqeqieG0lXOqevBpevRmX7Y+lOSo77jfuk2/0KC5fHim65ves9j3dwdOF9Pqhtl40fRKVfJF2I7VAxuHweT/IZsmspO+QJ+4gGulW/fv+L+fQ0TJta7EHZ+G9owDFjbFZLdOt/6r6SzvvDS+224rcxqNB+hHWCZl/9678Euwko3ai24sxDZC5CJ9S7Bamsp4caI3xft6oeO+rS2o2cf6eryo/uV/G5aZFUnmz0wH1YQsQurl4vHKXMMuMRcqNfzVD0xlK66n7oeXLoeXXToXa0c9R33S7f592GHL/jKdyEtd4aw6JsT5nH33B02X0+rG2XjphkqVwsfIZYtOuZ2bBrD931p20OWOqLy9+9f/PnzZ+pqEHLzcK4QcuT3zIcUm7mFrxd54svhmNxy3X4PP0GW08289rIUOQZe7xPsJva7VfuPf9GTEEIIIYT8WpKvuHKxM8X3fsIKtXAFo1z92Hr9d96XA/5l2K+E9Oe3z5ff3j5CCDmdhZ/A26vuKxa2q+l3yav8N34RC/hSwh+/oH8M9ish/fnt8+W3t4/cLibWu1v9o/O3XDdyXTJZWE9djQ4M3/flfD6fuh6EEEIIIYT8s/wH4OYd9G+Zn3DBgZBbgHOFkCOcD+S3QFk+D170JIQQQggh5IagUU4IIYQQQsjE0CgnhBBCCCFkYmiUE0IIIYQQMjE0ygkhhBByY6TYzItvSjuISmERHGMOfn6f/DZGN8rTzbzxj1cUz4ufE5UCMW8JOzVdQeQ0/DGN3uVVFUNro0v5GfMNstJUJVP9wx5NYWp5urT19tXbnqVve96ab+S093dDuV191VW/8/Lo2662vuhOX05zft81tyXPt5IgcopnLfWPHEXWWmQduUxXE1dlln9w5iZp06d9dB+AmkzW5lopvG70lPUhjSIyItEb3FkIKSUSb49XRdgiZwmEO6h/92XoWt08lxp0un6hIFek1f7r0mv1jFr05fTjP6JRnv2FuSe8wBOVoHSDp+0KiZT5hBMIlkXnRXAsF/ASSCkhQxvBMlf+p6Y7VMnBcm/DLtVHly7Cm1JeaAdYdg1Q5MCwtlglWRopJZLVFk9KRezwGCalLP1FKVHUo6U8XVogwkcgYNsCwccwQWrMN91gvgyUsBB4PRp9VdS6J94ey4bdja76dbV/aBv1/dWNWp9MNuoG0el919YWE+sXGwhej/KbbvAaCHjPi2H1FwKx+6ZfoCIHhuViprYj8QDXomF+M2j0aR/dV7DwS7KazTMA9iMWkQNjuYdX6K5wBtc6zuF0M4el6EMpy0YRIZckVf4Gunk3Q/yVZM83cywRwi+pwiFrtW4uZZR0uj9M55KR0Nl/Or1Wy6hbX045/iMa5dlfmNutrXqQucZut0ahz82HFQT2+E4BRB8IYOOl0PaLZ3gixldyRjoAQIrNawD75Rn3al206RbwlfKsewHsv1uNUiCCswxgV97gzfXupD/luni0O8qrFv+BQKzw/LyCCD767ep3InB/GMJyf+gw1y+wEaBkaw6sX2P7R2ljTxY+ZGh3G7kHOvpO15aFj9CO4b7lr5xvLmL7ZbgRtHqBJ3QLVDYvhJeUFzlzjd2gtpJx0ejTTt2nQXnZS7/3gFjhoZCxxSPsQr8iwpsLeO/95j8h52LezQ76P/3eQ9xbmWHmzhDWDKUha7VmLpHbRWf/VdFtYp2jL6/AbfiUJ1+IMcOdmb8di3tUp8u+qecHpEs3T3Bn1bfrIeVFeHNjiNVD+6KUfmMPG48XebHKjCXM7novgtFHkNXPfMBKBKXjvpMwH7ASMVzrhGPq9Bv7klE6tH7N7b94G4eyeKy/bDTRo++62rJ49jJj/cRd8gwL63cPQt11V0k/sY0FVg8NUlYyysitMkhnVlBf9sy7GRB/obw25YtV+o09gO0Tj/XJlVg8w4MLyzBguTO8rIHNk4tZ6Dfsfqr0WKs7CJZ00bp5FPuvim4Tq4++nHL8b8AoL3bqnlsmmom72ZnpWt+ue5R38FVaIrBD/Y538oW4RwnHAa/7PMWulT+3sF0ltaOT1rS54ZYZVyYeVgLx9rP3LntzvibWO5nt2FrDBDR6cxGru24966dt/wlt1PX1pTip7/q0xVzjxQ6wtE7cJS/lE8N9anM9alZsGbezg0D60qYzq0T4CAC72EVY+Nmx/0GWX7Evjvdz3bZ6P7o3iWDZcS+DkHPIdGjmRuDDKjbWrKM/cMm9bsha3atMicyLb5x1g5yDzv6r6LVOVH05/fhPbpRHjgUXHt5bJ1AKxbXshHRJz7frlvIUX6Xk/vUihl3ZB7lcL6H4OTW5DrSlTT+3JSPYfFhBxFt89jSidXVa+KqAthvmR4PawHLvIVGOmvrWT9f+U9qoa9elOKXv+rZl8exBwO75QtnOwg9hx27pbsMR3W54+bSD/ASadWYt1uYVgfCgHsAU8pr9XjAr7TIoL2/mA1ai3248IWdT+BP7Vr6eZ/d0Zu7TcT0aYa1udMMkk6Oz/5r0mp52fTnF+E9qlEdO3XhrPkIFZspW3rB0wFes7mZacOPcgJxvgB7lFWh9mID+rg19WDzD6+2ekeJzGwNxdtRnGAYMy0WMGNu+VnkPzPW71veqdCmy5D99Qv1q7b9OGzvJ/dGGuiiV++4ybakaRKnWElvAz190PksVu8OsbTc8+kCg3UUnt0AfnVknO+K3XzQ+4qqsW/d63UfIaERwrC1Wh/sMxUaBhfuWi5qda3VfGtwwybQ02X9KaKdeG6QvJxj/iYzy7LMzjR1bNWyjN7hxYQSdki671HHc/UngidyA3K1h6spLN5gr57Pp57bVhymvBJ49UbvJm27mJ3zFIvsCR6+LdtEb3Fgcv5qg3E4+56Jerd55OYMF9KT6Vdo/UhsHkX9Rpd1lSo2q6buz25K7u5Ti9jCy8hcd11W3P5tldkhbycT00JlV/+9089rxcpldWj+Mf35H4vDSmMtw410EQi5I5Cyx994V971iEyHBV5yvxx1r9fFzsl1llfVgzQ2TTIjG/ititOi10vhr9OVNjL/v+3IcQmkDEpWf8BIpQ7v2HICEHWZJE0+Kw3MhvaTI8sR0JRLpibweh0dt6bK40OS53+/rJXiiXD/hyaQxP6VPmuqV92HWvPa0oa30QcMYtKcX0ku666Rr/6Eku1r3cljf+rW1v18eKkPa1dS2U+N0992gtiSeFLBlU+yqnFX7v3FMClmvll+bW+1jfSpNc4X0RaNPpezWYaXxzvJqlY0WeaqGN4ow6Q3nQw9CW1k/lWc1GdWvVWWdO8A2qZZNGrmKLHfZf216TTasuX1tzCuNv9p/hu/70rbtvjY8qfD371/8+fNn6moQcvNwrhByhPPhSqQbzK0vvIx0p4jcuCz/gPFX+++/ietCCCGEEDIK6ecW8N5v1iAj4/LTxp9GOSGEEEJ+JeZ6h93UlSCT8dPGf/JPIhJCCCGEEPKvY/i+L+fz+dT1IIQQQggh5J/lPwC366D/A7jpCw6E3BCcK4Qc4XwgvwXK8nmo/Uf3FUIIIYQQQiaGRjkhhBBCCCETQ6OcEEIIIYSQiaFRTgghhBBCyMTQKCeEEELIjZFiMzdgGAYMw0FUCovgGHNs0omqRshIjG6Up5s5DMPAvDR71MmW/5xITYS5ElYOmpfSqWHt6UYqr4HIqZRTUiYN9agpm3p9yv0XwTGqeah5NZVR6f9q/vMNUl35SnjkVPqus77lfqk+Tzfzen6tfVn0v66Nx7DGbCOn0iZ9f/Wtd7Vfhra3iN8lX+TfplmfQqvDShTy36g71Gh1+R2qCwk5i+gN7iyElBKJt8erIouRswTCHdbmMXpZPhvW1Qqtc+lQRrMOJ9PRZ4z7jlvb+A+Vo0szolGeGY9PeIEnmmPYoYSU+c9fHNNZLuAl2fPQRrDM34jTDZ62KyR5msQTCJZFp2nSjVJeO6LIK1cmy8rAquGhHWCprm6RA8NyMVPrmniAa+XCs4CvPBcQ8JIirn/4U7KltkqJXaG9IgeGtcUqOYYlqy2eio7qCq8Nc1d9lXYLgdh9GyTkal9JKeErfyu3tY15WcFr5WUDQPQRwLbtWjldeQ2t97B0ET4CAdsWCD5o6ZAmdPq0W/cdWPglOc90EAD78fhnqCMHy70NWy3nRF1IyKmk3/vDv827GeKvJHu+mWOJsLQWABHeFPmsrasox+2yTRrnAJmYHmPca9z0urS/HI3DiEZ5Zjzu1tawZNEHAth4KYyixTM8EeMrAWCusdutUZhL5sMKAnt8px3pxiivJ+b6BTYCtNlai0cb2H8fd21fAwgvKSscc41daJ9kGJaJ4CwD2JUdBnO9y43QrvAqA+u7eoEnriPks5cX2PEWn6UDmg1eAxuPjwMzO7XefdNFHwjECs/PK4jgg4YOaUCjT0/VfUA+JwS852ICZ3PafnnGvRrvArqQkCGYd7PD2ph+7yHurezl0J0hLFvkABbwFfm07oWyrlbpsk1a5gCZmK4x7jtuuvEfIkfjMKlPebAsjgiOuzrp9x4Q96h2175J+ydfiDHDndkv3SXL6036jT0E7hvnfyZEmN1lQpB+YhsLrB4aClg8wj53EUy/sYeNx6o+6xteiz+0vhbW7x5E8HoFX8AFHu0YW8UqTz+3iNUdwd6cWu9+6aKPAGL1ANN8wEoEpWNaQroYpMMqRG8uYvvl8BKebp7gzqq7kA2cogsJGcLiGR5cWIYBy53hZQ1snlzMQr9Dh0d4c+NMp55QbO85QCakPsaXH7fz5OhUJjLKTax3inuEB7hW21GoibtZ0/Nil/a5ZYKq6a5RXjPRm4tYrKDarbFr5S8HFrarRHGlAaBd6HrufkF9AVH8opIvxLpEXeGNDKyvucaLHcN9qruWNOZw6Ku6f1djGxUWj+pufYQ3F8qOYJmuvIbWu3e6fKcye7Ex8bASiLefV30zJ7+NNh1WJcJHANjFW3jrLmSV03QhIcNQ120fVmF0Wcf7EyUXycN9iSUCO2w53e2g9xwgk9A2xpcct0vI0RncxNdX9C4eKRTXsgORY8GFh/fWDmtON155R1RDcrn3kCjHIYDiJ93okqLbDW/bca9T9pHu2lk4h+H1Xfgh7Nht91NXcyj5lJfb0dnGxeNxnHMXkaZN/V55Dax333Tp57b00mY+rCCqbjeEDKJd95VibV4RCA/Ze2racxdymC4k5CIUdxp8K5dTCSlDzNyn4ymkcl8iuX894ZJe/zlAJqJxjC88bmfL0XnchFGuuniYdzMg/kJ1g3WmbMdGTt3Y7ZPukuXpKBmSujSLZ3iqu4J5h1nbbnj0geDc42LVSD0lvMrJ9V3Az19IPnsWdRoLPHvZ5cmDi8iZ+Z1W77Z0KT63MRBnR7SGYcCwXMQou90QomOQ7juQHc3aL4V+SvAVqydGFtw432CofH1piC4k5HwiONYWq/dC5orNHgv3LRf6Trvz0G8OkNvgOMbjjdsUd2cmMcojp/xlgJKLR9UwjN7gxoWfc/b5usZFQZNulPIugon1i7pbnhuR1S8npBvMl5c4Lm7OP93MD1920Yf3y69XffMXEtcd7jAzBPNhBREssQyUi3DncGq9m9JFb3Bj9es5xy9bnH+pl/wz9NBh1c9wpptXBKX7I8pXnaSElAk8kW8w7NYwR9eFhDQTOUvsvXfl4wPFRlCCrzjf+Ek3mCsynn5uS3ceGj/lW6NrDpBJaR3j7nHrN/66MkZoTxu+78txCKUNSFR+wkukDO3yc+HJRE2aeFIcwoX0isBquuJnh8PSXao8KeV+vy+32s7b2EgiPVENz/pJybKhXKVOtXpXw7IyGvv9kExo+0MXHtrl9vetb2O/FP1ezU+XprONWdgxyzyuWkZoK23S91ffelf7pU+6xr7MQuoy8QuozhUyBI0+lbJdhzXJf55Xu546pjvE6aELyTA4H3pQ0tXKs9q6VtXj5TWorGs75tKBpvWaNHEdWdaPcTWeOm79x79vGZdF7T/D933Z9N1m0o+/f//iz58/U1eDkJuHc4WQI5wPVyLdYG594WXUu1X/Njctyz9g/NX++2/iuhBCCCGEjEL6uQW895s1yMi4/LTxp1FOCCGEkF+Jud5hN3UlyGT8tPG/ja+vEEIIIYQQ8g9j+L4v5/P51PUghBBCCCHkn+U/ALfroP8DuOkLDoTcEJwrhBzhfCC/Bcryeaj9R/cVQgghhBBCJoZGOSGEEEIIIRNDo5wQQgghhJCJoVFOCCGEEELIxNAoJ4QQQsiNkWIzN2AYBgzDQVQKi+AYc2zSiapGyEiMbpSnmzkMw8C8MnuK58XPiUqBmLeEnZquIHKMen1OLa+90aX8jPkGVd1R1ENXx3q5qpI6/qp9Swj5nbTp0z66r5pHs7GTUdOTkVPTO7r0hJxN9AZ3FkJKicTb41WR+chZAuEOa/MYvY9cK5Evu+aTq6Abm0Hjn9NkD56SzyUZ0SiP4BgGnvACT1SC0g2etiskUuYTTiBYFo2P4Fgu4CWQUkKGNoJl/kZ8arpDlRws9zbsUn1OLa+t2Q4Ma4tVkqWRUiJZbfFUrgg+AgHbFgg+mnMTRX3yn6/8jVg7lKWwnaqZCCG/EI0+7aP7lLhvik4L7QDLqtXRpCcXfknnZGkB2I8/5s9Xk59F+r0//Nu8myH+SrLnmzmWCEtrYi+5VuJedM0n16HD/us//jkt9uDgfC6N7/tyXBLpCUjhJZoonhQQ0kuklKEtAVuGlfR2eG664v+V+pxaXs5+v1cihNJGS1qV0JYQnkwST4pS2UVwW39p6kbIjVOeK+Q0GvTpEB1Wzc0TmS6qpe3Q2w26kAyD86GDYp2UmZwKL8nlrr5mVqnLdSXfM9Z8UmcSWdaMjXb8sxi99Fx3PpdB7b/b8ClPvhBjhjszfzsW97AqUfbfDds+A9Klmye4s+rb9enlNZJ+Yw8bjx1bR9FHALF6gGk+YCWC0rEcIYQMYZAOKxHhzY0zXVTk1aInaynfXMT2C3hIR0Zj8QwPLizDgOXO8LIGNk8uZqHfcTpTl2uVi675ZDpax0Y//kBfPdedzxjcgFGeYvMaQHjPLRPNxN3szHTpBk/uDGHXSnNWeciFpIN0g9dAYPVgAjDxsBKIt581n/PYtVr9moIlfToJIW206bCcg3/4EoEdHt3feuvJCB8BYHftPhByFibWu8JdyodVGFLW0R+8dLeiTa57lHPymk8momFs+o5/l547WY4uw+RGeeRYcOHhvbXhKRTXshPSJT3frs8trx/p5xaxWOEhz8Z8WEHEW3xWrPKyT3m57mWf8r7tIoT8GzTrsAOKf3hy/5q/2Ke99WS6eUUgPDxT8ZBrUfgT+1YupxJShpi5T8e7E41y3SvzUdd8cnkax6bX+PfQcyfL0WWY1CiPHAPLvYdktz4cD5h3MyD+QlKJO1POKIalA75idXfZghvnO9HzDXBieY0sHmEjQMvdTQApPrcxEGdHcoZhwLBcxIixrVrlhBDSgz46szXtwwoCe3yniVZPKt+9wJsbw37p0IWEXIwIjrXF6r2QOYF7CwAs3NcuPWcc5boh7JJrPrk6fcamffz76rmufEZkmoue2bNmB/rKZcnSpYxT0+nqc2p5GdULDoknJCqXDw6XVEK7FnZMc6wrL3qS3wgvtl2CJn3aQ4cVgYknhaJAqrpHX44uPhkK50M/yuuhugaG0i5ksUOuQ1uZA2eu+aTOdWRZMzaDxr+e50G+euvHy6L234hGeSb4qPyOxmk9rLRwHJ4rRuyp6Uo0LDanliebhTEbSCV+LkTtglFWEl1GeWOfEnLj0Ag5B40+lVKj+ypGeU2HDNCTeR2oby4D50MPlC+wlJ7V1j69XNfW3jPWfFLnKrKsHZuB43+gquf66sfLovaf4fu+tG37gnvv/xZ///7Fnz9/pq4GITcP5wohRzgfrkS6wdz6wgvvX43GTcvyDxh/tf/+m7guhBBCCCGjkH5uAe/9Zg0yMi4/bfxplBNCCCHkV2Kud9hNXQkyGT9t/Cf/JCIhhBBCCCH/Oobv+3I+n09dD0IIIYQQQv5Z/gNwuw76P4CbvuBAyA3BuULIEc4H8lugLJ+H2n90XyGEEEIIIWRiaJQTQgghhBAyMTTKCSGEEEIImRga5YQQQgghhEwMjXJCCCGE3BgpNnMDhmHAMBxEpbAIjjHHJp2oaoSMxOhGebqZwzAMzCuzp3he/JyoFIh5S5g2naY8bVjv8qqKoU7kGKX6NaaplNdYp8hpaGcEx6jmr5ajKrGm8pvClbIbyySE3Aqn6LCGTNrjVnSAXm/TKCIjEr3BnYWQUiLx9nhVhC1ylkC4w9o8Ru+yDcp5Oy1y3LBGciG8GfqMcWGDNdmAzflUbLQOHTg2IxrlmQH5hBd4ohKUbvC0XSGRMp9wAsGy6JgIjuUCXgIpJWRoI1jmk6YrXVt5XWFt5SHCm1JeaAdY9pigosgrVyZLddAjB4blYhbKQxyZeIBrHQc/3WC+DGAf4oTA6wYpFvCVNAICXlLE8Q9/RlYtv6nOtlq2lNitTU2ZhJDpOVWHDYkbwVnujzol8QD3CUe1NIel6EMpy0YRIZck/d4f/m3ezRB/JdnzzRxLhPDVv5uutQ0qRA4MVc7DGVyrHLe0Rvo/5Q+0/3L6jHHkYLm3Ydd0ZCmSxq7T68BrMKJRnhmQu7VVDzLX2O3WKPS5+bCCwB7fKYDoAwFsvBTafvEMT8T4SjrS6crThenKwwK+Up51L4D99yBD1Vy/wEaAjwgAUmxeAwgvKSsUc41daCN23xQBE7g/VLdcjyEsHu0Bdb5MmYSQS3OqDhsQN/3GHjPcHRTsHWbHhHhzAe+dOoFcB/Nudli70u89xL2VGWbuDGHVUNbaBmXS7z0gVngoIi8eYbfEJTdE5xhn9pX98ox7bUYau06rA6/DbfiUJ1+I847IJsw9qkvPvmnGKOlOpX95Ed7cGGL1MGxRSr+xL4zd9BPbWGD10JCDqhjMB6xEDNc693g4E1LM7rrrfLEyCSHXZIjO1MY113ixg/xkL8VmvsTee892w9Nv7AFsn3isT67E4hkeXFiGAcud4WUNbJ5czMLjqXArGtvAvJsB8RfK76zll9hgSRetm6cyxunmCe6scoLSScWu0+nAK3EDRnmxe/zcMtFM3DW+qnSlO5VKeQf/oiUCO8xcPQYQvbmI1bdy7UtEoRhMrHcSoR3DtYYrhti18jpb2K6S2vHbUeGo/lTnlUkIuRXadGZ33IWfH+caFlx4eC/0XfKFGMDqXXGfC5a8d0JGJFuTCvdMqzC6rOOdiGZ/3w7bYOHnMl6sga/YH9wd1DIlMs/S7rtk5NpUxrjtBKUNjV3XqgB6Vx8AACAASURBVAOvxORGeeR0NTyF4lo2IN2pVMpb+McJev/a67Ln0Sg2sNx7SEpuILpjMtV9JBOOo2LobyQLxV+07BKTUfYpL+86nFomIeRWaNaZ3XEzv/WPx1wHrLawSi/n6rHuA1ai5QSTkEtT+BP7Vr5bnt17mjX4+/axDYp1Lvu9YBY3xyu7n5JboTzGaf8TlIJWu65LB47PpEZ55NSN1uajJWCmbC83pTuVPuUd4mr81FTUi5ZSraN5hxl0vp4tx23r93YfUR2LZ3giKN1a78vJZRJCrsogHaaJm25eEQgPz/nKVuiA7WcKWPe9dB8hlyeCY22xOtxnKDavLNxXLvSdZBvk9ywemyw61f2U3AT1MU7wFaseABbcON8cnXd/rEK167Q68EpMZJRnnx1qnDyLx/KbafQGNy4mjCbdqejKSzeYK+ez6ef2TB/2BZ49Uf8yQv7lk+IoJt3My8dy0Rvc+BTFYGL90rxbXuVyZRJCrkoPnXnw/9bErRns6Se2cW7c53dODotTrh8a78cQckEip+rXW2wWJfiKi/VYbxtETtsdiAiOsvZGTnltrrufkuloG2Plq3RSQsoEnsg3R/N4pfHX2HVaHXgtfN+X4xBKG5Co/ISXSBnatecAJOwwS5p4UhyeC+klRZa6dJrytGGa8mQiPaGmUcMy9vt9udW2km9r11TbUc23u9yszs3pyuVnbc+6tpqv2g89yiTkDKpzhQzhTB1W6FZt3Ex/NeZfS1foFHIqnA89CG0J4cmk+qwqnx02RWi32RcVGa/mUy2bNHIVWe6yGw/U7aDS+HfYOlodOBJq/xm+70vbts+x6/9p/v79iz9//kxdDUJuHs4VQo5wPlyJdIO59YUXOcDnmAzipmX5B4y/2n//TVwXQgghhJBRSD+3gPd+swYZGZefNv40ygkhhBDyKzHXO+ymrgSZjJ82/pN/EpEQQgghhJB/HcP3fTmfz6euByGEEEIIIf8s/wG4XQf9H8BNX3Ag5IbgXCHkCOcD+S1Qls9D7T+6rxBCCCGEEDIxNMoJIYQQQgiZGBrlhBBCCCGETAyNckIIIYQQQiaGRjkhhBBCbowUm7kBwzBgGA6iUlgEx5hjk05UNUJGYnSjPN3MYRgG5pXZUzwvfk5UCsS8JezUdIgcJV1lMuvSadrQ0Fps5i1tnW9QTR05zeWVlVGzUoocA4aSsMirsex6AZqyUekrTf0qAdU6VSpS6uNaf1TDa23JymzLXt+mpv5sz+u8viHkSuh02sC4rTquQzcSMhrRG9xZCCklEm+PV0U2I2cJhDuszWN0rW1Qy/t0e4BMR9cYl8M1OrGyjrfZp9023+UZ0SiP4BgGnvACT1SC0g2etiskUuYTTiBYFkZnBMdyAS+BlBIytBEs8849NV3kwFju4SUyD5vBtXqk07XhAv3zEQjYtkDw0TzrRVEnKRHaAZYd2kEIgdh9Q7cO0ZSdbjBfBrDDvK9kCLxWXyhMrF9sIHg9Cn26wWsg4D03/DHbyIFhbbEq+l9KJKstnorEkQPDcjELj+Ey8QDXGjAphvVnNs5Nk+7cviHkCmh12pC4Oh2n042EjEv6vT/827ybIf5KsuebOZYI4atLjdY2qHCyPUAmpWOM080clhIuZfml7UgERx3/xAPcpyvYfD3xfV+OSyI9ASm8RBPFkwJCeomUMrQlYMuwkt4OT0+XeEJCePJYg1Dag8prb8N+v++MVy8/L1d4Mkk8KUrlt+RTxD/8FxJKJUMbUnih9ET5eeKJ0v87y1b7tAO1DtX6KLGkjZbxa2urWs9D/TRy0NWmtjJqY9+Rz4C+IXXKc4Wcg1annRS3Ref01cVkMJwPHShrXuKJTDYb9XsDGl19vj1Aqkwiy6Uxbtd/zenUMe6pD0dE7b/b8ClPvhBjhjszfzsW97AqUfbfDa+qPdOZdzMg/kJSConxlQws74JEHwHE6gGm+YCVCEpHc3VSbF4DYHaHxhe/AxbW7x6EuoM9tGzzASsRw7W6dwcWzx5E8IFIt0uefmMPG48NQVn4J7axwOqhoWWLR9jYo89QDOtPNf8A6ob4pfqGkDHR6bRz4qpMpRsJAQAsnuHBhWUYsNwZXtbA5snFLPTRtpwcUGyDKrdoD5ATUMc4/cYewPZJcVFt8yww13ixAywNBxFSbOZL7L33ll3163MDRnlmcArvuWWimbibnZlu4WfuHwcfolfsW48m2srrT+xaJX8ly40rVc+M2MwQNfGwEoi3nzU3iGM+FrarBNLvVEW5wMVwn1rcKjrLNrHeSYR2DNfq8MsqhNtyEdsvzUKdfCFueFymWXlmdBsPffuzk0v2DSFjMkSnDdJ/Os7XjYT0J9O3UkpI6cPaPMGdhfCto893s3tjh21wZXuAjEFljHM7Y/V+dEkRwbL1PsDCz12CDQsuPLzfikWOGzDKI6erU1IormUnp1v4ir+yfMGs1VJsLm8IJd/l3PepVMLnFrFYodgcNh9WEPEWn2lLPqHd01c8Y+GHsGP36LN9QtlFf2Wu3e3G5+LZg4CNsM8LQyu63XCB++q2RYW+beri0n1DyJj012nD4rZzvm4k5CQKf2LfynfLszs9s4Mv8JFu2+C69gC5PM1jrGzumQ9YibYTjsxv/OPxeL/NuqENtkmN8sgxsNx7SHbrg1tG89ESMFO2Uk9Nd8zgA0HuUjEo3UVI8bmNgTg7ljMMA4blIkaMbZsVuXiG19clI0sAPzfkP88s21y/wxM9dqtbq1J3ESkXcIdZ22549IFAu4sOnNSfpfwL15oJ+oaQS1GS5cvEvb5uJKSJCI61xeq9WO+LjRoL95Ud7ibboDv7Ke0BMpTGMbbuIXq6uqabVwTCQ+FtW6zjnfbCtZjmomf2rHb5UUpZuxjYcNlveLp6vGN9+qS74EXP0JZouJCQeKLWTt2lq+aLng19DCVej7IPF2pK5WouUPS4eJPlX85DLacpPMtXbVPLhZtT+7Oa/xh9Q0rwYttYVHVaUrvw3R5XltKUn/fVqeQUOB/6UV7b1HUglHYv26D7QwTD7AFS5TqyrBvjiv6qrM2l8a+OaW4L9P24xxio/TeiUZ4JNyo/4SV5p9TDDp2Wd1L2XDF6Tk1Xet7Q0W3pdG3IGWqU9/tKSfcC2W2UK+0a9IUUxZiv9UcDPW/DZ8atkm/T12igK7daryyO6DA+mttUz3+UviElaIRcEK1Oqxjl2rgdOq5VN5Jz4XzoQeWrY4dnVTntsA1K+v1ke4C0cRVZHmT/lY3sJnup2abrtvnGQO0/w/d9adv2yTvt/zp///7Fnz9/pq4GITcP5wohRzgfrkS6wdz6wovs8dUWchI3Lcs/YPzV/vtv4roQQgghhIxC+rkFvPebNcjIuPy08adRTgghhJBfibneYTd1Jchk/LTxn/yTiIQQQgghhPzrGL7vy/l8PnU9CCGEEEII+Wf5D8DtOuj/AG76ggMhNwTnCiFHOB/Ib4GyfB5q/9F9hRBCCCGEkImhUU4IIYQQQsjE0CgnhBBCCCFkYmiUE0IIIYQQMjE0ygkhhBByY6TYzA0YhgHDcBCVwiI4xhybdKKqETISoxvl6WYOwzAwL80edbLlPydSE2GuhJWD5qV0alj/dJUJfmq6emvr7arWsSXOoX8iR5O2XtdefduUz8l5NfdB5LSXU4TNKxo03czzcY/gGPU6H8vr6LOuds03SHXhJ7S7aJO2X67Sv1kejeNLfjclXdFtoJR1mRJfl8/AMgi5GNEb3FkIKSUSb49XRfgiZwmEO6zNY3StbVDL22nVy8PWfHJNdGM8ZPy1Y6yRjavg+74ch1DagBReKD0BKbxECUukJyDtUJcujx/aEhDSS6SUiSeF8GSRU+IJCdgy7EonQ2kr6UIbEofCT02Xsd/va+0qtTW0JdT8dW1PPCmghpXLL/Iqpc3TVPPX1+H0vJr6IOtDIW1bNIRlaYRQx6ooriF+4klx6P/DQ4281ApTxu9YTnl8z293aJfDy7J4uXLyp5r+HdA3E1OeK+QsqnIe2rX5pZJ4QkLVJX3yGVgGGQbng57S+hDah3+3rhuttkGVTJ8e1bC65nSv+aTOVWRZN8ZDx19rD7bJxnio/TfiTvkCvpTYra1hyaIPBLDxUrwCL57hiRhfCQBzjd1ujeLl2HxYQWCP77QjHRbwlXTWvQD239nu6anpeneDDxnaiN23nm/cAveHLlPLT7F5DSC8BP5CiW6usevKv1aH0/NaPNr1Pog+EIgVnp9XEMFHc9rVCzwRYDnqlm4EZxnAruygmOsddmsTF293KYsX2AjwEeHy5fTpX/JPkX7vAbHCQyHni0fYhS6sEeHNBbz3oy7rk8+wMgi5LObd7KAL0+89xL0FpBs8uTOEJcUKvW1QJf3GHjPcHSLfYXYIvMCaT8ZBN8ZDxl83xlrZuA6T+pQHy/qxaLYQ3KNqyu+bejf5Qpx3YP90Ed7cGGL1AHNQeeV0g1g8KgabBvMBKxHDtRqOidNPbGOB1UND6X0WS7UOJ+eVGZuY3ZX6IPoIsn4xH7ASQemY8YiF9bsHEbyOdwSefmMPG4+LtvDLtrtedv5CNUn/kn8J824GxF9ISk+LzYQK6Tf2ALZPdXdBXT6DyiDk0iye4cGFZRiw3Ble1sDmycUs9NGm4g8otkENc40XO8Dy4Bq5xN57L23kZJyx5pPx0Y2xLqxEZYx7y8Z4TGSUm1jvJKSUub8Y4Fptvlsm7hpfVYrdyOeWCVpJd/ATWiKww3zn9JLphnF8IVF9mrJ+Ce0YrtXkw6kTsqGLZf+8YtfK62lhu0og1V2KdIPXoDBATTysBOLtZ/POgrnGix3DfdqctPPQ3GcKyRfizlwu1O4K0ZuLWN1VnKJ/yb/DwkdoB1ge5sMr9qIlbj4vVu+5zk08iGCZ+Vzq8hlSBiEXR7UTfFibJ7izEL51vKvT7O/bZRsAC1/msm3BhYd3dV0fac0nl0Q3xt3jrxtjrWxcgZv4+kr56L9Kiu99/WnkdHVYJd3CP74E3L9qLnCcmm4Ydnh8KZGy/Oa/8NWXFdUw1+2Gq24vfeifl/CSrJ4Nrhfp57ZkjJoPK4h4i8+WvBd+CDt28XTCbq+uz/pzmXYDqjFtYLn3kOxU94Bp+pf8OxR6Ivu9YKZ9I1WPZB+wEsfTQF0+w8ogZCTSDZ62KyS+le+WS0gZYuY+1U5eu22D7MMCH4/5OrvawlI3wEZa88nl0I1x9/hDM8YdsnEFbsIoV4/+m49MgZmy7Rg5dSOoT7oC1d/o1HSDyP3WW90qWjDX74o//R1mbbvh0QeCrqMatQ6n5rV4hldyn0jxuY2BODtiNAwDhuUiRoxtq9W4gJ8bn5+a6p5El5vQxdqdcTCmpYRUDfJJ+5f8k+h0jHXfX2/p8jlRjxFyHhEca4vV4U5Esalh4b5yctNkG1RJN68IhIfnXI6LdbZJp5685pPR0I1xn/Gvoo7xENkYjfG+vlLQ9IWJ8m3W0IbyZYDsayjHy7Dqjf8sr8avCOjSJZ4Uyg3qpq+2DE+X0fn1lZYvbjRd6C59JeRQl2NfZeVXbgL3+fpKLc4Zeem+ztDST9UvlRzGEQ0328/8+kpTu9R+vUi7G9vUXY9x+pdfXyGVL0gV8+sgFBU5a5Grej59w8gpcD70o6xrVX0XSruXbVD5wkb1K0LqV896rPmkznVkWTfGA8ZfN8Y62RgRtf9G/yQiKj/hJYfPxR1+1Y7MOyILr36Sq55nqbOb0qlGYC3sjHSy2Sgv16/ZwGzslx7l1fugT/4tn/TpmVd5IT6+xLR/Lqr8otNowBZ9PsAob+6zOtkk08jXme1ubVOtG67RvwPGe2JohFyQks5qeelVZacS/2iva/LRlkHOhfOhB6Gt1d/VT9222QZNn7RtXkt6rMGkxlVkWTfGg8ZfP8btsjEeav8Zvu9L27Z776yTMn///sWfP3+mrgYhNw/nCiFHOB+uRLrB3PrCy8n3kEgXNy3LP2D81f77b+K6EEIIIYSMQvq5Bbz3mzXIyLj8tPGnUU4IIYSQX4m53mE3dSXIZPy08b+Nr68QQgghhBDyD2P4vi/n8/nU9SCEEEIIIeSf5T8At+ug/wO46QsOhNwQnCuEHOF8IL8FyvJ5qP1H9xVCCCGEEEImhkY5IYQQQgghE0OjnBBCCCGEkImhUU4IIYQQQsjE0CgnhBBCyI2RYjM3YBgGDMNBVAqL4BhzbNKJqkbISIxulKebOQzDwLw0e9TJlv+cSE2EuRJWDpqX0qlhY6QriByjoR0NRE5LOVmbq+nTzRzGfINqrkV59boc+66pnofylTyLvI6/qoKr90FrW/vGI4SMS0nX9DNQGvVYj3x66z9CLkX0BncWQkqJxNvjVZG9yFkC4Q5r8xhdu8aX8nUq66GyLurCxm0t6UmzTYnauPbRVTq9NpXOG9Eoj+AYBp7wAk80x7BDCSnzn784prNcwEuy56GNYJkvFOkGT9sVkjxN4gkEy2KyjJDu0BQHy70Nu6UdB9IN5stAaVcIvNYN7j599xEI2LZA8NGsCoQQCBryjj4C2LZdj1+0L1dwS1XJRA4My8VMHY/EA1yrvnj3iUcIGZfIgbHcw0vyeRjO4FodhkOTHuuTT1/9R8gFSb/3h3+bdzPEX0n2fDPHEiF89e+ma9f4Cgv/uH7lv9AGYD9ioQsbsa2kDzqbMoKj6rHEA9wn/UaFTq9NqPNGNMoX8KXEbm0NSxZ9IICNl+IVePEMT8T4SgCYa+x2axQvx+bDCgJ7fKcjpQMApNi8BrBfnnHfqwEC94cmL+Ar5Q7qA7HC8/MKIvhoVCyzlxfY8RafpQOIDV4DG4+P+uzN9QtsBMjs/ax9wkvKSs5cYxfaiN23vPy+8QghY5N+7wGxwkOhXBaPsAud1pyiUY915zNU/xFyGcy7GbD/RopMTsW9lRnf7gyhXzGRdWt8F+kGr4GA99xgduvCyJXR2JTpN/aY4e4gAHeYafPS6bVpdd6kPuXBsn5kmi0S96h2+75pdiVfiPOBGCtdunmCO6u8lbdhPmAlYrjWeb5u0UcAsXqAaT5gJYLSsd2RBR7tGFvFKk8/t4j7vNGn39gXLw/pJ7axwOqh4dVBXaD7xiOEjI55NwPiLySlp+pmQpk2PdaVzyD9R8glWTzDgwvLMGC5M7ysgc2Ti1nod69xyhrfRfTmIrZfSq4wfcLIDWGu8WIHuQdAis18ib333jpuOr02tc6byCg3sd5JxZ0CmqNXE3eNrzzFzu1zywS9QLq2t/JWsnaFdgzXavbPjF2r5PdkuXGletmbeWb8mnhYCcTbz0YXmMWjukMd4c1Frzf66M1FrO6OaZWXutD3jUcIGZWFj9AOsDzoklfs245adXpMl89g/UfIJVHtBB9WYSxZx3tNzW6TXWu8SoSPALAfm2LqwsitsfBlrsssuPDw3m6Rt+u1G9B5N/H1lbI7RZUUimvZgcjp6Piz0yX938orLHz1ZaNsmKu+3YXvW6n0z23JYDYfVhBVN5VDQY/HfstdXpo2soHyy8By7yEpudXodrlVd5y+8QghY1Pomez3glncFCvt1GPN+XSnI+RqFD7jvpXLZXZna9bgN9y9xqvZviIQHpo9V9rDyK2R+Zt/POZ21WoLq/HSuk6v3YbO+2/Cso/k7hQrCzBxPE5Vp9RM2aKNnLphqR7DXiYd8BVnLjaBWtfYgrGtGrXNmOt3eFsr92vv1RH43MZAHMMy3HLQZ4p1Tcks8OwJWB8RHhFArJLWYoSXYNekpMw7zIpd7mpw9IEAM4QmAPSNRwi5OvndmLC2miTD9NghnwQfy/P0HyGXIYJjbbFKdjCR4rgBZOG+cjrUtMbr8n1zY9jhriGuLozcGsULVJLrv8L22tbsJp0+FBAxEE+t83zfl+OSSE9ACi85PAltIZX/ytCGhPBk9iiUNiDt8BAoAVuGSl7HuCpjpNO3Q0op9/v9MYYnyuGhLYGirc3pE08c61WKX4lTacuhvoknBVCuc2iX2hra9XLr+VfKzfNV0/WNR0gT6lwhlyTTYcc5mOs7u67F2vRQcz5905FT4HzoR3n9Ute/UNq91vjcxqjMh/K6KnuHkTrXleUGXVS123K7pBjypvFvzatX2GVR+29EozxT8Kj8hJfkHag8r06kg6GJshFYTVf8is6+dLoS3Ub5QTE05tVtlLcLjvriUDHKmxbggUZ5cx+19EPfeIRUoBFyQUo6qzq/Bxjl2nw06cjZcD70oLKWHZ5V5bVjja+vrboXUF0YaeI6sqyxKWU+xi267CcZ5Ybv+7Lpu9akH3///sWfP3+mrgYhNw/nCiFHOB+uRLrB3PrCi+T9iLG4aVn+AeOv9t9t+JQTQgghhFyY9HMLeO83a5CRcflp40+jnBBCCCG/EnO9w27qSpDJ+GnjfxOfRCSEEEIIIeRfxvB9X87n86nrQQghhBBCyD/LfwBu10H/B3DTFxwIuSE4Vwg5wvlAfguU5fNQ+4/uK4QQQgghhEwMjXJCCCGEEEImhkY5IYQQQgghE0OjnBBCCCGEkImhUU4IIYSQGyPFZm7AMAwYhoOoFBbBMebYpBNVjZCRGN0oTzdzGIaBeWX2FM+LnxOVAjFvCdOm05Sny1MbpsuzgcgxSvVT84scA8Yhc1XhtJXdHKdUj0rdG+sZOdo+I4T8QErzuttAadRjFd1w/GVGUJe+JWQ0oje4sxBSSiTeHq+K3EbOEgh3WJvH6ENltRxfmT+VOdFn3SfXQTvGA/Rhaz4d+vAajGiUR3AMA094gScqQekGT9sVEinzCScQLItGR3AsF/ASSCkhQxvBMu/grnRt5eny7AprzbMdUeSV/3zN33ctxQ1tBMu6ErBDWcpvV2iiyIFhuZip4YkHuNYxj3SD+TJQ8giB1w2oZgj5wUQOjOUeXlLojhlcq23h0OixhV/SLVJKhDYA+xELrb4lZFzS7/3h3+bdDPFXkj3fzLFEWF5XB8pqupnDUuJLWRj4ERx1XiUe4D5xR/4W0I3xEH2oy0enD6/UzBGN8gV8KbFbW/Ugc43dbo3iJdd8WEFgj+8UQPSBADZeCsNz8QxPxPhKOtLpytPlqQvT5TkGCx8ytBG7bz0WvhSb1wDCS8rKyVxjV8tD4P7QhAV8pQ8JIT+P9HsPiBUeiom8eIR90IVVBuixdIPXQMB7XnToW0LGxbybAftvpMjkXdxbmUHlzhBWd7oGyWqENxfw3hvWwfQbe8xwd8joDrMLtomcgWaMB+nDIbKi6sMrcRs+5ckX4nwiZJ17j+rysW/qMSWdDl2eg8q7BotH2Ajw0WWVp5/YxgKrh4bGqwJpPmAlYrgW/e8I+S2YdzMg/kJSelpsJpxO9OYitl9KbgEHeupbQi7C4hkeXFiGAcud4WUNbJ5czEK/e9dSJ6vpN/YAtk+Ke0Lhv2Cu8WIHWBoOIqTYzJfYe+/N84FMizLGZ+lDjaxo9eFI3IBRXuz4PrdMNBN3ja+qXel0tOXZFdaP2LUu6osULNt8m3QLZCGQJtY7idCO4Vr9fE8JITfOwkdoB1ge9MIr9gNc7JqJ8BEA9mOTRj1H3xJyCtnalbkR+LA2T3BnIXzreI+q2d+7Q1aTL8QAVu9HFxURLA9+xQtf5nPLggsP77TIb5DKGJ+sD3WyotOH4zG5UR45XYKfQnEtG5BOR3Oe3WH9KPuU93ir76DsU67mpztKVl1WMkWT+U+Bu+aE/AKKOZ39XjCLz8sv3bwiEB6aTmrP07eEnEnhB+xb+W55dj9q1uDv3U9WVReVB6xEcTqe3b/4eMzXy9UWFjeybo6mMT5FH+pkRacPx2RSozxyDCz3HhLVv6fxGAKYKVvCTel06PLsU95VyX3cO1/OzDvM2o5nog8ELbvo5vpd8ZknhPwK+uqN9gzw5sawX+o6dai+JeSyRHCsLVYHH/Biw8nCfWU3tJesWvetPsRVQ6xYL7eftMpvhV5j3EMf6vNp14djM5FRnn3qr7FDqj7V0RvcuOhcTTodujy15V2Z/Esp/Y6IF3j2hPKlmOY80s288gm0N7hxeRedEPKTieCU9Eb+KdUB3y9MN68Ni9iJ+paQCxI5Vb/uYlMpwVdcbD7pZbX0OeL8ntXB0M7XxNVDwyZd+oltPOEmHVHoq4+q+rD5c9S6fJr14ZXwfV+OQyhtQKLyE14iZWjXngOQsMMsaeJJcXgupJcUWerSacrT5akN68hTSrnf78uttsvh1bBDG2UiPVHNu1KvxjiV/Gt90pVHNZyQ61CdK+QMSjqrqnPyOX/QNV16LAuv6a0uPU3OgvOhB6EtITyZVJ9VZbhDVstrr6zNHzUotDXrLWnkKrKsG2OtPqyMf6dea9GHI6L2n+H7vrRt+3Sr/h/n79+/+PPnz9TVIOTm4Vwh5Ajnw5VIN5hbX3i5wP0u0sxNy/IPGH+1//6buC6EEEIIIaOQfm4B7/1mDTIyLj9t/GmUE0IIIeRXYq532E1dCTIZP238J/8kIiGEEEIIIf86hu/7cj6fT10PQgghhBBC/ln+A3C7Dvo/gJu+4EDIDcG5QsgRzgfyW6Asn4faf3RfIYQQQgghZGJolBNCCCGEEDIxNMoJIYQQQgiZGBrlhBBCCCGETAyNckIIIYTcGCk2cwOGYcAwHESlsAiOMccmnahqhIzE6EZ5upnDMAzMK7OneF78nKgUiHlbmCZPXbpzygOAyDGay2xr8yGTTLHU8owcGPMN0nLCUj0a69IQp1anyNHnUSi7SkDkVJ9FcCplHX8OopLS1NSHEHJ5SvO820Bp1ZuH7Jrnb1c6QkYheoM7CyGlROLt8arIX+QsgXCHtXmMrl3jGyjHz+dPZe0sr3fkFtDpo8Yxbc7kNFvxCoxolGcG3RNe4IlKULrB03aFRMp8wgkEy0LoIziWC3gJpJSQoY1gWXSuJk9dupPLK7J2sNzbsGtlXpDIgWG5mIVZL5x2tAAAIABJREFUHbNfCCwVZdAUJ/EA1zoKaLrBfBnADpU8XivGP0ysX2wgeD22M93gNRDwntU/RruAr5QjIOAlRb7+4c/W2qU6S+xUTUkIuTyRA2O5P87HcAbXajMcdHrzmF9dx/VIR8hIpN/7w7/NuxniryR7vpljiRC+ulRp1/iGvDdzWEp8KXMDf+GX1jIpJUIbgP34Y/5M++9Fr49ax7Qpn5NsxSvh+74cl0R6AlJ4iSaKJwWE9BIpZWhLwJZhJb0dlhLU8+yV7pTyiv83t2O/3zdkLyQOGbTUI7QlhCez3EJpo6WuujY3tV1tWwehjUM91X83F9+Ur6aPCanQNFfIaSSeUPSHlJkO6Zr3bTpEr+N66XAyGM6HDpQ1MvFEJn+JJ0VpvW5Buw72mSt98iEF15XlJn00YExPtRVHRO2/2/ApT74QY4Y7M387FvewKlH23/qj00HpBpSXbp7gzipv5Zcm+kAAG4+6MtJPbGOB1UPDq9/iETb2+E4BmA9YiRiu1X2cvXj2IIIPRI275ISQW8W8mwHxF5LS0xhfSUsCDVfRcYQMZfEMDy4sw4DlzvCyBjZPLmah371rrazxNdJv7AFsnxT3lBYfhejNRWy/tOy4kpthwJieaiteixswylNsXgMI77llopm4m52Sb1u6AeWlGzy5M4RXXq3KPk3q0YlOOIoF2cR6JxHaMVyrw6/KXOPFDrC0zlM8wZK+d4RclYWP0A6wPMy7V+xPcTGZSMcR0k22lsncXdIqXh6toz9w8z2HjjU++UIMYPWuuGYGywbf4QgfAWBrd8vITdB7TJs41VYch8mN8six4MLDe6tFmEJxLRtAc7r+5SX938ovjLneHXydyuS74Y0I3Cuvfgu/8ImCdtd88exBwD5rUS77lF+/vwj5FynmePZ7wSwemkM6mY4jZBCFr69v5TKb3ZeauU+1ta17jQdKG1zmA1aivlOabl4RCA88QP4pdI9pM6faiuMwqVEeOQaWew/Jbo1DXzYeywKzjvODPumGlQd8xeousAU3BmLXqn81pQe1Ca9KweIRNgJ86N7qzDvM2o6now8ELbvo5vodnjjtWJsQ8kPo4wJXI7mojiNkHCI41har92LdLjagLNxXToea1vga1j2EdoMrK/PNjWG/aPIht0OvMc041Va8FhMZ5dmn9BobXTVQoze4cY/FRpvulPKUL49ICSkTeAIQXgLZMVDJl7plZeJhJRC7b4pbR3XCL/DsCQRL3ed3ijiVXe/8ayvFEUu6mZeP9KI3uHF5F50Q8puI4CzVY9bmT57WOV3HEXItImeJvfeuuFcWm0wJvuJiM0qzxqPyud/83tX2M18n8zVSva+Vbl5PeMklk9ExpqXxP9VWvBbjfX0l+6IIKj/hJfnt13rY4esfiSfF4bl681WTpy7dyeWpdH19Ra1b/XZ44onmOpcjKfVoiVdrS/MXUdrDm8o89TZ7tSxN28g/D782cUEquqI85/J5eficQIferKQ7Pu+bjpwC50MPSl8pU55VZbFjja99Xawyf8pf3sjknnLen+vI8hD7rzym+vEfYCuOhNp/hu/70rarvsukL3///sWfP3+mrgYhNw/nCiFHOB+uRLrB3PrCC+87jcZNy/IPGH+1//6buC6EEEIIIaOQfm4B7/1mDTIyLj9t/GmUE0IIIeRXYq532E1dCTIZP238J/8kIiGEEEIIIf86hu/7cj6fT10PQgghhBBC/ln+A3C7Dvo/gJu+4EDIDcG5QsgRzgfyW6Asn4faf3RfIYQQQgghZGJolBNCCCGEEDIxNMoJIYQQQgiZGBrlhBBCCCGETAyNckIIIYTcGCk2cwOGYcAwHESlsAiOMccmnahqhIzE6EZ5upnDMAzMK7OneF78nKgUiHlbmCZPXbpTyyunqyqG1kaX8mtqAwBETnsYIqclvaqojr9SXzSUX+ur1vzPrR8h5CqU5mCHgXKmjit0QU2PEDIW0RvcWQgpJRJvj1dF9iJnCYQ7rM1jdO0a30A5fn3+UOZvG914D5UF4HbGe0SjPIJjGHjCCzxRCUo3eNqukEiZTziBYFksBhEcywW8BFJKyNBGsCwmjCZPXbozyntT0oV2gGXX6EYODMvFLMzSZL8QWNbf9D8CAdsWCD5qbx2YLwPYoZL+dQNVVOxS/hK7Qjs1lZ94gGsdha1H/ufWjxAyIpEDY7mHl+RzMJzBtdo2Dc7UcZGD5d6GXdO5hIxH+r0//Nu8myH+SrLnmzmWCOGrfzddu8Y35L2Zw1LiS1k28CnzN45uvAfKAoDbGm/f9+W4JNITkMJLNFE8KSCkl0gpQ1sCtgwr6e2wlKCeZ690p5ZXJBMSwpNqS/b7vfK/UNpoKbNKaGd5JZ4UpfIr9avXor1dur5W26nN/9z6EdJMea6Qc6jrolDabXPyLB1XxO2hx8kgOB86KNYgmcml8JJ87amsR01o1yjNXMkSU+YHMrks68a7016ZfrzV/rsNn/LkCzFmuDPzt2NxD6sSZf+t34cdlO6k8iK8uTHE6gEmWog+EMDG46Itgho1yPIyH7ASQeloDuYDViKGaw30mUs/sY0FVg8NNVw8wsYe32m//EepHyHkIph3MyD+QlJ6GuMrqcc9R8elmye4s8quJCHXYPEMDy4sw4DlzvCyBjZPLmahj05xVNb4Guk39gC2T4qLp3I6RJn/gejGWxeG2xvvGzDKU2xeAwjvuWWimbibnZJvW7qB5R38NpcI7PDoJtKDVl/NdIPXoDCeTTysBOLtp+L+YWK9kwjtGK7V7O8WLI0WP9B24Tsu2h35X6B+hJARWfiZq8lBB7xi3/votaeOSzd4cmcIb2W1Iv8Y2TojpYSUPqzCeLKO9yOa/X871vjkCzGA1fvRvVMEy8zvmDL/A9GNd4cs3OB4T26UR44FFx7eW43dFIpr2QCa0w0ub+EffLOT+9f+lz0BmOvdwYezVMLnFrFYodjQNh9WEPEWnxX9svALnyjUdqXLPuXqzkG+G96IwL2yXdaW/yXqRwgZl2L+Zb8XzOK+KfvouLT/riQhY1P4CftWLpfZXaaZ+9RwQbNrjQdKm1fmA1YC2H9HlPkfiG689bJwmzpuUqM8cgws9x6S3fpwXNp8LAvM2rd/e6c7tzzzYQWhM3oXj7ARoHovskyKz20MxNmxnGEYMCwXMWJsq1ZvUe76HZ5oPpouR7zDrOUIO3Otad5FL+c/Yv0IIeOgcZ07Tccl+IrVEzkLbgzErgVjzkvd5JpEcKwtVu/Ful1sLlm4r5wONa3xNaz7lnX8mzL/w9CNd7cs3KiOm+aiZ/asemkyo3JZsnZJqS1PXboTy0s8KZTbUIknanWpXnDI4lQuUal5hrZEw6UDNe/DpZZS+iKN7qJnkU8l/8STAsf+0uZ/dv0IaWbyy0C/lkyHHedkru+OSu0sHafmyUtvl4PzoR+hXZftTGRDafda47M8jvOhIsut6xdlvi/Xl2XdeA+RhXq6qS96jmiUZwsBKj/hJfkkqIcdOio3IrPn6mTR5KlLd3J5+eA2hmU0CmMpv3Id2wVCXTh15VbDKn3Q2N5qvdvzP79+hDRDI+SCVHRM46aHOo/P0HFqPBool4PzoQfKF1hKz6py37HG19a1yvwZ/DUzUuLqsqwb76GycOA2jHLD931p22WfZ9Kfv3//4s+fP1NXg5Cbh3OFkCOcD1ci3WBufeFF3pbv8G/ix8jyjcqC2n//TVwXQgghhJBRSD+3gPd+U0YYmYafIAs0ygkhhBDyKzHXO+ymrgS5CX6CLEz+SURCCCGEEEL+dQzf9+V8Pp+6HoQQQgghhPyz/AfgZzjo3yg/5oIDIRPDuULIEc4H8lugLJ+H2n90XyGEEEIIIWRiaJQTQgghhBAyMTTKCSGEEEIImRga5YQQQgghhEwMjXJCCCGE3BgpNnMDhmHAMBxEpbAIjjHHJp2oaoSMxOhGebqZwzAMzEuzR51s+c+J1ESYK2FO1CdPXbrTyyvKaqtLpQLYzPVxIkfXpqriac9z7HxK+SmBkaP2XVt7T++HPHBAnxPyj1KaJx0Gyok6taz/mvQKISMRvcGdhZBSIvH2eFVkM3KWQLjD2jxGH7ZWV+Mf5w9l/nbpGuNW27Azr7bxv779MaJRHsExDDzhBZ5ojmGHElLmP39xTGe5gJdkz0MbwbLoMF2eunQnlpdu8LRdIcnTJJ5AsDxnkkb4CARsWyD4KOdirl9gI8BHNfPoDW5s47H0d2HHz2dcNOWmG8yXgTJWIfC6ATdECFGIHBjLPbwknyfhDK7VpptO16lviv4L7QBLviGTK5F+7w//Nu9miL+S7PlmjiVC+OpaNnCtTjdzWEp8KQsDnzJ/s2jHuNveLGfVMv4Xt/mGM6JRvoAvJXZra1iy6AMBbLwUr8CLZ3giRjYfNXlq051YnrnGbrdG8TJuPqwgsMf3qRZi9IFArPD8vIIIPioDvcCjjZqRGn0EgP2IxdXzGZHOcgXuD0O8gK+MASEkN1jECg/FxFg8wm7TTafq1Mrcs+4FsP/mCzK5Cubd7CBv6fce4t7KjCZ3hrBkkWPgWh3hzQW896Z1hTJ/s2jHeIi9qRn/S9t8JzCpT3mwbDg6+N4D4h7Vrt139EqfdGeXl3whxgx3J1qI0UcAsXqAaT5gJYLScRwALDJrWjFSI2S29GKSfMZCW675gJWI4Vr0FySkDfNuBsRfKO85NG9CnKpTy0R4c+Ns3g6uLSEnsHiGBxeWYcByZ3hZA5snF7PQx6IrrW6tTr+xB7B9anFnPUCZv2lOtcd6j/8ZZZzBREa5ifXu6EqSeNAcvZq4m51WxjHdJcpLsXkNILznboXQmHyD10Bg9WACMPGwEoi3n+U38MVj2fUk+kAgPDwvJspnDDrLzcYqtGO4Vg9fWUL+RRZ+drR+8H18xb7HsW3GAJ168FtfIrBD7NY0T8i1UNdtH9bmCe4shG8d70c0+w53rNXJF2IAq/c878SDCJZH32HK/A/gDHusa/wvUcYZ3MTXV1r9oAEAKRTXsgG0pzulvMix4MLD+4kTNP3cIlaOm82HFUS8xWfZmsazd/SzPuwoT5bP5elb7sJXX6BomBNSpZgj2e8Fs7hvygE6deEfNzPuX3nxjUxD4evrW/lueXbfaOY+1daGfmu1svtpPmAllJMjyvzNc649ph3/i5VxGjdhlGfHCZkfcfOxLDDrOD8YlG5geZFjYLn3kJzs25zicxsDcXYUZxgGDMtFjBjbijVqPqwgglds0uwy5OrBnDSfyzK8XHP93u9uACH/Mrnf+GPDls6pOrWWzwT+lYRkF5W3WB18gIs7RxbuK6dDvdZq6763HFPmb4+z7bEe43++zXc6kxjlkVPe+Yze3OPuac31oumrIQ1o0p1eXvZpv7MHJ3qDG4vjlxKUm72x+1Z+C899qrdPrwjUi1wT5ZN89d5+u0g/pJt5+UgyT3M/8L4wIf8OEZylesyafwK2OI89VaemG8yVM930c3t1/0pCImeJvfeufP6w2KRJ8BUX8qhfq0uf8i3WxmIjKF9jVg8mZf6mOd0e6z3+l7L5zsH3fTkOobQBicpPeImUoV1+LjyZqEkTT4pDuJBe0iNPXbpTy6umK352eEi63+/VjKQnqvGFFOL/7Z29jqNAtOf/SPMiV4IOevwE5fxKtpOWVnLa2gSHRrpqaQOHnfXqCoeQdeqopVWD9gHME3g6aNC+Sm0A2AWG4sPGuGf+P8nSDMU59X3qUJyiizLlNionxa6QqLge2LfSo7azLYNa2er6uvEl7VCWVfuf/GSKc4VcRMFmKTYwTUznkDrXetlUzsUh4XxoQWCfr9fKunwc9w1r9dmaV5o/pySO+T7cZCxr+1jvG7bu/xY+3xCo7Wd4nidt2+7v1f/j/PnzB79//x67GITcPZwrhJzgfLgRyRZT6wsb2eKrLaQXdz2Wf0D/q+33a+SyEEIIIYQMQvK5A9z3u3XIyLD8tP6nU04IIYSQvxJzvcd+7EKQ0fhp/X8fX18hhBBCCCHkH8bwPE9Op9Oxy0EIIYQQQsg/yy8A9xug/wO46wMOhNwRnCuEnOB8IH8LHMuXobYfw1cIIYQQQggZGTrlhBBCCCGEjAydckIIIYQQQkaGTjkhhBBCCCEjQ6ecEEIIIXdGgu3UgGEYMIwVwkJaiJUxxTYZqWiEDMTgTnmyncIwDExLsye/nv9WYSER05q0u5KrIlw13h+u6tJSI1SZx0V628kTQn4QpTldtrF1951+K4QFxyf7Kcahs/0j5FqEb3AmAaSUiN0DXpXxHa7mQLDH2jzd3n6s6sf8uS46//dCUx+37jeNz9farg7EgE55iJVh4BkbuKKUlGzxvFsiljKbcAL+PH8SDrGyHMCNIaWEDGz486xx70qugmSL6dyHHaT3SxkAr1sUuzTEhy9g2wL+R8sV7lK9reQJIT+HEKv5AW6czenYBZzn6kVo5mXz/vQLbAD20/FPT59sg4T0sqtd7R8hVyT5Phz/bT5MEH3F6fXtFHME8NS/m95jrFaO+Uy/peiSsuj8k5Fo6OP2/abx+brY1aHwPE8OSyxdASncWHOLKwWEdGMpZWBLwJZBSd4O7kwu43A4aNPPCGwJ4co4dqUo5KvJ+1K9beQJGZjCXCGXcTbPA2m3neMFe6Cxd1o5cimcDw3ka5qUMnZF6kNUrpsVaMeqbsx3mEfkyChjudDHHfpN5/NdYlcvQG2/+4gpj78QYYIHM3s6Fo+wSrccviseVUaUq8RcYCkiOFb9a5Pww4dYLmCaCyyFX3glV8ulelvIE0J+EOYaG9vH/BiCMsfBfW+1oxe+OYjsTeFef97ilW+T/SPkmsxe4MKBZRiwnAk2a2D77GASeJg1ybYYq5VjPvnGAcDuuT60hdwJah936Detz3eBXb0Wd+CUJ9i++hDuS81EM/Ew+Qlyqex6LxHYERyrYoFLtnj1BZYLE4CJxVIg2n22CCO5VG+DPCHkxzHzJALbx9yw4MDFe6uVI8SHD9hPuRVLbYM8vhIGHKvqtX8b+0fINVHHpgdr+wxnEsCzTvHA1fG+zWt87ZiPvxABWL6fwheEP+dZiruj1McX9VvR5+tnV6/H6E55uGqqeAIltOyO5U7MPHWynxzg5HOHSCyxyFSYiyVEtMNnSwf5Ur118oSQn0Z6ZufjKZvTyx2sFg/byfYVvnDxUuNZm+sNbPgoH0vpYv8IuTp5PLFnZbvl6dmoSUW8b9exej7mlR12c4GlqHlzTkajuo/79pvq8/Wzq9dkVKc8XBmYH1zE+zWObfkwAaIvxKV7J8p7qHuQa4O5focrIqTnUxJ87iIgSl/HGYYBw3IQIcKurVd+Jb1FeULIT6PsXOdzWm9LQrw5EeyNxo4l3zhA4FF5t9vX/hFyHUKsrB2W7/n4y8enhcfSRyR6jVV1zFuPEDiAPvj9UtnHHfpN5/P1s6tXZpyDnum1/BBHkUDaUA5hFILy70kuRQ3QPx5GOaq2JQoHSs8PDMSuOMuvfADlUr1aeUJuBA+2XZHyYaXYleJoxzK7VTIkRVuTqynagcBW7V2z/SP94XxoR2Cr/oO6RgbSbrlWB/ZpPrQZ88f8uFa24jZjWdfH+n5T+1/r82nt6nCo7TegU55WHKWfcOOs4udpx0bLGiK9rkyIe5OT5cGYDZoKXcVBcd5OhcUUZR3X1ksjQ24PnZDrEtgVtlVKWe2Up/bg7CtYZRunLngt7B/pD+dDC5QvsBSulcd8w1gtrJO6MS9lyR8Y3iH7G7jJWO7kxxX77cxPqvP5pM6uDofafobnedK27Us22/9p/vz5g9+/f49dDELuHs4VQk5wPtyIZIup9YWNbPHVFtKLux7LP6D/1fb7NXJZCCGEEEIGIfncAe773TpkZFh+Wv/TKSeEEELIX4m53mM/diHIaPy0/h/9k4iEEEIIIYT86xie58npdDp2OQghhBBCCPln+QXgfgP0fwB3fcCBkDuCc4WQE5wP5G+BY/ky1PZj+AohhBBCCCEjQ6ecEEIIIYSQkaFTTgghhBBCyMjQKSeEEEIIIWRk6JQTQggh5M5IsJ0aMAwDhrFCWEgLsTKm2CYjFY2QgRjcKU+2UxiGgWlh9qiTLfutQlUIUyVtFbbR2SwHAOHKOJfVyOV5VRuGev1NMvl9ujJW66hou2N90rQqnSjJl9su2U5hTLfIr4arUp+kNxXaqVz+ooyunDX9kJdDUdqqHEq568p5NlYI+emEq3ZjvHRflV2ptakNaYQMRvgGZxJASonYPeBVGX/hag4Ee6zN0+3FtVq3Dur8jwbfhIxKUx8X0zUPbTpfsWAvb//gN6BTHmJlGHjGBq6ovsMOJKTMft7sJGc5gBun1wMb/jxvGJ1OnVx+ywrzgw1btJUL8bZbIs7KGNg+5i0mqMh1ZcZkXvGU/+EL2LaA/1Gtr0lHoe2kxF61TkMQrmBYDiaFfANgrn9Q0ZVTCIHIeWt80Dkvxw7L+KQzXu7wnHd0VTljF3AsOhXkLyLEan6AG6tj/Ll6AZl5hTmY2jIA9hNmTTa1wYYTMhTJ9+H4b/NhgugrTq9vp5gjgKf+3fRki2dlrY5dAb/L2uTNWqeRkWjo42Q7haWkS1l8aDuh8fnCFQzVrgYTOFbzZuw1GdApn8GTEvu11U0s/IAPG5u8NWcvcEWEdD5qdGrlACDB9tWHvXnBY5f89mvk/Wo9CuDwjS6unbnewIaPgu8dfsAXS7y8LCH8j8YOr9RxU0Ks5j7sQBYNIWbwpIfeJmu5gSvaPegUy1GcbOZ6nzn7aR8LNy6W01xjH9jdHwAIuVeSbxwwwUM+D8wHTFrLbvHqC7gvM+jtdE8bTsgVMB8mx/U2+T5APFqpY+ZMEJQdZXONvbJWm4slBA745j7M34O2j0O8OYD7fkqvRePzJd8HQCyxyJXMnmDfeByNGlPuz89fEaSN8ojyMnBoaJUmuWT7DGdSerrulF+INyeCWC6aO72YAQ4QeFQyCD/8VI+5wFL4hddybXXclGwQP119w8DC+t2F8F/bvSJKvnHQlSP5xC4SWC4qemiEyUXIYJhrbGw/e4OWYDud4+C+1+wMFQnfHET2ptW9hIzG7AUuHFiGAcuZYLMGts8OJkGLjaD4C5H60FpBlf/RJo3cCWofJ984ANg9N4cd6Xw+82ECRF+ICynq5u7wjOSUm1jvlfADF5pXBCYeWm8B1cjVPV23ye8YXzSHbwedw0TCNweR+uSV7VKljqOJxVIg2n1qd9/PdEA1Gu1i3ctEjlWIzbKcqLVslzj7xnKaa2zsCM7ztvkNRPyF5lLqDPFtJxchQzLzspA6w4IDF++tbFOIDx+wr/+ETciVUf0ED1a+sWad4oGrQxLzN6YvNc67zv/o4puQ8Sj1ceYbLN9P4XzCnzecr8tRfL6Zl9nU3Gd5xeHGoXt38fUVfXhGAiW0rAO5XNz+6boqPyUeM358beUAqw7v/OAiVl65JJ+7goNtLpYQ0Q6fSXsdQDlWu3sIiRqznsdntcVc74+xWE20KefMC2BHziku/CJ0u+Ejvm0g5Kqk8d4fT6dzFVaLXb1k+wpfuHihT05+Enk8sWdl63l6pmlScY4iXHV5SNX7H+OHjpIqqvtYDedbYCmaIyxSij7fzFN9lg0m7fcrr8JdOOVqeEb16wNgonsPBZ0c8BWpO7YWnChzeqdboEN+bePUCg5vwZlO8LmLgCh9JWcYBgzLQYQIu5JXXq9jBGZPAxumGbws5vvzknKYD5jU7YaHH/AbXmcS8lMoO9fm+h2uOLcjRdIQPHszsj0hpBMhVtYOy2O8cL65YuGxtJcUrqo3sbTowkPHDh0lZ1T2sfXY+gxBJx9zsNDdekZxysNVcUenEJ5RdrzCNzhRi0aplUsPK52efGK4InN692uYuvySLabK+4/kc9cYp6av+BucSJxO9iq71Pd9CHGGF1fAnzd9bvGSLF7gCh+ONowmL0dx/CTbafYaszodyRbTue51JiE/i7OFJfnELsoXluyzbqXJmmxfb77AEHIp4ap8XiLfeInxFeXrcTrm6xxy9dO6Ov9D65uQkdH0sbnAUt2UyHyt/HxZ4dPKrX3M9MMSN/cbPM+TwxBIG5Ao/YQbSxnYxevClbEqGrtSHNOFdOMWOrVyBeXSFYqMVi69Fxqdh8OhWGu7pLuUBjuobas8SafjvExqG1SllctcUX8pZeyKQj9UlrXQTqW2P5PRlbOmjrl+Jd+qcsSu0I+f8viqHQvklpTnCrmMwK6bi9ncK8yb1Mac2xWdTW2wt+QiOB9aENha+34ci2c2P/tlc6Cwjuj8jybfhFRyk7Hc0Mdl/0Q1f2d+RJ3PV9JxK1untp/heZ607ebYYFLNnz9/8Pv377GLQcjdw7lCyAnOhxuRbDG1vrC55PO9RMtdj+Uf0P9q+/0auSyEEEIIIYOQfO4A9/1uHTIyLD+t/+mUE0IIIeSvxFzvsR+7EGQ0flr/38fXVwghhBBCCPmHMTzPk9PpdOxyEEIIIYQQ8s/yC8D9Buj/AO76gAMhdwTnCiEnOB/I3wLH8mWo7cfwFUIIIYQQQkaGTjkhhBBCCCEjQ6ecEEIIIYSQkaFTTgghhBBCyMjQKSeEEELInZFgOzVgGAYMY4WwkBZiZUyxTUYqGiEDMbhTnmynMAwD09Lsya/nv1VYSMS0Jq0oV5qog8uVyllf6YK+OrlwVZeWGqOu141SntPtFivj/HpVG9SXBUC4atcGLe7rXuf2suU61um6Sl0JGZvSWC3b2DJFW1Z0aPqmETIY4RucSQApJWL3gFdl4IWrORDssTZPt7dfqyvWC+Vmra9ARqW+j/V92qwrt2vd9VybAZ3yECvDwDM2cEUpKdniebdELGU24QT8eT74Q6wsB3BjSCkhAxv+PG+wEG+KXGD7mB8bbAA5bTnrqr2CYTmYBKlM+guAM7kQH75jc/5SAAAgAElEQVSAbQv4H9fpdLuQp8R+vYaX/z92ISDgxnm6p/zZWU1Zki2mc1/RHQCvW5yty63uu6TOzbIi78NjP1Y5KleoKyGjE2I1P5zmc+wCznOtw5xsp7AUWyblyaHpm0bIkCTfh+O/zYcJoq84vb6dYo4Anvp303us1YX18qhM5yuQUWnRx9V9WqVKb9fa6hmCAZ3yGTwpsV9b50nmGvv9GnkbmIslBA74TgCEH/BhY5O30OwFroiQzscZPEXOehTA4Tt1moaQ05WzkhCrzKkr9uMMXsEJzvIVS7y8LCH8j3GfxhvLIvB47MZiW3a675I6d5WdeZCBjch5K957tboSMiLJNw6Y4OFonB4wqb05xJsDuO9VY7lvGiHDYj5Mjut08n2AeLRSx8yZICg7Sp3X6jo0vgIZl6v18X3btfuIKY+/EGULTPJ9AMQjyq784azlQ7w5EcRyARO3kCuWs5LMwX9q8WAVfvhpGcwFlsIvvJq7NdqymAssRQTHanht3eK+S+rcS3b2BBs+1A3xq9SVkLEx19jYPubGCiESbKdzHNz36l3s5BsHALvnileyfdMIGZrZC1w4sAwDljPBZg1snx1MgtIGVxVNazUAf94UklX0FcidUdHHzX2KVnatlZ6BuAOnPMH21YdwX2ommokHdQvoGEc5h28H2Ne+S72SXOtyVkjUxaYlW7z6AsuFCcDEYikQ7T4vfho/DaQOsXCNZTGx3ksEdgTH0g3ShvsuqfO12utqdSVkfGZe9nrdsODAxXudTYu/EAFYviuhbP48jcfsm0bI4KT2OA+3tLbPcCYBPOt0Zqv6HEWzT3HSKxG7gGMp62VrX4GMR7mPG/pURWvXOugZiNGd8nDVsKAggRJaloYl5A32+KpxPq8k17qc55jr/TG+uZDD5w6RWGKRqTIXS4hoh88LHcBiTHmL3YQOZZl56iCtd1br7rukztdqr2vXlZDxSM/sfDxlY3W5g6V9iFRDXRZYCvVtYN80Qm5EHk/sWdlueXrmZ1JxjqLrWm2uN8U3qq19BTIWTX181qdntLNrzXquz6hOebgyMD+4iNU4oYcJEH0hLt07qXgPpcYUDSlXVc5KKsIlzknwuYuAKH0tZxgGDMtBhAi7S73yznQvi7l+V2L16yned0mdL5AthBMNV1dCbk2yfYUvXLxkT975WK0cy9Zjfexl3zRCbkaIlbXD8hgDnJ/7sfBY+ohE67VaJfnGoXCW6ET/uGUyFK36WNOnneyaTs9QeJ4nhyWWroAUbnx2DcKV8dn9gbQBaQf5f20J2DKQUsrYleKYIGXsilPaEHLacqYcDodibV0hoeor6wxsCQjplhQWy5TmW9DR63ohAynK+bYoS+yKYt9pZGrvu6TOHWQL+ceuFFCuXbGupB/luUIuoGCn5HG8p/Mns1vHyVSaH4Vx3TeNXArnQzsCW7Xt6joRSLvlWh3Yp/kQ2MUxHNiKnNZXIHXcZizX97G2T2Wx/3V2rUnPUKjtN6BTnjq7KP1EWvOz64DSaNkCk15XGynrlMq0AeSayilrBmNBn1JvWR4c5+1VWFRRLnOX61VOasWA61yWukW5/r5L6izEJe01VF1JH+iEXJfArpvvZadcntmkwlTom0YugvOhBYF97hQp63LRsapfqwv2v3xvQT/XgD7cZCzr+ljbpxXrf51da9AzFGr7GZ7nSdsuxjyT9vz58we/f/8euxiE3D2cK4Sc4Hy4EckWU+sLm5bnrEh37nos/4D+V9vv18hlIYQQQggZhORzB7jvd+uQkWH5af1Pp5wQQgghfyXmeo/92IUgo/HT+n/0TyISQgghhBDyr2N4nien0+nY5SCEEEIIIeSf5ReA+w3Q/wHc9QEHQu4IzhVCTnA+kL8FjuXLUNuP4SuEEEIIIYSMDJ1yQgghhBBCRoZOOSGEEEIIISNDp5wQQgghhJCRoVNOCCGEkDsjwXZqwDAMGMYKYSEtxMqYYpuMVDRCBmJwpzzZTmEYBqal2ZNfz3+rsJCIaU1aXzldWXrnV1/pgr6inGpo6gxOSrjS5BmuGst1qTwh5I4pzeEzu1aiaMvOHZrcXhT0dMyDkKsRvsGZBJBSInYPeFXGXriaA8Eea/N0e/u1umINVm4u6qlem8k4NPVxrY/XRU/B5t3+wW9ApzzEyjDwjA1cUUpKtnjeLRFLmU04AX+eD/4QK8sB3BhSSsjAhj/PGqavnK4svfOrq/YKhuVgEqQy6S8ASnIiz09KBLaP+ZkFCfHhC9i2gP9xNvIwnfuwA0X/6xbJVeUJIfdLiNX8ADfO5nDsAs5z7QKSbKewFFsmZdGhQbjC/GDDLtjHbnkQck2S78Px3+bDBNFXnF7fTjFHAE/9u+k91mpbXaOPykK8KXqq12YyCk3+X62P10FPuIKh2rxgAse67YPZgE75DJ6U2K+t8yRzjf1+jXxNMBdLCBzwnQAIP+DDxiZfMWYvcEWEr/gCOV1Z+uZXSYhV5uwWDAZm8KSHWY3U7MkGDt9Fpzj8gC+WeHlZQvgfFYNC4PFYnRk8pZxXkSeE3C/JNw6Y4OFonB4wqb05xJsDuO91czzB9tWHvXnBY+88CLku5sPkuC4m3weIRyt1qJwJAq+0mnZeq+soroXWozhfm8k4aPtY4+N10JN8HwCxxCJPnD3B7jWO+nMfMeXxF6LM+KeN8ohy0x6qWqWvnELf/CrJHPynOu+7ugTYvvrA5KGwYIYfPsRyAdNcYCn8wqs7mAssRQTHqn+1cqk8IeSOMdfY2D7mxgohEmyncxzc9+Lud07yjQOA3XPd6/pnOJPSzmPXPAi5NrMXuHBgGQYsZ4LNGtg+O5gE9RtcR5rWagD+vClEIcSbE6XraP9akKFo0cdd9ZgPEyD6Qly4Id/cvQ134JSnTqlwX2ommomHyu2ZvnJN9M2vQkITmxY5Vnbdwm4ZK6/PACRbvPoCy4UJwMRiKRDtPpWndRPrvURgR3CsCqNyqTwh5O6ZednrdcOCAxfvdd5y/IUIwPL9FIYi/HkaR1m389g1D0KuTrpOpSEmHqz84dE6ndmqjh1u9g1OeiViF8UQhWNM8Ry+HWDPMX+HdPfHWumZeZm9y/22VxyawmGuzOhOebhqMvYJlNCyi+Wa6ZvfOeZ6f4xTLyOUGPbIeSs47MnnDpHyCsVcLCGiHT5L9mfmqUbl5FhfKk8IuXfSGMqPp2wOL3ewtA/XahjKAksBHL7Dhp3HrnkQMhB5HLBnZWM2PQs1qTjj0HWtNtcb2PBxPHo1804O++MrD3veIX38sbZ6cr8o/W0wiS4tbTdGdcrDlYH5wUWsxvdUvj4AJso7ir5yVfTNr5LZU3Fyt2H2ArcQXpLgcxcBUfrazjAMGJaDCBF2Za86r8P6XYmfv1SeEHLvJNtX+MLFS+ZN53O4co5bjzXxtd/4itTX+BacKHuLN90i7JIHIYMRYmXtsDyeicjPQ1l4LO1itl6rVZJvHApnrE70j00nQ9Grj/vq6RWSfBkjOeXpJ4kqG6Ts2IZvcKK8UfrKaeibX7UyvLgC/rzLJwZNrDfKbnn4BicSp9O/ygnh/J5kOy19tiyVebSuIE8IuXvONhOST+yifDMh++RbboSyMyRHZzqb78vFGp5U7UQMV2Rv8fZrzLR5EHIbwlX5LEO+gRTjK8rfAOnX6nB1mg/hqvi2J3xzTm+Wky2m6nmLz9114pbJFejqj51Q+7+9nvTDHZeHyHTE8zw5DIG0AYnST7ixlIF9dh2AhB2korErxfG6kG6cq+wppyvLJflJKQ+Hw3nVC/pKeclYukL9/6l8diBlYBf1V92T60BFmS+VJ2QoKucK6U1g621MwQ6UbFKliaiwTfV5kEvhfGhBYEsIV8bla+Xx2LBWF9bF8r0F/Vwb+3CTsaztY72Pp+1/VU/JTt7K3qntZ3ieJ237POaZtOPPnz/4/fv32MUg5O7hXCHkBOfDjUi2mFpf2Gg+S0wu467H8g/of7X9fo1cFkIIIYSQQUg+d4D7frcOGRmWn9b/dMoJIYQQ8ldirvfYj10IMho/rf9H/yQiIYQQQggh/zrGf/zXf8r/8z//e+xyEEIIIYQQ8s/yC8D9Buj/AO76gAMhdwTnCiEnOB/I3wLH8mWo7cfwFUIIIYQQQkaGTjkhhBBCCCEjQ6ecEEIIIYSQkaFTTgghhBBCyMjQKSeEEELInZFgOzVgGAYMY4WwkBZiZUyxTUYqGiEDMbhTnmynMAwD09Lsya/nv1VYSMS0Lk2jUyfXNz+t3HltFSNSZUyq0vN6NMkC4cqAcSxAta668oUrTXq46qSjsi/PO6nQppX91amcaX1r27+c33SLRJd+Vp5Uf2XdeuqqKmuxD1uWXdsuaN1/be5ran/d+KysS8t+Jz0o9Wd9O1f0ndLBRRtX0aeon/uEDEb4BmcSQEqJ2D3gVRl74WoOBHuszdPt3dbqXE/FuC7MKzr+90RTH9f6ho26iv2sSxuaAZ3yECvDwDM2cEUpKdniebdELGU24QT8eb4YhFhZDuDGkFJCBjb8ed4oGp06ub75aeXqEbkuGcMVPualkWMHMktPf3vFsjTJ1ueVl71qQIb48AVsW8D/qHAI575SpgB4PXcKj/kJgch507dBuIJhOZio9YxdwLEaJoumnI357bCMT/nFyx2e87x6l+eadetZ9vSmy/uv1X3N7a8dn9duG6IhxGp+gBur7fysXTwKdsebHfW8KTYusCtsTrjC/GDDPrO5hAxH8n04/tt8mCD6itPr2ynmCOCpfze9z1pdNa7DFQx1XgUTOFbzmk9uQJMfV+sbVqmawlJ0SXl6wNOl3YT/+K//lMMSS1dACjfW3OJKASHdWEoZ2BKwZVCSt4OCwLnOVnJ986uQyzgcDtpyxa6QEK6Mm3Q3ykoZ2JA4Cte061l9smvClXHsSlFOq6hTHYENKdxAukItR1bOpnLVla1tOWvbLpA26tq0S3mq76vqv7a6qspU7MOmsiu6L+2/Nve1aP+msa1rm+JcIRdx1keBtGv7V2d3ymqLNuck28KOk05wPjSQ2yOZjkvhxhXjvoZGe1c9rs/Hv25ekZxRxnJlH7exU7o+Hae/1fa7j5jy+AsRJngws6dj8QirdMvhW7/T1kmub36KXDsSfO4iiOUC3R+0esrOnmDDh7rRGX74qR5zgaXwC68BYS6wFBEcq+0rGgvrdxfCf62+P/nELhJYLipKPXuCjQPqulJbzjqSbxxg42lWl96/PIPqAprLnnGV/mtxX7f2L43PFm1Droi5xsb2MTdWCJFgO53j4L5rd3T8edPr2BBvTtHmJNtnOJPSriQht2D2AhcOLMOA5UywWQPbZweTwEPjcGxYq+vGtfkwAaIvxIWrEb6KF8g90Nkfy0i+cQCwe64I59Ol3Yg7cMoTbF99CPelZqKZeJj00Vsn1ze/JrkTkWNlHWrBqXBUTovjeQxnk2xnki1e/VyPicVSINp9KmELJtZ7icCO4Fgt46fMNTZ2BOe5LsxFN1FqDFxjOWuIvxA13dOhPKf2T3+WU9beo251tCn71fqv4b6W7a8fn/q2Iddl5mXhJoYFBy7eaz3ytO/l8bUviq/kjzG0c/h2cAqnS7Z4diYI6JGTUVDHrQcrd6St07mV6rC4hrVaN65nXjan8jXgFQeGbd0h7f2xM7J1d/l+Cv0T/jyNT9el3YjRnfJw1bSgJPjutclWLdc3v2a5E8U478nZ7mQxprz41N8k25Xkc4dILJH7TuZiCRHt8FnSOfPUBbs5z5kXwI6cUuxzjm7HWOCx/FqiQzn70b48hfbP4tb66roG1+6/uvva5qMfn/q2IdckjaH8eDqdQ7BaHkgy15vi27SZdxrvj6/ZRkHSfleSkKHJ44k9KxuX6bmYScU5Cv1a3TyucxuZ/jaYcD/h7ujij1WjbCCZCyyFGh2hSxueUZ3ycGVgfnAR79fH16XVr4+AScM7ijZyffOrkmvN7Al239dffWTDD/jHkIg0xABR+grQMAwYloMIEXY13q65focr2uQ5gxfYiJw3fBYUPGBSV+bwA37lbmr3cp6KcR6uU6xQn/LcQBfQXPYB+694X8/2V8dni7Yh1yPZvsIXLl4yzyLvz8b5AmSvaKsfIM3FEgIHfCcxviL1rZ4FJ8relFR8HYiQ4QixsnZYvufrbz52LTyWnvWb1+qO47qwnpJ74CJ/DACsx8zGdUy7FeMc9EyvFQ9U5JQOv1UeDqzSqZPrm59OLqXpoGeqLz840O2gZ1G2xUHP2JUCyrWS/Ok2cazj8QBNTZ4q6UHPin5ExcHPso5y2YqKG8upa7uq/NR6tStPm4Oe3XQ1H/RsKPsV+097X4f21+XV1DY82HZFynYxa+d0aMWFw9iBXeyTwFZsWuxKcTYeqw7S8aDnteF8aEdx3VFtayDtlmt12e6e0I3r1DfgmG/mNmO52R+r60+t71ThozX5UNdGbb8BnfJ0QKP0Ozkb52nHRssWmPS62iAanTq5vvk1yclqp7x8/+n26vS0/E2y1QOreH/F4ltpiNQHkbKe+gF47pQrbVfO56zt9Hq7l7OoM3UmlLTyxG0sTzunvIuuqnuq6lpX9uv2X/19/du/4sFD0zZ0Qq5LYNfYwZJTftYnFV9XaTt+6KBcD86HFihfYClcK4/5hrW6tVNe8AU43ttyk7Gs7WO9b3jW/6V+LgwNXdpAqO1n/Md//af8f//7/9ZtpJMG/vz5g9+/f49dDELuHs4VQk5wPtyIZIup9YWN5PmIobjrsfwD+l9tv18jl4UQQgghZBCSzx3gvt+tQ0aG5af1P51yQgghhPyVmOs99mMXgozGT+v/0T+JSAghhBBCyL+O8R//9Z/y//zP/x67HIQQQgghhPyz/PpfD//jfgP0fwB3fcCBkDuCc4WQE5wP5G+BY/ky1PZj+AohhBBCCCEjQ6ecEEIIIYSQkaFTTgghhBBCyMjQKSeEEEIIIWRk6JQTQggh5M5IsJ0aMAwDhrFCWEgLsTKm2CYjFY2QgRjcKU+2UxiGgWlp9uTX898qLCRiWpPWVy4nXBnn5ekrV1/pgj5jukUqlRqZyrY43lOjoy7v2rza6knLVFXnct2L94RYlfSefiuEBYNakXe4qu9HQkgzpTlUb5sq5qIy4bQ29ZhVB/tHyDUI3+BMAkgpEbsHvCpjL1zNgWCPtXm6vc04PsuialwX5hUd/3uivo/1Nu4Mne1sbVeHYUCnPHXanrGBK0pJyRbPuyViKbMJJ+DP8yfhECvLAdwYUkrIwIY/zyZGX7ljkVaYH2zYhfL0laur9gqGtcMyTssopUS83OG5S8eGKxiWg0lw0iFjF3Cs88Gjy6utHn1h8OEL2LaA/6EO8hk8RaeAgHssh3f8k7a2mreU2K/N9EFh7itpAfBaepgghGgIsZofTnMudgHnWetAFOail81QrU3Ns+pg/wi5Esn34fhv82GC6CtOr2+nmCOAp/7d9DbjuEzVuA5XMNR5FUzgWA16yG1o0ceVNu4Mne3sblevzYBOeeq07dfWeZK5xn6/Rv6Qay6WEDjgOwEQfsCHjU3+CDx7gSsifMUXyAEAEmxffdibFzyqZekrV0mI1dyHXXqCN9f71BltRZqfcOOi0THX2Ac2Iuft9BCizautnqYqfcAXS7y8LCH8jysaJ4HH49CYwVP6lRDSQPKNAyZ4OBrDB0z66NHZ1DSjDvaPkOthPkyAwzcSpA66eLRSx8yZICg7XI3juEz1uE6+D4BYYpErmj3B1uohN6NzH9egs53XsqsXcB8x5fEXoqwh0knxiLIrf6hq+Q5yyfYZzqT0dI3+cpUk3zjAxlObe2t1fGIXCSwXFS6qaiCa8mqrp4Hww4dYLmCaCyyFX3iF2BtzgaWI4Fh8NUhIL8w1NraP+TFUbI6D+w7ds78/b/FKXrGpQEf7R8g1mb3AhQPLMGA5E2zWwPbZwSQ4vYmtpTSOy9SNa/NhAkRfiAtX1U06cjdU9HErG6eznT3s6rW5A6c839F9qZloJh4qH1U6yNU9XV9VDtkgaSZyrELMkuWUpeqNydFAtMqrhR4dyRavfu7Ym1gsBaLdZ6cwk9MkUQ/rmFjvJQI7gmMxbo+QPsw8icD2MTcsOHDxXrtypPPtGOLmouaVfMmmdrV/hFwVddx6sHJH2jqdk6oOw2zwDXTjeuZlcypfs15xYNjWHVLu47Y2LkVnO9vb1WEY3SkPV00VT6CElvWQi9s/XV8k1x6Rx68rsVFFdLvYathHE5fpST53iJRXeeZiCRHt8NnBgS7GlBfbcuapE4iOOSHtSc/sfDydzpJYLR9uzfUGNnx8lFasok1NBrN/hHQmjyf2rGxcpmeRJhXxvnrfoHlc5+tS+ttg0manjdyUJv+vzsZl0hrb2d+uXotRnfJwZWB+cBGrcUKVr4+AibLl200O+IrUHVsLTpTtVk+3QE+5yj6aPWkGQkvMB0zqdrHDD/j57ndTXm311JLgcxcBUfr60DAMGJaDCBF2XbzyFpjr91IcPyFER7J9hS9cvGSeRT6HWs3N5BuH0kP5uU2Nu9s/QgYhxMraYfmej8187Fp4LO1nVfkGRTqO6+zM2UUhqeSqNPcxKm3cMUljOy+yq9fC8zw5LLF0BaRw47NrEK6Mz+4PpA1IO8j/a0vAlsFFcrry9JVLORwOxbtcIQEh1dtiV2Ry1TpiVxTqVKVDxq4UKMrq82qrJy2TXa5wYJ/LHnWW2id2pTi7t0ZvqYy6vMjfRXmukAso26lsXqfzLbOT2eQL7OLcCmzVhupsqkq17SL94XxoR2DXrVeBtFv5BtmYr1qMtOM69Q045pu5zViu72O9jSv1v852au3qcKjtN6BTng5olH7CjbOKn6cdGy1riPS60th95QpUTMK+crJ6MKaOq1K+0gLY5JRX17W6XPV5tdWTDfTSPUJZ1IuUHmLSQtQ65ZX9f5ZGh/xfgE7IdQnsqrklZdkpP7MBqo1osqlH6JRfG86HFgS2dk07jseGcdzaKS/4AhzvbbnJWNb1sc7GyfP+r7ed+rShUNvP8DxP2rbdf6v9H+fPnz/4/fv32MUg5O7hXCHkBOfDjUi2mFpf2EiejxiKux7LP6D/1fb7NXJZCCGEEEIGIfncAe773TpkZFh+Wv/TKSeEEELIX4m53mM/diHIaPy0/h/9k4iEEEIIIYT86xie58npdDp2OQghhBBCCPln+QXgfgP0fwB3fcCBkDuCc4WQE5wP5G+BY/ky1PZj+AohhBBCCCEjQ6ecEEIIIYSQkaFTTgghhBBCyMjQKSeEEEIIIWRk6JQTQggh5M5IsJ0aMAwDhrFCWEgLsTKm2CYjFY2QgRjcKU+2UxiGgWlp9uTX898qLCRiWpNWlCtNVI2criy95c5rqxiROmOSEq6q82rWcY08AISr+vZX8yklhKvytRAro1ye6nJdWud2cgam2+0VytSmjdSiFMeQMd0iUcpYOf6P99ToqBtztXm11VPXnk3t0tTXdf3BlXMQSuNT1846u6m1xYU86ASRGxK+wZkEkFIidg94VQZfuJoDwR5r83S7dhzXZbE6nztaH4OMSlPftPLVSnazoE+XNmjNFDzPk8MQSBuQwg2kKyCFG5+SYlcK4cr4+F8hAVsGBbksNbAlIGT630DailxgQ8IOSvnVyNWVpbdcyuFwUP4Xl+5L/38qo5qnkLYtKtLKOsr1bEpvkUfsSgHI0+ViuyqKlbbI5ZT/l9Gmd6lzud3S/5+J1V6/QpnatpGU5+0k0zGd1ue8v/J0qPoCWwKlumRlKMhq82qrp6nddH2l6iy3q0Zv7JbmCrmMtI/azU2N3dTZ4vJYC2zFTpNL4XzQE7uK/Qns478L1083a3yKGgJbQtjSLthnnY9B6rjNWG7j/9X7alrNmn6+xRhQ22/AnfIZPCmxX1vnSeYa+/0a+UOuuVhC4IDvBED4AR82Nvkj8OwFrojwFWc6FTnrUQCH73SXsEmurix95VphYrFUyqjmKZZ4eVlC+B+NT2CzJ/tcR1N6Yx4Cj8dqFdv1pNhDYEdw3lLp8M1BZG8KuxOt6VTnmna7NtdoI4RYzX3YpV0bc73HvnVDJdi++hBuDG+mXDbX2Ac2IuctK1tTXm31NNBxfJIRSL5xwAQPRyP6gEntzRq7qbHFyfcBEEss8sTZE+zcThMyMObD5DhOk+8DxKMFJFs8OxMEBQMHvU9RSWor7c0LHgvXNXOFjIyuby7w1ZItXn0B92XWLW0g7iOmPP5ClC0w6ULwiHLTHs5mV4g3J4JYLmCii1yRvnLtSPC5O5XxWPIPP71mLrAUfuG1XJWO7asPTB4qHML6dG0e5gJLEcGxml9Hz17c1DG7cHB2rXNVu12bq7RR8o0DbDxdMmeTT+wigeWioraqI9SUV1s9DXTrq5aYi8t1kBPmGhvbx/wYNjTHwX1v8cBctJtnKLbYfJgA0Rfiwg35hgUhAzN7gQsHlmHAcibYrIHts4NJ4KHR3CrjuIpk+wxnEqDs2xdpmCtkRK7XN7rNxos2IntyB055vrv3UjPRTDyoW0DHmJ85fDvQ7EaW5FrTV+5E5FhZGS04ZScpc27Ta+mOcLT7PHsSV3XsljFkyXpo0xvzMLHey3QX3GqIFc0Xf+uCwdmjzmftpsGf94j9ulYbxV+IWmR3qlv6s5yyVP0CcnSEWuXVQo+Oln2lo7o/uKxdm5knEdg+5oYFBy7edZOzld0s2eKZl+nP+/IVBzFQZQg5I7XBUkpI6cHKHWnrdGamOna4waeo223Pae1jkJtz9b4J8eEDduVOly5tOEZ3ysNV04KS4Pug/HfmZZNUIn581ThhJbnW9JU7Idz4WEYZTAq7rcnnDpHySthcLCGiHT6TGh01YQe69LZ5zLysHV1od4RnLy4E7Hoj1kDnOle0mw47kCc52WIXpUOZ2rZRE4W6SYnYLXs3usuDXx4AABMbSURBVF1sNYymicv0tG0XHX36g3QlPXT78ZSNp+UOlu7huoXdrLLF+fhPfxtM2jyBEnJtki2ed0vEnpXtlktIGWDiPJ+Neb1PkTTvtrf2McjNuXLfJNtX+MJFdeRKfdqQjOqUhysD84OLWI0Fq3xlCkwqtv/UuLEucgUdPeVaM3uCfdyhTMMyEKWv5AzDgGE5iBBhV+f1zF7g6kIIztK752Gu35U4+mvTo85Aqd3GL1NtG82eYMPHxyWWwXzApK6u4Qf8fPe7Ka+2emrp2Vfk5pQXjHx8tumnqnjbKlt8Rnb+5sYbR+SfJ8TK2mH5no/NfHPBwmNpb6N5HMf4itS3eRacKHuTWf6KFdrEppOxuLxv0hAYe1N9Vqw+bVhGcsrTT6dVTp6y4xG+wYmyhSDZYqp85yj53J3ixnRyOvrKtSX8gJ8bkfANTiTgxvJs17T+EJ6J9UZ3SK+U3iKPZDstvvbLZNrvxnagV51RbLcRytS+jWZ4cQX8eXGX8kxeS7UOJFtM5+pr2Ka82urp3y59SbbTC6RJmbPNhOQTuyjfTCh9zlRnN3W2uEB6yLhxDBFyZcJV+bxEvvEQ4ytqN45Pn/JNDwSe7FsMV2RvMvdrmNq5Qkblgr45/5RztrFRs8mgSxucoT+JiNJPuPHxs21nP/UzXcfr6me+sk/lVabp5DRluUROVn8SsXz/6atOdZ/WSfNJk6o+odc+vUsete1YJnalaPMptIrPsvUrT7HdqtOFdONqubPPb16lTPo2Sj/Bpdx//HRTy08ipgWrqGOXvNrqqW5PUfn5znK7HAtR+0nE6v6I+Qm4KxPYdeO++pOileNBZ4sLdrH7Z8aIHs6HFgS21r6VPwVb51PU2/yaz/G2XRuJlPJWY1nXN3pf7bz/S5/CLqBLGwa1/QzP86Rt2x3ceKLy588f/P79e+xiEHL3cK4QcoLz4UYkW0ytL2x4vmUw7nos/4D+V9vv18hlIYQQQggZhORzB7jvd+uQkWH5af1Pp5wQQgghfyXmeo/92IUgo/HT+n/0TyISQgghhBDyr2N4nienU34ZgRBCCCGEkLH4BeB+A/R/AHd9wIGQO4JzhZATnA/kb4Fj+TLU9mP4CiGEEEIIISNDp5wQQgghhJCRoVNOCCGEEELIyNApJ4QQQgghZGTolBNCCCHkzkiwnRowDAOGsUJYSAuxMqbYJiMVjZCBGNwpT7ZTGIaBaWH2qJMt+61CVQhTJW0VttHZXi79KRNaI1eUKRsGlRAro1SnglxFnWv0hauq8jfpb5IH1HY/TwMQrlJ90y2S4yW1b6rqcOqHPN9yvyTbaaajZR1K/VHZ1xX17deudfXqquNcn+6eLnoay9WivS5vI3J35PO1xRwp2rFS/2r0aOUIGZLwDc4kgJQSsXvAqzIuw9UcCPZYm6fb+4zVqjWLY/5+qe2bkg1rWuea+rjWV7wBAzrlqQP2jA1cUX2HHUhImf282UnOcgA3Tq8HNvx53ig6nTq5tJGt3RJxnp/MJ7Q+vzdFJrB9zGtn6Axerjt2ISDgxnle3vFPvIo8n1p9IT58AdsW8D/Czvrr5U8IIeC/nhzvo+SHD9u2a+p3otBvUmKvWEYhBCLnrebhpUUdwhUMy8FEzSN2AcfSOh1qu8buAfOKnZXGdundN13ppkdbrg7tdY02IvdCiNX8cJo/sQs4z9WLR7LFs2LHYlfAn+d9r9GjlSNkWJLvw/Hf5sME0VecXt9OMUcAT/276X3GarjC/GDDVn0Jjvn7Rdc3M6/gk6RrJQD7CbMueqDzFW/DgE556oDt11Y3sfADPmxs8laYvcAVEdL5qNGplQvx5gDu+xpnbduU3/4kYz0K4PB95sz2ZfZkn+sLP+CLJV5elhD+R3dj0EJ+stnAjnb4LLy82OLVt/H01DXDEssNXKF7eNGRYPvqQ7hx0eCaa+wDW+PsFzHXG9jwUfArO7brIH1zBT3FcvVvr2u0ERmR5BsHTPCQGyfzAZO6e8019oodMxdLCBzwnTTo0ckRMjDmw+Ro65LvA8SjlTpUzgSBV3K1Oo/V1Hbamxc8XqSH3IwufZNs8eoLuC9nLnmDHo2veCNGjSn35+evB5LvAyAeUXa7Dw2zQiuXfOMAYPd8Hi7TPr8Qb04EsVxcqbNSo4DJQ0Ff+OGneZgLLIVfeGXXhnbyMzzZEXaKV5587hBVPVV2xsL63YXwX7u/8kk+sYsElouKFp49wW5rHJNvHCDwqHRqt3Ydpm8u11Mq1yXtdXEbkVEx19jYfva2I8F2OsfBfW+3oxN/Icod8S56VDlChmb2AhcOLMOA5UywWQPbZweTwGtepxrGarJ9hjMp7bb30ENGRNM34ZuDyN50t4caX/FWjOSUm1jvpfIqHXCsuldEJh5qt4D0eRzl4i9EAJbvSuiEP6+JFSvld4xVmsO3g0KoRh8ix8r0WdgtYyVsB8enu9TJMrFYCkS7z/Y78x3kZ0/qTmr2dFj1VFnB6WGqJmbLXGNjR3Cez0NkmtEZwPwNhp7wzUEkljj6qi3bZdC+uUCPtlw926tvG5H7YeZl4UyGBQcu3lvZpvztysvRsWmn51yOkGFR/QQPVu5IW6czNNUhjQ1jtW63vaseMiK6vgnx4QP2U5teK+np5CsOw118faXyVfqRBEpoWQfKcuor2gWWom73vSSnxCrFj68Nhz2bEUrsejm8IPncFRwlc7GEKIeZaOgkP3s6tXkWtlC14VpFMaa8etdi5gWwIwfPnXdbdbvhxZ1dlZPjamB+cBErr6fatsuQfXOJHl25urTXNdqI3Avp+ZqPp8w2LXewWhxICldlx7udnnM5Qm5IHgfsWdluuYSUASYV5yj0YzVpvdvOMX+/6Pom2b7CFy7a7DFW62nrKw7DXTjl6qt082ECRF8ob/BNGt4faeWsx9rYoy75XTW+bPYCtxAikOBzFwFR+rrOMAwYloMIxTCTerrKz/Dipgf6jmELV6iWqt/LnMjPtiLmAyZ1u7vhB3zNrrB6iFHu1XiwHu169b65oCy6cnVsr6u2ERmV8sJjrt/hCn1/hauKh7EWeqrkCLkdIVbWDstjnG++2WDhsfTBh+axGuMrUt/2WnCibMOi9NUxjvn7RN83aZixvWnut0o9Gl/xVozilIer4k5M4VW6uoObJsKJbDS+idDJmQss1YUmfIOTx+Lq5JItpsp7i+Rzd8X4MhPrjbLzmZXp9DWS08ngVgcce8ibiyWEP8fcVw66XpPMiXScqK1A+qAwL+3UJVtM5z1fI/Zq1yv3zUVl0ZTrWu11rfqRm3G2mZB8YhflmwnZpzRLnzKtWsja6KFzQsYkXJXPOeQbETG+onw91o/V06d9lS+ASQkpY7gi27DYr2FyzN8xzX2TbF/h49xfrPq0c6Uena94KzzPk8MQSBuQKP2EG0sZ2MXrwpWxKhq7UhzThXTjFjq1cuU0SDtok18sXaHmVdIppTwcDudVj10pzu5NdYnCxbQ+diBlYEOiUKjze3T628mnZTjdltVPlQvsQn8U9Zbbo9j+gV2unzy1bblslW2klAH6di/eXpFvZfkLKWftcpW+kSd95TqIclu31FNXLqWSje11eRtdTuVcIb0J7Bo7WJ7XZ+Mj+2XptXoa5MhlcD60oLQeHa91HKv1Nq5kYznme3GTsdzYN+l6VbXOFfq/SY/OVxwItf0Mz/Nkm29Tk2r+/PmD379/j10MQu4ezhVCTnA+3Ihki6n1hU3N+SdyOXc9ln9A/6vt92vkshBCCCGEDELyuQPc97t1yMiw/LT+p1NOCCGEkL8Sc73HfuxCkNH4af1/H19fIYQQQggh5B/G8DxPTqfTsctBCCGEEELIP8svAPcboP8DuOsDDoTcEZwrhJzgfCB/CxzLl6G2H8NXCCGEEEIIGRk65YQQQgghhIwMnXJCCCGEEEJGhk45IYQQQgghI0OnnBBCCCF3RoLt1IBhGDCMFcJCWoiVMcU2GalohAzE4E55sp3CMAxMC7NHnWzZbxWqQpgqacWkaUFOTdPJncsqE7p1fmXDUFvpgj5jukVSV++Czqr0vO1OaeV6AQDCVSkvNamFXE2b6cpVvFdX9lMZpiUrmmynWd+HWBnn8lXtXl+ftAx11+vK1q4NCLkzSuO2PLfKVNviYloX20jIoIRvcCYBpJSI3QNelXEbruZAsMfaPN2u9Q1KaNf1jvOK3I6mPtbZuCOl/i2Pgy7jaAgGdMpTJ+sZG7ii+g47kJAy+3mzk5zlAG6cXg9s+PNskUi2eN4tEWcysSvgz/MJpZFD2tCWIitlPqF1ciHeFJnA9jFv6qFwBcPaYRmf6hYvd3hWBonI86rRWWgXKbFXLI8QAv5rheP94cO27cp++PAFbFvA/zgbwZjOfSW/AKjQXVXutJ3OB39T2SPnrebBZgYvl4tdCAi4xzb0lD+Rq6lPA5Vl69gGhNwHIVbzw2mOxC7gPNfsHOptcT/bSMiwJN+H47/Nhwmirzi9vp1ijgCe+nfTtb5BGd263mVekZvS5P81+JtHZl7BD0jHAAD7CbNO42gYBnTKUydrv7a6iYUf8GFjkztzsxe4IsJXDMBcY79fI3fzzMUSAgd8Jw1yCPHmAO77SbZVfpjBU/KzHgVw+NY4bCFWcx926QneXO8LzqnK7Mlu0FlkstnAjnb4LLx42OLVt/H0VFWkD/hiiZeXJYT/UTG4BB6PXVSsr5aZBxnYGie7guUGrmjxYKOjsT596NkGhIxF8o0DJng4GsMHTGpv1tnivraRkGExHybHtTH5PkA8Wqlj5kwQFDxy6H2DMzTreqd5RW6Kto97+ptA5j8JuC+zjuNoGEaNKffn569Lk+8DIB5RbtpDVavEX4iyCaSVS75xALB7Pg+XaZ9fiDcnglgu6h225BsH2Hia1d1wJoDtqw9MHjo4gTM82RF2ileefO4Q2U+oyjb88NMymwsshV94BQhzgaWI4Fg9d79mT7Dho/2GtYX1uwvhv/beedDWpw+XtgEhY2CusbF9zI0VQiTYTuc4uO+oefav5yq2kZABmL3AhQPLMGA5E2zWwPbZwSTwKte6AopvoKe0rl9rXpHhad3HesI3B5G9qe7jK+XRhZGcchPrvRLe4QKOVfeKwMRD5aNq6tAK96Vmgipy8RciAMt3JTzCn9fECpXyO8YfzeHbQe2Ot5pPE5FjZTot7JaxErqTcnpYqY5jnz2pO9TZTtdLRStkT4DLhQnAxGIpEO0+lV35tB8CO4JjlWJJe9JU9tToRXCee4SINNanT9mu3waE3IKZl716Nyw4cPHex3O4xDYSMiiqn+DB2j7DmQTwrNM5h+rY4SbfANp1/SrzigxMiz5uRYgPH7Ard1KvlUc37uLrK+Z6o9lxTaCElh0JV00TpiynvpJaYCnqdnxKckr8Ufz42v6wpwahxGhWhX8UY58rdgXUHeosnGNR0QzJ5w6RkmYulhDl0BekRuj0cHSZU9pYdgAzL4AdOYU4+za0rU+fsl2zDQgZnjSG8uPpdG7F6v1A2dM2EnIr8lhfz8p2y9PzP5OKeO9m3wCadf2a84oMRas+bkGyfYUvXFTtaV4rj67chVOevkJN43rNhwkQfaEctjhR3h+EKwPzg4tYjf3RyVmPtXFBbfI73tsUX9Q1nGP2ArdXCMYML2560PEYznF2T4LPXQRE6es/wzBgWA4iFENfVMz1e7eY0SzmtH24zqn8XvZA8tlapnt9+tC5DQgZgfJiko/bznPhSraRkOEIsbJ2WB7PPeRngCw8lg71VfkGTajr+tXmFRmMPn1cowlvTgR7c67nenl0ZxSnPFwVnzzDN+e0A1p2bMM3OFHu+KWftqtsLJ1cFjd8nFjhG5woC4PQySVbTJX3uMnnriG+KHOWS18oSLbTmtdsJtabjoclc8nFEsKfY+4rB7FUsjq6cfGUceyevoByVq5M5rHNWYnsqyW9X+1kDySO0ybgp119+nBRGxAyEmcOc/KJXZQ7zNknQNscqO5rGwm5EeGqHNedb5rE+Iry9VjjGyD7jG4+HzTrun5ekXHR97GOQv/n2ravFZuK/fO4Gp7nyWEIpA1IlH7CjaUM7OJ14cpYFY1dKY7pQrp5Ylku/9mBXu4sDTIX0cvF0hVqXiWdUsrD4XBW89gVNfVL9YmCkrSd0vKU81PaLEs7lTu7V61IYB/zCuxSWqv8zutX3Q5V9+rKnpZHlJXn7V4uZ+xKUdLfrz55OZvbtbkNyKVUzRXSn8CunmvntkFji6XsaRvJpXA+tEBZ0wrXymO4wTcorh96m18/r0gdNxnL2j7W27hz/yG9/6xvm3zMgVDbz/A8T1Z/35q04c+fP/j9+/fYxSDk7uFcIeQE58ONSLaYWl/Y1JxxIpdz12P5B/S/2n6/Ri4LIYQQQsggJJ87wH2/W4eMDMtP63865YQQQgj5KzHXe+zHLgQZjZ/W//fx9RVCCCGEEEL+YQzP8+R0Oh27HIQQQgghhPyz/AJwvwH6P4C7PuBAyB3BuULICc4H8rfAsXwZavv9f41S6wrhUNePAAAAAElFTkSuQmCC;" vertex="1" parent="1">
          <mxGeometry x="21.86" y="510" width="388.14" height="220" as="geometry" />
        </mxCell>
        <mxCell id="ZwVfSL07MJ75u5k9PvvK-4" value="Top 20 de recomendaciones automáticas" style="rounded=1;whiteSpace=wrap;html=1;" vertex="1" parent="1">
          <mxGeometry x="60" y="438" width="240" height="60" as="geometry" />
        </mxCell>
        <mxCell id="ZwVfSL07MJ75u5k9PvvK-5" value="Top 20 de recomendaciones priorizando productos canasta básica" style="rounded=1;whiteSpace=wrap;html=1;" vertex="1" parent="1">
          <mxGeometry x="522" y="438" width="240" height="60" as="geometry" />
        </mxCell>
        <mxCell id="ZwVfSL07MJ75u5k9PvvK-19" value="" style="shape=image;verticalLabelPosition=bottom;labelBackgroundColor=default;verticalAlign=top;aspect=fixed;imageAspect=0;image=data:image/png,iVBORw0KGgoAAAANSUhEUgAAAw8AAAGpCAYAAADLBgoMAAAgAElEQVR4nOydO3arStOGX/51hgIOvDWC1ggkJztS6gxCkThT6MwJCkXmVJETwwjECNgODPE3jf4DQGruF92Q9D5raZ2zge6uLrqqq29Y+9///idBeuN5Hubz+bXFuFmoP0KuC22QkNNCmxo3fD/HoepP22w2HDwQQgghhBBCWtGklBw8DODfv3/48+fPtcW4Wag/Qq4LbZCQ00KbGjd8P8eh6u//riwLIYQQQggh5Ebg4IEQQgghhBDSCQ4eCCGEEEIIIZ3g4IEQQgghhBDSCQ4exoZvQZuuER+VhQbN8k8m0lU4gR5OzV3olZAHgLZ6g4zQ5w+BbY88Ahw8EEIIGQXxenqWwMu3tJMGpueSkxzHqd/zKWDbI/fIf9cWgBBCCDkns40Ev0l+/4zxPY9RJkKOhSsPpyJeY6pp0NLfYWIgxnp6uK5pFvzadFOsf09RZvfn4vVUkW2K9X56pEXuU9Oqh2Z5auvRVUe1sty4Xgk5F3Xtv8UXWr4Pq2QbyT3DDgB3Dk3TMF13mKvtaKvlrSRNdjhUzoE+qhYfljbFem0V8uvTp3Tti2Ksp1OsY7XOFvxcmqLMQ3VYJWeFz296tzX3TveeTwfbXpc6X7jtHcUAeWv1UqNn31Lqlv4ODvbqbRoAIMkgwjBU/uVJE5DCiQ7/Fo6MZCQdAQnT2z8ZOUICpkyuJPdz6QAJ4chItlFXppSeqZZ5uL4vP/t35Eixl6WQu1khdye5upHXX7seGuWprUe9juq5bb0S0pW8Dfalzk4a7CLzhxAyS1ZpD2aV5fSRoZxv279PIecwH9VePxTSNct+XF9U/jdklqToq47TYZvPb2pHXd971zrXv+e+hGHItjfitnecz9uX1lPe9rac17MnTUX24vs+tv0cg6o/Dh4GkmuEnlkyMilljdEqDaPqvmd2CybrypQtjUUtM3KkUBp8/plD4yvJfQJy+mvTQ5s8dfVo0FEtN65XQrpyVEfa1bZytp10bGY+Gsn5u16Dhx62mvt3qx0OkHOoj2quoDSLadrKGdoXVdS5VEc172N12LfvU5/v+t4H1Llz/1tD6+CBba9Tnc/V9k45eOgsbym5qo86PStp+8RCZ2jTKqr+uG3pVIhnGMVr0Q+C0oMGnkWAn6ju/pFlVpBbsjTsQ5n6ErvIQTjXKrYJBLANdWlsDvcYWZvopIcGeZrq0VFHOe5Fr4Sckxo7qbWLC8rQzjnscKCPOrXsQ/qic8jRRAef39iOurz3s9T5FLDtXbXtXYFePlF/wgQhftPX5H+5wOQJ+v6BcdSdg4dTEfygZAfGM0TpwQg/gcCzUXf/yDKL+BYMewIvWWWCjJx8mfoSOykhpYeJbSh78cxDmv1vh6VeLuJoOumhRZ66enTRUZF70Ssh56TKTtrs4hIydOIcdjjQR526nCF90TnkaKLN57e1oy7v/Sx1PgVse1dte5emr0+MfxEqA4S5a8LbzJQHxlF3Dh5OwewvTLh434/ofVjTNWL9BQvhYq5Yarx+hysWeNGRjjCVdPEa03nHMWRdmS3J/I+6Ua+B56xFp3K/n+WUTQVteuglj1KPITq6J70Sci462km9XTQQ/nb7rOVAWz2ZHapyDvVRfWkrZ2hfdGo5WtP36/ty7ajrez91nU8B2x6AK7e9K9PqE6MfBKanDAw22A8dRlR3Dh5OwgybyAFsI11Gesfz5xI6dCx3Hsz0ywiapsHYLhDtlukSVCGd8YNV55m6ujKLj23gmS7mafnvzw7M7F7uRL8Be+IhGeDqWO4iLLaGcl874/ez2/TQIk9tPTrqqEmWm9YrIeeixk6a7KID+ssCIrBhdNpeMcS+gVPYYVnOoT6qL22yD+2LTi1HGy0+v7EddX3vp67zKWDbu37buzB9feJsAw/zmrqNp+6alJKfIB7Av3//8OfPn2uLcbNQf4RcF9ogIaeFNjVubuH9xOtpaXDlWxrenyPsrrwvS9UfVx4IIYQQQgi5MtFPUDggHeM3vKJANXDwMFrUP/JR/h33xYRHhnol5Da4d1u99/qR8cK2N1ZmmwhOqG5bMrBdXH/VoQi3LQ3kFpa/xgz1R8h1oQ0SclpoU+OG7+c4VP1pYRhy8EAIIYQQQghphSsPA+EI9jioP0KuC22QkNNCmxo3fD/HwQPThBBCCCGEkN5w8EAIIYQQQgjpBAcPhBBCCCGEkE5w8EAIIYQQQgjpBAcPhBBCCCF3RYz1NPtbARb83D0fljYF/5wDGQoHDw3E6+nV/mBKXdnZ9exn+bmbmNbcG5ouw7cq/nhM5/KKjqu20rn8tOkaSWmqEyz+IZuqe2p5TWnL9SvXPUlfd702X9+q13dFuW26apPvuDy61qtOF+3p82mO1111XdJ8Cwl8K7tWI79vKW2tpq0jbdPFxMU2yz+wRArU9iMd/C6Akj2U7Dx3vxwQ5n0xA8aHwf+APfEgpUTkhHhXXrxvzQFvB/XvjvXts6vbdYVvb+4w7pLaeKvNlssZ1fiI6+uZg4dKkr+++IoVHDGisuM1XrcLRFKmDkHAnWeNzodl2IATQUoJ6Zlw52lHMTTdXiQL89CEmZOnKZ2PD6U8z3Qxb2vYvgXN2GIRJWmklIgWW7wqgpje4Z6UMvcXF0UmR015TWkBH1+ugGkKuF/9DLAy33iN6dxV7nnA+yE4LaLKHjkh5hWzRG3ytdW/bx2b9dWOKk/SNsrB03Dd1dVFx3JlAu77of3Ga7y7As7brJ/8QiCwP5o7UN+CZtiYqPWIHMA2OIAgaO5HOvjdjNkmZyeJjQMw/2LmW9DmIZzMb3oT2MbBf8TrKQzFF0uZDxjJ/RL/hvv/158mCH6i5Pp6ijk8bHIusU+f3R4f5Xz7pp/vvXma4q0mWy5l1O4jrqlnDh4qmWEjJXZLY1xl60vsdktkvl9/WUAgxG8MwP+CCxOrrGeYvcERAX6iI9IBAGKs312Yqzc8q7I0pptho5RnPAsg/K0NngEf1tyFWZgJ0Ze7QX+SffbXbCmvWPwXXLHA29sCwv3qtkrSisDz/hXm9dGEvlzBhItcTNxTvsr6n6WOHZltID2zPRjf06K7prrMNvDMAPZHOjT+sBGYq/4B02IFRzR1oIldCCfKd8L6ErtedSX3S4Mvb/W7DSgD4vg3BMQCL1n7nv2Fmfl2+PiwAeezm+8h94X+NNn3A/FvCPFsJIGtPYFXCjT79NnXjI9ugKZ4q0jT5NYxPuICcPBwy0Q/CDDBk57OMohnFM05rGqxPdLF61fYk+IsRZ/yfHzYAcTipb4Di38RwsTfkwyck6AOk6fOHab/5Sby6S9YCDe3vDsI/QULEcA2BmwRiH8R5oLnvvJV1//kdezL7G95UFRFB9211WX25iSDioGrDgkGlp8OhLqKoRJ/YxsILF4qWlkugCOkTC9/XUAdEOtPEyD4QT6eSAOM+BchgO3rY28heVhmb3Bgw9A0GPYEqyWwfrUx8TYVs9wqHfrsFtw5t8ntUeKtIk2TW118xDX1zMHDzZLNfL7VOAIdT5Mj09XOUnQob7+3bw7X9JpXEKIfBB1KOBhKeY9gYBvpdQPbRVRawqtNmwaYSRCo42UhEGy/O69aVOerY7mTyQy40c+w/Q8bgTqT2FG+xvoPqGOTrk/FIN11qYu+xMp0MTcGrjrk8glgv9ZtOavuEBLGM0NEboE6f13Ex5cLmNlMy2yTbDHZ29E7wmwrSepXF5+HLXXCnbecWSL3Q+JLk20tGxjZRKBx2Eef217Zp8/uVKZEsovzPP3HbdAUbxVsuRXVR1xfzxw83Ci+ZcCGg89aA4+hbHkckC7qOEtRU56yty96fj9JAJrfI5+XSyj7Aqu2jNSljb+3uWBdf1lABFt8dwz2m2SabVTDrh9AHAJ/DfPQQaQseXaVr6n+Q+rYVK9TMUR3Xesye3MgYHYc+NYz23gwAzt39uZA0+pCfvWIkGaq/XXpqfU7XOFAXUzLbCX5rTDJzcQoA1z9BQvRbXWD3BnZPvyNkfbryXmyif166JfO0GdXbsN9IJrirSpbbqbeR1xDzxw83CC+VQ4yq5evgYkyNdovHfATqLPDBuwgDXSna6BDeRmNe/6A7ltaujB7g9N5W06M720ABMnSrqZp0AwbAQJsu44eOqAvPxv3KuYOF+f29w+Qr1T/y9SxlXT/Zt+taXndnaYuxeApbozaZtikA7LvnGBPmNStLvhfcBtXJcij08Vfl0m2k5irhjMMqp0Zz81+lzwIPixji8X+7Es2sWHguebAc2uf3ZWKbbiPQlW8pdxtteVePuIKeubg4aZIPs9V2SCLAbj/ATvIgrUh6ZJDUYcZrQiOSAPd3RJ6U3nxGlNlbTz+3tbu+UuFwJsjSl8SiNfTAV+tSb640+nAqv8BOxCHL5UoX0c45sBrSe60nN6GPUi+Qv3PVMdepF9Qqt8qpz7aoLuj65Juc8o92yEgSwdktq1O6Va32T51JQ9MB39dPJ8Qr99bBuDJhyf2bS89P7QfWKf2U3lOh9wtvjVH6Hwq2zezSY8IP0HaL7f02YfPXbeVlfeHpW24D0FDvJU9UWPLOT03+IhR6FmSCjxpAhKFn3Ci/RNhGF6+bM8sXQcgYXpJ0siRYn9dyL24Q9PliKQj8jqoT5c8i4Y8q/QXOSIvn3BkVJmf+j4q5Ep1mFSvPq1nKjqoeAf16YV0onaZmuq/L8ksyp6/11W+uvp3y0OlT72q6jb0mXbd9apL5EgBU1Y9XWxnRf1XvpOsrRfLL9lW/bseG+fzYSShpR9p85+5tpbkVdsua9py8X6l+ZCTMTqb8kylH1WuldpLc5+V9709YpRi2VfmIu+nLd6qs2VZ0cd1jekupGdVf5qUUnYZZJA8//79w58/f64txs1C/RFyXWiDhJyWu7SpeI2p8YPVmc6+XZJRv58b0LOqv/+uLAshhBBCCBkh8fcWcD5HG9DeC7emZw4eCCGEEEJICX25w+7aQjwAt6ZnHpgmhBBCCCGEdEILw5BnHgghhBBCCCGt8MD0QEZ98OYGoP4IuS60QUJOC21q3PD9HIeqP25bIoQQQgghhHSCgwdCCCGEEEJIJzh4IIQQQgghhHSCgwdCCCGEEEJIJzh4IIQQQgi5K2Kspxo0TYOmWfBz93xY2hTr+EqikZuHg4ca4vU0NbrkZ/ntac5R/jRn3aozSH+qYPEa0xqZG+tTm+5M5VXgW4Vycs6uQo6SMyzLk9efD0sr5qHmVVVGQf/F/KdrxE3lK/d9q6C7Vnnzeilej9fTcn61usz031THw73KbH2rUKdmfXWVu6iXvvXNnr+0fRLSlWpfjkb/mSOzvUq/pT5Wtp1r92PkivgfsCcepJSInBDvSrvwrTng7bDUD4/n20pF/1qgtl3vy6j25Y9AF1121U+dnvu+r1PDwUMV8Rqv2wUiKVPDE3Dnl3o5SZD7ihUcUf2E6SVySSkhN7NDOsMGnCi57plw5+nMQmN9GtKdpbx6RJZX6uzmBYNQ73umi7naE/oWNMPGRJU1cgDbSI1uho1yXUDAibJnN/s/CZ+rq5TYZd7Vt6AZWyyiw71oscVrpqi2+6XX3CavUm8hENgfvdqfqispJTbK37yvrWNalvteGBQB8L9cmKZZKqctr75y90vn48sVME0B94tRERkbTb683e/umW1yNpb4PwDm373fgm9hHpow1XKu2o+RaxP/hvv/158mCH6i5Pp6ijm8XJ8A+PhQ2kqpf0X+2bYYpbI9PgwddNlJP83+o/v7Og8cPFShL7HbLZGFQfrLAgIhfi8ygE6C3N3S6JfM/4ILE6sseJu9wREBfiI016cp3TnK64i+XMGEi7qYcPbXBMLfwyz4uwvhRHmHqC+x88xBAWweH9bchVmYqdGXuzRYbrtfpKe8ixUccRnnMFmtYAZbfOcWvNZ4d038/dszs6Fyd03nf8EVC7y9LSDcLwZFZGQ0+PKhfhdI7VHAecucR+JPzNUbntXnrtqPkWujP032fWT8G0I8G8mA0p7Ay48cAMywUdqK8SyU/rVIW4xS0x4fhjZddtVPk577vK/zwMFDF6IfBJjgqSoOvALuPFuqOsxUxb8hIJ5RbGZhVU+h1KdLulOW15n4FyEEniv9U2J8mDwlxhN/YxsILF4qCpj9hXlshxn/IoSJv0V/2/V+6fm+8hpYfjoQ7vsF9qjO8NcMsFVGD/H3FoE6y9mZoXJ3S+d/uRCLF+j6CxbCzS3LEzJmevnPAv6HjcBc7Scq4vUr7ElxJrmCkfVj5MzM3uDAhqFpMOwJVktg/Wpj4m1afLmPDztIfOuAYju3x4egrMvT6+e49zUUDh5ayWaJ3wYET6dGx3KnbItxANuoW4bW8TSput5WHzXdJcqrxv+wEYgF1Pg6sI10EGNgu4iULVQAGjvFjjN6UAdKyj7C6AdBU6K2+5X0lFdfYmUGsF/LW4oqc9jrqrwfsrKOCrO/6uqHjw8byixnnra8+srdOV06+5oMwHS8LASC7fdFZ14IOR11/rOIjy8XMLOZitqZ5CJj6sfIZVD77w2MLGg1Dmdtcltk92dr5nBNr2bVvIXO7fHOqdPlKfVzivd1BBw8tOBbBmw4+Lzwi+lC89aeGMqWxz3t9alOd77yDqgB7zx0ECnLcoCyj79yK1LT6kLdCkaZ/B7+thmaY+gv72zjwQzs+nMUag65Mw/5erTWcfb38J7TrUFViySd8uopd9d08fc2N7jUXxYQxe1WhNwM9X4399T6Ha5wkIzl444zyePux8gFyM6/bIy0zUhI6WFivx5Wd5WzNdHz+4BDuN3b491TqcsT6+fo93UcHDw04FvVQexoULb26E8TIPhBccJ6okxvV9WnS7pTltdELuBtSjN7g6NuU9GfMKlbXfC/4B67VK8G00PuFxks7wybdOD03bGoYczw5iSHkPdbg47Mb5jcdelifG8DIEiW5DVNg2bYCJDfbkXIWOnld/ck2xPMVeYbI/wE6uqfATtIJ2EKX3obdT9GzowPy9hi8Zm9/2xyysBzzYHdYedjurXHR+Ogy/Pp5xrnmTh4qCT5DOXYHK5v5b/GkdvaUwxg/Q/YQbYPv6E+DenOUt5J0LFcqasPabBb/FpJvMZ0foql+ur84/V0/yWn5vvd8uskbzpwsu3+G6X6oL8sINw55q5yqPMYhspdlc7/gB2oX8s6fE3m+MPxhFyADv6z+GnieP0ON3e2SvmCnJSQMoIj0kmY3RL6SPsxcll8a47Q+VQ+5pFNXEX4CdKJqniNqdLe4u9t7nxM5afGS7S1xwehVpft+umm56YyzlCfOiQp45kSQPlnevtHwjA8V+HSrChbOFFZLuHISE0aOVLs7wvpZDfb6tM13anKk2X9eWZax0oi6Yji/URPSpYV5SoyleQu3kvKqNT7Pplo1EfTfc/M17+rvJV6yfRezK8pTWsdk3uHLNNn1TI8U6lTs766yl3US5d0lbpM7pTbBKnlfD6MJDT4cinr/WeV7aV51fvIQ7r9Mx38MDkto7OpnM9WrpX6t6I/z/dFeZ/b0q73VPXb1+Uy76dZl8XnVP1013PXMk6Lqj9NSimHDDoenX///uHPnz/XFuNmof4IuS60QUJOy13aVLzG1PjB6qxnAC/DqN/PDehZ1d9/V5aFEEIIIYSMkPh7Czifow1o74Vb0zMHD4QQQgghpIS+3GF3bSEegFvTMw9ME0IIIYQQQjqhhWHIMw+EEEIIIYSQVnhgeiCjPnhzA1B/hFwX2iAhp4U2NW74fo5D1R+3LRFCCCGEEEI6wcEDIYQQQgghpBMcPBBCCCGEEEI6wcEDIYQQQgghpBMcPBBCCCGE3BUx1lMNmqZB0yz4uXs+LG2KdXwl0cjNw8FDDfF6mhpdleFdrvxpwbrzcmmw/NxNTGvuDU2X4VtaWZ6h5dVXOpefNl2j6NsyOZpkLJerOtHDr6hbQgg5NXW+vIvfLebR1B+VfLRvlXzetfozcgX8D9gTD1JKRE6Id6X9+dYc8HZY6ofHe8U8p+7774wmHQyJLavir2vHqBw8VOLjY7tAJCWklPBMF/OLWYAPS9PwihUcUbgVr/GqyBU5Au48azQ+LMMGnAhSSkjPhDtPZxaGptuLZGEemjBz8gwtr67aFjRji0WUpJFSIlps8ZoXBF+ugGkKuF/VuYlMnvS3Uf7Wu+nJ3L2d6jkJIeSkNPjyLn5Xeba1P6ry0bNNzt8laQGYfzEDuXfi33D///rTBMFPlFxfTzGHl+sb+8U8J+77742WeKt3bFkTf10vRk2RpJXIERLCkZFyLQzDc5cqHQEpnKjhEUcKCOlEUkrPlIApvUJ60zs2XfbvgjxDy0vJ68+TJmrSqnhm8h4iR4pc2dntOn01yEbIg3J+H0YSKnx5H/9ZzK3UH9X46HLCkh8mp2VUNpX1lzJpM8KJ0jZQ7juLVMU8uXyP6PuvyVXeT4MOGvWcPNHJttvzOQ2q/rjy0IqPDzuAWLxgdPPU0Q8CTPCkp7MM4hlG4ZHwt2Iqq0e6eP0Ke1KcpRheXiXxL0KY+NsyHeZ/ucl70F+wEG5uGZYQQm6FXv4zR7k/qvPRpZQfNgJzBS64PgizNziwYWgaDHuC1RJYv9qYeJuWlafmmOekff8jUKuD9tiym21fJ0bl4KGO/X7ROVzTG+EWlxjrdxfCeatxBDqeJkemi9d4tSfw2nqlo8pDalwtxGu8uwKLFx2AjpeFQLD9Lp2JCGyjdh+gO+e+X0LIGKnznyl1/VFnH+3jywXMthkackfoWO6yLWsbGFkgahzOK+TO4QyOeY7o+++eCh101XObbV85RuXgoQ5lv2j0/D66YNO3DNhw8FnbYGIoWx4HpIs6zlIcW1434u8tArHAS5qN/rKACLb4Lowe8mce8rLnzzx0rRchhJybav+5p7I/ijv76Hj9Dlc4eKPTe0yyffgbI20zElJ6mNivh3M2g2Oe8/b9t0ylDjrpuYNtXzlG5eChA/rLAgIhWleUL4RvaZiHDqLdcr9MpT9NgOAHUeHZibJW1i8d8BOos/UG7CCd2Z+ugYHlVTL7CxMuas5AA4jxvQ2AIFmC1TQNmmEjQIBtcfRACCEjp4u/rk2774+iRh+tfFsHH3YAc9Xih8md4sMytlh8Zu9f4NkAAAPPpYP8CU0xz9BY49HoooN6PXe17bZ8zsiZz1fcJpEjhXL6J3JE4YDQtQ5MJ9eqD8YUDh3nDjUNTdckz9DyEor6S3ScP1S0P+TlmaV7hzQHWXlgmpDujOpw511T5cs7+M/sZof+qL6cpufJqRmjTeX7RbUv9KSZtYuWNuaZSns8su+/Jpd5Pw066KXncp7799jZJ5wWVX8cPFSSvnxkv3Lger5GmBgmCr9DEF2+l+tkqmQemq5CJyIf3Q8rT1brLzEA5fnU+OoNKu/E2gYPlTol5EEZY6BzXzT4cikb/G5h8NChP1Kfqxqk0NddhtHZlPLFpdy1Uh/Y3MZKffARff81ucj7adRBTz3vKdp2V59wWlT9aVJKebJljAfi379/+PPnz7XFuFmoP0KuC22QkNNylzYVrzE1frC6g3OCo34/N6BnVX//XVkWQgghhBAyQuLvLeB8jjagvRduTc8cPBBCCCGEkBL6cofdtYV4AG5Nz/zaEiGEEEIIIaQTWhiGPPNACCGEEEIIaYUHpgcy6oM3NwD1R8h1oQ0SclpoU+OG7+c4VP1x2xIhhBBCCCGkExw8EEIIIYQQQjrBwQMhhBBCCCGkExw8EEIIIYQQQjrBwQMhhBBCyF0RYz3VoGkaNM2Cn7vnw9KmWMdXEo3cPBw8tOBbifFNL2xl8XpaWW52PftZfu4mpjX3hqaDbynpCs6mKV1DHSpqi/W0pq7TNYqps3dSLC/vLKudpm9p0JSEde83Xk9zz7WXjYKuGuQr3CjKVBAkp+OSPor3S3VJyqzLvrlOVfqsz+s43RBy5zT50p7P1vrWFp9MHgj/A/bEg5QSkRPiXWkrvjUHvB2W+uHxxhihlPfwuOARaNNl/n6DLyj0m3Xx4KXjU4CDh2Z8C/PQhCkuWigsTcMrVnCK5cZrvG4XiKRMHYKAO8+CYx+WYQNOBCklpGfCnaeNcmg634I2D+FEMr03gW10SNdUhxPo58sVME0B96vaK4lMJinhmS7mLd5LCIHA/kC7j2soO15jOndheqmupAe8Fwc+OpYrE3DfD84iXuPdFXDeKv4ovW9BM7ZYZPqXEtFii9cssW9BM2xMvMN9GTmAbfRwJv30mbznKmd1rG4IuWMafWmfZ5t8a5NPJo9G/Bvu/19/miD4iZLr6ynm8LBRu5zGGKHA4LjgQWjRZbyewlDuS5kfxB3wYal6jhzAfr1AjNURSWqIpCMgTS/5r3Ci3N0wDC9SfrHc/COOFBDSiaSUnikBU3qF9KY3PF3kCAnhyIMEnjR7lVdfh7z+qp8rl5+WKxwZRY4UufJr8sme3/8TEoqQngkpHE86In89ckTu361lqzptQZWhKI/ylDRR8/7q6qrKuZevoR201amujNK7b8mnh27I5Ti/DyMZjb500LM1vq5rH0DOwqhsSun7IkckbaXSz1fQ4LOPjwuux1XeT06X9XZfnU7VZUc/cEZU/XHloYZ4/Qp7Uhidj43oBwEmeNLTWQbxDKPwSPhbMeTvmE5/mgDBD6LcnQA/Uc/yToj/5UIsXqDrL1gIN7cUWybG+t0FJk+oHNjvMbD8dCDUFYG+ZesvWIgAttE+yzJ7cyDcL/hNqw7xL0KY+FvX/uJvbAOBxUtFzWZ/YSJEl1fRT59q/i7UBYZT6YaQe6TJlx7zrMq1fDIZKbM3OLBhaBoMe4LVEli/2ph4G7SGNUqMUGSMccGoUXUZ/yIEsH1VtgLX7YzQl1iZLuaaBR8x1tM5QuezZpXi8nDwUEW8xqs9gTfqkUMSGAvnrcYR6HiaHJlutkm2/ez33L0jrF0iqyuvO4Ft5GlF83sAACAASURBVPb3GXZQED0JtpOAWcfLQiDYfpe2vxzyMbBdRJBd3qO+xMoMYL/WbKdpLVvHcifhmQFso2UfY+YUDBuBuap2BtEPgorLeaqde0J7sNFVn62cUjeE3CN9fGkvv9vE8T6Z3DKJ35VSQsoNjGxC1DicSaje3toSI1w4LrhtCrpM+/XF52ErknDntedCZpt067VmwIaDz7GMHMDBQwVx99H5FfGttsYUQ9nyODjdbKPsp5crTGoj2ury+pDbW5/uFcyV8L1FIBbIJtv1lwVEsMV3XJOPZ3Y8y5Aw23gwA/twpmBA2Zm+kqMH9UHy7M2BgHnkALVpdUHguTj9U6Brndo4tW4IuUe6+9J+z9ZzvE8md0K2D39jpPFNcvZsst9Df6A9RrhsXHDLVOtSmfTTX7AQdSszybmGr7+H847GiCbeOHgoEeEnANy5tp+9toN0Nrviyz/XwLc0zEMH0W65345TvZQITJSp6aHpDhl8wU230vRKdxJifG8DIEiWYTVNg2bYCBBgWxftzt7gdN2KkyTAJh1wfB9Ztr78hCM6zP7XilLeGpQv4AmTutUF/wtu46oEMEifufyzLVVX0A0ht07Ohk7z7OV9MrkNfFjGFovPrN/PJpYMPBdWDKpihPbsrxkXjJdKXRrPEB23FMfrd7jCQbarOes3W/vnS3GRUxY3zZgOTCfXSoeIpZSlA7YVh2b7pys/d5CnS7oTHpj2TImKg0aRI0r1bDpEWH1gukLHUJ7rUPb+QFqu3IaDUR0OriX55/NQy6m6n+Sr1qnmwNpQfRbzP4duyEUY1eHOh6LoS6PSBxvqn5W5NPnrXX05ORdjtKl8H6f2B540O8UI7R/26BcXXI/LvJ8mXRbsttAX5vRc1F3a93b9KM05UPXHwUMrlx48JMaHwk84UdqYyvf2jS1tXMl1JTgbmi53vaKB1qVrqkOl/toHD92+StTeobYPHpR69foikjLoKOmjgo5fvUiCcCXfqq9PoancolzJM6IlWKmuUzn/s+iGXIQxBjp3S6MvLQweGp9t8a21PplcgtHZVOFrg/trxXbTEiPk/PzguOD6XOT99Iq38oOBqvikOoZqj7HOgao/TUopBy9bPDD//v3Dnz9/ri3GzUL9EXJdaIOEnJa7tKl4janxg5Uc9znQLoz6/dyAnlX9/XdlWQghhBBCyAiJv7eA8znagPZeuDU9c/BACCGEEEJK6MsddtcW4gG4NT3za0uEEEIIIYSQTmhhGPLMAyGEEEIIIaQVHpgeyKgP3twA1B8h14U2SMhpoU2NG76f41D1x21LhBBCCCGEkE5w8EAIIYQQQgjpBAcPhBBCCCGEkE5w8EAIIYQQQgjpBAcPhBBCCCF3RYz1VIOmadA0C37ung9Lm2IdX0k0cvNw8FCJanTpz/Lbk51SgvUUmqZhmrPuFrniNabKvfytaS5drjqd0xUc0NB05dqW61WUseaZvX58qyFtWdZOuq3KZ3Be1TrwrfpysnvTgoeP19P0vfuwtLLMh/JadNZWr+kacdP9AfXO6tSol4voN8njwmZNHpmcj2oP3PI+VHm+KZ+eZZA7xv+APfEgpUTkhHhXGoNvzQFvh6V+eLwxRijlbdX65359/33SpMs+em7UZcM7uAiSVBBJR0CaXv0TYRieqWxPmoAUjicdASmcqKNcWbr0ec+UgJBOJKWMHCmEI7OcIkdIwJReWzrpSVNJ55mQ2Bc+NF1CXn9Rua6eKaHm31T3yJEC6r18+VleubRpmmL+zTIMz6tKB4kOhTRNUXEvSSOE+q6y4iqejxwp9vrfX2xtx/l65dNHjii83+Pr7Zn5+/m2eLpy0qsN+u2hmzvlfD6MlCjal2eW7FolcoSE6sO65NOzDHJ6xmRTuX7CM/f/X9t/1MYIRRK/enDHat/T3vdfk4u8nyZd9tVzY/xV9w7Oh6o/rjyMjhk2UmK3NPol87/gwsQqm0qYvcERAX4iAPoSu90S2SSD/rKAQIjfuCUdZtgo6YxnAYS/yWz00HSd1bCB9EwE9kfHmQuB573K1PJjrN9dCCfCZqY8ri+xa8u/JMPwvGZ/zbIO/C+4YoG3twWE+1WddrGCI1zMzzpF7sOauzALM1H6cofdUsfJ653LYgUTLr58nL6cLvol5ALEvyEgFnjJ7Gv2F2bmg0v4+LAB5/PgQ7vk068Mcu/oT5O9T4x/Q4hnA4jXeLUn8HIOFs0xQpH4FyEmeNo//ITJ/uYJ+v5bp0mXffTcpMvGd3AZOHhowJ2Pc/m3Sq6k43hGccgRVrXK6AdB2vC6p/PxYQcQixfovcrLp+vF7K8SWDagv2AhAthGxXuKv7ENBBYvFaV36VxVGQbnlQTFmDzldOB/uYle9BcshJtbVj5gYPnpQLjv52uD8S9CmPg7q7t/2nqXy04HflfRLyHnR3+aAMEPotzVbLKlQPyLEMD2tbw9tSmfXmWQ+2f2Bgc2DE2DYU+wWgLrVxsTb4M6V79HiRFK6EusTBfz/dbYOULnMzfxlHBE339PNOmy6V6Ogi47v4PzwcFDJTqWOwkpZbpfELCNMezd6yOXjqfKoWg2u/tW40AK6fb76uZwTS+diT5lun4cBk7qHsBEL54ZwDaqBntNxtm3c+2eV2AbqZwGtosIUp3tidd4d7NAWcfLQiDYflfP0OhLrMwA9ut60AxOtc4Uoh8ErbmcqN4F/A8bgTpbeg39EnJuZht4pov53g7fEYqaZ1N7XHymvj5yINx5sje6KZ8+ZZAHQI0XNjDWr7AnHjbG4UxZ9T75thgBmG1k2tYM2HDwqfbvZ+r7b5MmXbbruUmXje/gAnDw0IH81orx0CxXjN+wfNW32hpaId1scxisPL83HIAamq4fpncYPEmZn0GZbdRBlTqAaFpdULc7daF7XsKJEjkrttzE39tc0Ky/LCCCLb5r8p5tPJiBjdcBs+dNOuvOaeoNqEG/hnnoINqp2zOuo19Czk3mn5LfCpPGEbu6JeEFC3FY1W3Kp18Z5GGI13jdLhBtjHT1QUJKDxP7tbSi3R4jJB/q+Pqb9reLLQx1wu5Mff8t0qTLdj2jQZct7+ACcPDQBXVrxZhQ5KpesgYmyjSub5WDtS7pMtT9eUPT9SI9V1G7naYGffmpnPd4wqRudcH/gtu2ZKjKMDSv2Ruc3LaZGN/bAAiSJWVN06AZNgIE2NZGtzNs0iD5u0HcQbRtDztZvRP2Qb+UkOrA4ar6JeSCNPk247m7v2zKZ6D/JPeGD8vYYrE/Q5PFMgaeCytTVTFCkXj9Dlc4eEvbVdbfVvnWwX3/HdCkyy56LqLqss87OBtnPJh9s3hm/tS6Z6L05Yvzn9qv+qJMk1zJ148Oh/HVL20keVV+vaMpXeRIoXwpoeorTf3TJbR+banmCztVH27IfRVoL8tBV0n5hS8RdPnaUumZI/Jq+ipKjZ6KXybav0dUfMHiyK8tVdVL1etJ6l1Zp3Y5zqNffm1pTF+GeSwKX6rL7HrfGAvtu6Y9l/Ppeo+cizHaVN7nqn7Pk2anGKHwpZ/iV7zUrx126PuvyWXeT5Mue+i5SZdN7+CMqPrj4KGK9HOR+1/Fiz73p1pR+AknapcrbUDJ/eIn+8p55hppVTo1WC3dOyKdrB485OWrDoQr9dKhvLIOuuRf8+mzjnnlO+7DYKv+83X5AVlloJ3pvMfgoVpnZRLn1NC+jqx3bZ1KariEfnu87ztljIHO3ZLzlTWTAmqbLTx/GFc05NNYBrkEo7Mpz2z048VPcdfFCFWf3K7uUzr0xVfkIu+nSZe99Nysy/p3cD5U/WlSStltjYKo/Pv3D3/+/Lm2GDcL9UfIdaENEnJa7tKm4jWmxg9Wg8/LjYdRv58b0LOqv/+uLAshhBBCCBkh8fcWcD5HG9DeC7emZw4eCCGEEEJICX25w+7aQjwAt6Znfm2JEEIIIYQQ0gktDEOeeSCEEEIIIYS0wgPTAxn1wZsbgPoj5LrQBgk5LbSpccP3cxyq/rhtiRBCCCGEENIJDh4IIYQQQgghneDggRBCCCGEENIJDh4IIYQQQgghneDggRBCCCHkroixnmrQNA2aZsHP3fNhaVOs4yuJRm4eDh4aiNfT1PA0aBc2tKzsaaHQvEwaLD93E9O6ew15NqU7pjwA8C2tusy6Ou8zSRxfKU/fgjZdI84nzMlRKUvFMyWZfKs5j8wZF274VvGaD6tQ1uFnwc859QZ5CCH3Q86/tPcntf56n12132hLRx4E/wP2xIOUEpET4l1pD741B7wdlvrh8ca+voLK+KjQh+b7vceiyQ47x5ZDY7MLwMFDDfF6CmO7QCQlpJSQMm9o5yMJPF+xgiNKQuFVkSlyBNx5ZpQ+LMMGnCiR1zPhzrNG2ZBnU7rB5WVZW5iHJsxSmSfEt6AZNiZe9p4kpPSAueKsqp6JHMA2DoYdrzGduzA9JY/3wiAFOpYrE3DfD/WM13h3BZw39Y/Kz7BRyhEQcKIs383+z8+bOZkldpdpYISQS+Nb0ObhwQ94E9hGXUDV5K8P+ZV9a4d05GGIf8P9/+tPEwQ/UXJ9PcUcHjZql9XY11fkXRcfzTa5Pk1KCc8EYP7FrCav+6PZDrvHlkNjswshSQWeNCGkE9U/EYbhmWWIpCMgRZMQkSNFJqdnSsCUXiG96eUSlPPslG5Iedm/q+tRpb/IERL7DGrk8EwJ4cgkN0+aqJG1qc5VdVfr1oJnYi+n+v/VxVfl26BjQi7E+X0YyYgcofgtKbv0MfW+q9m3duo7yFkYlU0pfWXkiKQ9RI4UuX67hsb+sEvb7ZLP5bns+6mywx66GxqbnRFVf1x5qCL+RQhg+6osu116TagL0Q8CTPCkp7MM4hlG4ZHwt3npule6HuXF61fYk8Lsxqnxv+DCxN+mMuJvbAOBxUvF0H72FyZC/MYA9BcsRADbaN9OMHtzINwv+JWrDoQQkkd/mgDBD6Lc1QA/UU2CBi7iW8ntM3uDAxuGpsGwJ1gtgfWrjYm3aV8FUPr6Ej3iI//DRmCuLrRr4wboobuhsdml4OChiugHAYDFp7L1xJ1ffE9ZMzHW7y6E81bjCHQ8TYbkW5euR3nxGq/2BN6Fe7f8HkB1Ca/JqLIOXMdyJ+GZAWyjZR+ivsTKdDE3jnOM7vyx94QS8jDMNvBMF/O9vb8jHLK16Eq+ldwiSZ8m0+2yRjboNA776KvPxbT09Z3jIx9fLmA2zu49GEfFlkNjs/PAwUMtSsCpv2Ah2mfxL4lvGbDh4LM2co2hbHnsQXW67uVF3Wc3Toy+3O33BuZJVxcqEXhWhvazTbaHEI2rELM3BwLmUZ14/szD5fVFCLkcmW9JfitMgr45xFfzreTGyfbIb4y0DSXn+ib2a6mPa+/rgS7xUbx+hysccGG+yNDYcmhsdh44eKjCeIZoDDivi29pmIcOot0S+zZYuSwOTFrWsbqk61ce8BOos+oG7AAIbKP8laQOlBySaj2zvzDh4qtp1K4/YVK3PcD/gluzKqEvP+GIYdsKCCGkkS5bLktEJ/Wt5FHwYRlbLD6z/jubMDPwXFj9qurrS3SKj3x82AHMVUM+j0iP2HJobHYpOHioIt3/vv1O37D/Abtu3/xFST7xWdlYioG0/wE76NA5NaYbUp7ypSEpIWUERwDCiSBbGnj0o07F6XhZCAT2h7Kdp+iQZnhzBNx502fKsmcKqwjp15Wypb54Pc0v4abv/Lm44ZAQQo7ChzVXtxlUfwK6zHDfSh4X35ojdD6V7bXZpFiEnyCbPGvo61H4HHmH+Chevw8YHD8ALbrL6XlobHYpzns2+4aJHCkAifRXPOF+vlP7yReEUPgJJ0pP35fv7b/2k5NZPXnfkGdTusHlqbR9bUmVrfwViMgR1TLnH8q9q8rnSnWp/gJS/f2qMod+taJYVkPdCDkTo/oyzL1T8FF5W0/9wb6TafHXhXSH613TkXMxOpvKfZ1QuVZsGy19femrgo3xUdIOx9juLvN++sRbed0167lHbHYmVP1pUkp5zODjUfn37x/+/PlzbTFuFuqPkOtCGyTktNylTcVrTI0frO7gXN6o388N6FnV339XloUQQgghhIyQ+HsLOJ+jDWjvhVvTMwcPhBBCCCGkhL7cYXdtIR6AW9MzD0wTQgghhBBCOqGFYcgzD4QQQgghhJBWeGB6IKM+eHMDUH+EXBfaICGnhTY1bvh+jkPVH7ctEUIIIYQQQjrBwQMhhBBCCCGkExw8EEIIIYQQQjrBwQMhhBBCCCGkExw8EEIIIYTcFTHWUw2apkHTLPi5ez4sbYp1fCXRyM3DwUMVvpUaXPFXNMDzEa+n0DQN04J1Z9ezn+XnbmJad68hz6Z0Q8vLp+uot0J+VXUAAN+qv1d8d4dnVEd6+OV0UVF+SVe1+R8rHyHkrsnZfkvgdqRvzXxQyX+Rx8H/gD3xIKVE5IR4V9qCb80Bb4elfni8sa+vIP98uT2zDSY06bWvzoHx6JWDhypmG0gpcz/PBGD+vcCfDvdhaRpesYIjCrfiNV63C0SpTJEj4M6zzsOHZdiAEyUyeybceWbQDXk2pTuivA8lnWe6mLdZhW9BM2xMPFXvHjAvz5h8uQKmKeB+lUZHmM5dmJ6S/n0N1cRML/9ed5n3rCo/cgDbOBhph/yPlY8Qcof4FrR5CCdKbd+bwDbqJlWO9K2+hXlowiz5evJIxL/h/v/1pwmCnyi5vp5iDg8bNZhp7Osr8l5PYSjPS5kfiLANpjTptafOAYxLr5K0EzlSQEgnOlwKw/DchUpHQAq10Ca5PFMCpvQK6U0vl6CcZ6d0Q8vLkgkJ4Ui1Jnn9edJETZlFPDPJK3KkyJUvK9+TcrO+Xk26VuvZmP+x8hFyWc7vw0hG2Qd60qzzBUf51uzZDv0HOTmjsqmsL5JJOxFOlPZBhX6pisa+qqHtJolH2wav/n6a9NoaH1xfr6r+uPLQAf/DRmCu8iPrMRD9IMAET3o6yyCeYRQeCX+b57V7pRtUno8PO4BYvKBWff4XXJj422FZx/9yk7z0FyyEm1uKhf6ChQhgGz33csbf2AYCi5cKCWd/YSLEb9wt/7PIRwi5afSnCRD8IMpdDfATlZ89xrfG61fYk8KsMnlMZm9wYMPQNBj2BKslsH61MfE27TsolL6+RPyLEMD2Vdniq6x+sQ020KTXpnsYn145eGjFx5cLmF0i24sSY/3uQjhvNY5Ax9NkSL516XqWt9/fO4dreoftQR2o3dMbr/HuZkG+jpeFQLD9Vrb96FjuJDwzgG1U78N053VnWOqN9tDJt+R/AvkIIXfIbJNsMdr7nneEnbcedPSt8Rqv9gTeWKILcmWS/kZKCSk3MLLg0zicp6neN9/S10c/CAAsPg/be4U7T/brsw020KTXFp2PUK8cPLQQr9/hCgdv43lnAADfMmDDwWdtUB5D2fLYg+p0vctTzo1Ez++9Dpvry91+r2+uhO8tArFAtkCgvywggi2+C/5vtsn2EKI0y58/86DOwKSrC5UIPCvTgHX5n0I+Qsh9ktl98lthEnRN2cW3xt1nlcnjke2v3xhpO0nO3E3s14qDzm19PZCbbNNfsBBA+OuzDTbQpNdmnY/Ttjl4aCRZFjZXy/otN1fAtzTMQwfR7iBX9bI4MKmfTu+c7tjy9JcFRFNwPvsLEy6K54vzxPjeBkCQLMNqmgbNsBEgwLYYnWflLj/hiOqtAfkHnzCp2UKQbKmqXpXI539G+Qgh90XDVs1hvjXCT6CurBqwAyCwDWhTfpThsfFhGVssPrP+O5sMM/BcWP2q6utLGM81/fkv22ANTXpt1/lIbfuipy1ujMgRhYNrB65zYDq5Vjx8nFA4dFw6dFeXZ1O6geVFjhTK6b4qPRb1lzxTOBSo5umZEhWHidS894fCcumzNE0HprN8CvlHjhQ46Ksx/6PlI+SyXP3w4MOS+M6DL0j97MGZHuVb1TzHdFj1ERijTXlmua0lTciTZqe+Psnj0D4Lbau2HxtfG7z8+2nSax+dl9Nd+8A0Bw+1FB18nvM1wqRcFH7CiVIjLd/bN7A02E2uq8bckGdTusHlpUZRea9Bf7n88jLWG5La0TaVW7xX0EFlfYty1+d/vHyEXJYxBjp3S8G3VU4Kqf7jCN+qPjemwO0RGJ1NKV9cyl0rtsOWvr7UvxXac++vGF6Ji7+fJr321fmecQweNCmlPH794vH49+8f/vz5c20xbhbqj5DrQhsk5LTcpU3Fa0yNH6zkuPbcD+Fm3s9Ida7q778ry0IIIYQQQkZI/L0FnM9RBbH3zi3onIMHQgghhBBSQl/usLu2EA/GLeicX1sihBBCCCGEdEILw5BnHgghhBBCCCGt8MD0QG7m4M1Iof4IuS60QUJOC21q3PD9HIeqP25bIoQQQgghhHSCgwdCCCGEEEJIJzh4IIQQQgghhHSCgwdCCCGEEEJIJzh4IIQQQgi5K2Kspxo0TYOmWfBz93xY2hTr+EqikZuHg4c6fCs1uuQ3vbCVxetpZbnZ9exn+bmbmNbcG1W6Kgr6rnret+ruJU6ysoyj8u2WnhBCWunapxSeO/ws+LmAMP0pTqm33yX3i/8Be+JBSonICfGutDffmgPeDkv98Hj3ttPcBst5Pd4gpU2XnfXTEGNdO0aFJBV40oSQTpT+M3KkUP8tpQzD8IxlQwrHk46AFGqhkSOFcORBLCEBU3q5dOldz5TIZB5VuoSc/iJHCkCa+wc8aSrpD3oR0jSFhOnJPJF0hJr+RPl2Sk/IbXI+H0bKtPcpjalNpP6pxtdlebb4XXJexmRTkaP0aZ65///c9cPDPdpOQxvM0o60n7zI+2nRZXf9NMRYR/qToaj648pDFfEvQkzwlI3K9SdMLlb4DBspsVsa5Vv6ErvdEnuxXhYQCPEbA/C/4MLEKptKmL3BEQF+opGlq0XgeV/lGTZKeiAtTyzw9raAcL/QfULt2Hxb0hNCSBvH9CnxGu+ugPM2a35ukN8l94r+NAHCX8QA4t8Q4tkA4jVe7Qm8TaEtnazt+PiwAefzgfvJRl320E9TjHXVGDWBg4cq9CVWpov5fpl4jtD5zC3xjYLoB0HagOLfEBDPKA45wirrv2K6SvQXLEQA26hfvvO/XIjFC3T9BQvh5pZgazk23w7pCSGklSP6FP/DRmCucs+68w5bHtr8LrlvZm9wYMPQNBj2BKslsH61MfE2aBmGdmo7lW0w/kUIYPtav6Xp4VB12UM/jTHWGGLU8y5y3DaeCQmgconp/MtfUXnbUsP9qqUwz6xKf910GVX62+u7uPxWWJIrl928jDo835b0hNwwY9pi8Sg09Sk1KaSJli0ildtL2voPcg7GbFP77Urpdlygrn30azu5NpjbWiMrtv5el8u/n4Iue+inS4zV358cB7ctteLD0jR8/ZXJYaPFFsbIDv34lgEbDj5rh5oxfsNbSHdgtkn17SA32x9/bxGIBV7SLPSXBUSwxXfH93FsvnXpCSGkG8P6lHj9Dlc4qNuxpC9XMOHiqzB52cfvkgcgXuN1u0C0MdLVBwkpPUzs11Ib7Nt2ym1Q3U7zgoWo2ZHwAFTrcqh+1Bjr+jEqBw8VFB22vvyEIwJsu0arZ8a3NMxDB5G6r+5pAgQ/iArPTpR1xzGk60Km758IAGJ8bwMgSJZfNU2DZtgI0P99HJtvPj0hhHRjWJ/i48MOYK4a/Gf8izB3Lmu43yX3ig/L2GKx32eftRcDz6Lw5JC2o7ZB45nnbFIqddlDP00x1ihi1AusdNwenplfCq5YWrrOtqXkWvUSVWF5O1eHMaVLUPUXOSJfT3Vpr7jMp6Qpllf+gMRx+TamJ+TGGfMWi7ujsU9J/WXBgVVtSfLMvP/xTNXPtvtdcl7GaFP5rS5qX+lJs2OfffjaV7c2WLtN58pc5v006bJZP6qeG2OsDjHqOVD1x8FDDYd97tV7A8/9qVagonzPLF0HlMam7GXMGezY0pX0lxpbRV55YyrrKdf5opjHqfMdjxMk5FjGGOjcM/V9StXgofCZxkMmeT+nBigd/C45L6OzKc8sB7FKO8kHsfVtJ9dfNrVBKQtxwXjOO0h5offTK27K66cUl9TFWLI9Rj0Hqv40KaUcvGzxwPz79w9//vy5thg3C/VHyHWhDRJyWu7SpuI1psYPVrLDV5pGzqjfzw3oWdXff1eWhRBCCCGEjJD4ews4n6MNaO+FW9MzBw+EEEIIIaSEvtxhd20hHoBb0zO/tkQIIYQQQgjphBaGIc88EEIIIYQQQlrhgemBjPrgzQ1A/RFyXWiDhJwW2tS44fs5DlV/3LZECCGEEEII6QQHD4QQQgghhJBOcPBACCGEEEII6QQHD4QQQgghhJBOcPBACCGEEHJXxFhPNWiaBk2z4Ofu+bC0KdbxlUQjNw8HD3X4Vmp0GrQrGFm8nkLTNEwLBWfXs5/l525iWnMvn67gSM6eriBnfaVz+dWl8626e4mz7HtdK5Q5Xa9haeXrVTqolwWFNtSggw7P9a9z97TFOtbldZK6EvKoFGyk6NuL5H1ovg8aeo88EP4H7IkHKSUiJ8S70hB8aw54Oyz1w+Pd++yKfkN5uDFmeBDqddmsu/a8Mnvun8/JkaSMZ0pASCdS/21KT3kkDMNzFS5NQArHk46AFHshpJSRI4VwZLT/p1DkytJFFXXwpKmk80xImF6hvBOma5QzoaQ/z5QApOnlLkqzkC65JqRpCkWWvYKkI4p5DLmuPuJIobaFrrJEjhS5+uR12e+5IXXunjbXxtL3IEoVPkFdyag4nw8jZRL7cQ5OscGvpD6zxoaG3iPnZ0w2FTmKr/bM/f/nrh8ebu2zlYcb+pymmOH6XOT9NOqyQ8yRy6rOnvvlcypU/XHloYL4NwTEAi/ZqHz2FyZC/F5kBmeGjZTYLY3yLX2J3W6JTCz9ZQGRyeV/wYWJVTaVMHuDIwL8RGmevr/cWgAAIABJREFUSjrjWQDhL2KcKV2TnJX4sOYuTE9iMyvqYoPcJf8Lrljg7W0B4X5dd1ajVRaB5/1rzOuy13PH1Llv2tkG0jMR2B/5Z09WV0IekPgXISZ42jvFJ0xqH/bxYQPOZ5UNDb1HHg39abLvr+PfEOLZAOI1Xu0JvHxHO6DPrqMhZngUTqbLcdszBw8V6E8TIPhBlLuaBdQjIvpBkHZIyYDnGcUhR1hqsT4+7ABi8QIdl0iXl7OSdCDyd1ZzP/eom8igv2Ah3NxS7KVplEV/wUIEsI2WbQMdnjumzoPSzv7ChIsvZYRwkroS8qjoS6xMF3PNgo8Y6+kcofOZ2zayJ/5FCGD7WrElYeg98njM3uDAhqFpMOwJVktg/Wpj4hUm5Kpo67MBuPO2rXH5mOFhqdBlu+7QyZ475XMmOHioYraBZ7qY7/eTvSMU1xaqSIz1uwvhvNU4Ah1P6tTWfr/tHK7pYVfZa50wXWc5K1LU7ZmM13h3BRYvOgAdLwuBYPt99KzGwQB77NFslUXHcifhmQFso8m4W547ps6n0tfJ6krI4zLbyLRfMWDDwWedL41+EABYfEpIKSEjB8KdJ/umh94jD0jil6WUkHIDY/0Ke+JhYxzOFlafu2mPLQ75SkQOYBtKv9k5ZngEirps0Z1Koz33yOdMcPBQw2xzeDFSrjAJri1RHt9q6YAQ4zdU/jnbHBra83tDkHyidJ3lLKMvd0mZnpkv4XuLQNlOpr8sIIItvo8MVE1PfdcdZmV6yJK1o8S464PquueOqfOp9HXquhLyePiwNA1ff1MbWWxhNA6y1S1OL1gIdVV36D3ysMRrvG4XiDZGuvogIaWHif1aaoN9+2x9ucqvVHeOGe6fNl2WdFeimz2353N6OHjoQo9tNZfAtzTMQweRuq+ucqsVMKlYd1T34J0zXZWclVRskykT43sbAEGyDKtpGjTDRoAA22NHD73pL4u+/FTOktSTf+6YOh+RNtfez1dXQh6FeP0OVzh4S/uQzEYqbch4rt8jPfQeeWB8WMYWi/3e+ex8moHnwo6Kzn22SvyLMHfm7cDw/f63TyddNuiulz035XMuzn48++YpfFUo5fyn9iu+hJNeqz59n8h5+BiS8oWoyJFCOZZf9ZWmk6ZrlDOhqL8k78LXA9Q8i1/AqpTpQl9b6iBL5IiKrxhVp6l97pg690hb+qJX7de3jqsrGRdj+jLM3VP8Yl/uC2Wpv9wbccEuc/Y09B65BGO0Kc9UfbzaX6hfM2zus9WvJnlmvk15ppKuMWa4Ppd5P/W6bNSdLH6dqt6e2/I5F6r+OHioInXsSH/lz1ae/1OtKPxE0mJK1wGlseXkVhtX2pgr750hXZucskZ/Bb2ruq//5Js6iCnKm8nV53pVMF1hqL1lqevE6587ps5CHKOvc9WVjIkxBjr3jGfW+Zni4EGWfGHOBIfeI2dndDblmeWgUumf84FpfZ+d6weKz+byH3dfcJH306TLRt1V9Ld19tySz7lQ9adJKWXPxQoC4N+/f/jz58+1xbhZqD9CrgttkJDTcpc2Fa8xNX6w6ngecMyM+v3cgJ5V/f13ZVkIIYQQQsgIib+3gPM52oD2Xrg1PXPwQAghhBBCSujLHXbXFuIBuDU982tLhBBCCCGEkE5oYRjyzAMhhBBCCCGkFR6YHsioD97cANQfIdeFNkjIaaFNjRu+n+NQ9cdtS4QQQgghhJBOcPBACCGEEEII6QQHD4QQQgghhJBOcPBACCGEEEII6QQHD4QQQgghd0WM9VSDpmnQNAt+7p4PS5tiHV9JNHLzPPzgIV5PoWkapkUriteYapnhabD86vSXliu7XilXg8xD0zXJMri8+krn8sunUx1hnUNM8K2GMn2rVa5j0xNCSImC7yj50wJ5H1oO9DI/lcunZxnkjvE/YE88SCkROSHelbbgW3PA22GpHx7v3mdX9MXKw/l8qvvoe6dNl7UxVZ98crZ++YHgAw8efFiahles4IiKe4YNOBGklJCeCXd+qZfTIFe8xut2gUjK1CEIuPPMOBtkHppuqI4ay6urtgXNsDHxkjTJzwMK6URWnpTwTBfzkofz8eUKmKaA+1WyWEznLkxPyf99jfik6QkhpIgPax7CiVLfETmA/Vrbp8TrKQzFh0qZD/TgW5iHJsycX+5XBrlv4t9w///60wTBT5RcX08xh4fNTH24f59tqn31PjMfH0o+1X30ndMWb9XGVD3y8S1oqq17E9jGhQdq8uGJpCMghRMdLnmmBEzpFZ4xDxdkGIaXl6v0iCMFhHQi2Unm4emG6aiyvJS8/jxpoiZtmwzCkTkNZdciR4qcfNVylDg2PSE3wvl9GNlT8ieeNGt9SdM9KQ++tuATe5VBzsGobErpHyNHJO2kql+rorGva+jrS9mIch99Ra7yfip12SG+a8inrNfL2Lqqvwdeeagn/g0B8QyjcD38HdkUTvSDABM86T1lHppOYWh5lfhfcGHi76zmfrUEWL+7wOQJuQm5Lxdi8QJdf8FCuLmlWugvWIgAtlG/inRsekIIKaEvsTJdzDULPmKsp3OEzmd+NSEj/kUIYPtaty3kFfakMHPctwxy/8ze4MCGoWkw7AlWS2D9amPibdDa1bb12QDceduWGR8fdpD0p8Nrcft00GXffPSnCRD8IMo9EOAnqkl7Bjh46ISOp8m1ZSiSBM/CeatxBHUyD03XxtDyKlI07JkMbCO9bmC7iJTlUgDxGu+uwOJFB6DjZSEQbL+VbUU6ljsJzwxgGxVO79j0hBBSw2yTbuPQDNhw8FkX1Uc/CAAsPg/bj4Q7T/Y7x2u82hN4pZFDzzLIA5D0V1JKSLmBkQ06jcPZwuo99+0xwiFfichBfsvMfi/+HK7pYffQbbB//NMpn9kmtfMsTnpH2LYN6sRw8NCJGMr2wVHgW22dQ7XMQ9O1M7S8Mvpytz9HUUQoZywC+yM3sIi/twjEAi9pUfrLAiLY4rvgH2cb1ekdBgDHpieEkGqSvc5ff1PfsdjCaJx8UGYq9RcsBBD++i0zx33LIA9Dtn9+Y6RtKDmzN6k4E9O3z9aXK5hwsT8iONscBhbP7w97aBoYFv90zSeLQ5LfCpPgWGn7wcFDBdVLQsDk6HWn0+BbGuahg2i33C8HdpF5aLoqhpZXyexv3vl0YfYGJ7etKMb3NgCCZJlW0zRoho0AAbbF6D+rw/ITjsiW+o5NTwgh1cTrd7jCwVsa9We+o9K3GM8QCFHeAfqLn0DdLmLADtLV2Okafp8yyAPhwzK2WHxm/bDAswEABp4Ls9Wd+2yV+BfhPs88+suipi3fP4N0OTSfQVu/j4ODhyqKwaz/ATu47IupJvlEWmVDapR5aLoGhpZXnRneHAF33ufTpzqWK2X1wf+AHYjD1weULxRkz8TraeGzhkmaZ+ME6QkhpIbSZEv8jW2QTbakn77MnF96tmof9Kd+ZvGyxEaq/imCI9LV2N0Ss8YyyKPiW8WzL9mEV4SfIFvhau6zfevQPn0rv5rlf9iHFft4jal6Pud7e5r9/jdF3/jngKrn7vn4sOan2BrVk/OezR4zyRd+UPjlv1yRXS+fYj/fqf0GuTyzdB2ARPbZgzqZh6YbqqO28ur0l8uvUFbl1wkOX2nyzHz+Vc9keaBC5mPTE3JrjOrLMA+AZzb7tpz/KfjC6i/blH1ifRnkEozOpuq+SFhsHy19dq5/LD6by3/cfeRF3k+jLptjqkY9q/kU/MOl7FzVnyallEMHHo/Mv3//8OfPn2uLcbNQf4RcF9ogIaflLm0qXmNq/GAlO3ylaeSM+v3cgJ5V/f13ZVkIIYQQQsgIib+3gPM52oD2Xrg1PXPwQAghhBBCSujLHXbXFuIBuDU988A0IYQQQgghpBNaGIY880AIIYQQQghphQemBzLqgzc3APVHyHWhDRJyWmhT44bv5zhU/XHbEiGEEEIIIaQTHDwQQgghhBBCOsHBAyGEEEIIIaQTHDwQQgghhBBCOsHBAyGEEELIXRFjPdWgaRo0zYKfu+fD0qZYx1cSjdw8Dz94iNdTaJqGaYUVNd27llzZ9exn+bmbmNbcG5ouw7e0sjxD09VXOpefNl0jSZU4wUpd7J+pyaOu7NqyuuaTyFRV52Ld88/4sAr5Hn4W/JzDryjbt+rfIyFkvBRst94nVvgAxdAbffm+qB5+l9wn/gfsiQcpJSInxLvSFnxrDng7LPXD413aVamIqnaWa+ePOUCp12WzbZdo8hmd/cl5eODBQxLEvWIFR/S5d0W54jVetwtEUqYOQcCdZzMKPizDBpwIUkpIz4Q7Tw13aLq9SBbmoQkzJ8/QdHXVtqAZWyyiREYpJaLFFq99DMK3oBk2Jt4hDxk5gG2Uja6prK75NAuDL1fANAXcL9U5zLBR8hQQcPZybPZ/mt5Uy5YSu6WeDGjmrnLPA94Lgx5CyAjxYc3Dg61HDmC/NgZWOR+wST1Doy/Piurhd8ndEv+G+//XnyYIfqLk+nqKOTxkTSq92N6uilS1M9+CprZzbwLbaMnn3uigy0rbLtHkM/r7k1PzwIOHJIjbLY2e985NQ9n6ErvdEtlkgf6ygECI3xiA/wUXJlbZVMLsDY4I8BMdkQ4AEGP97sJcveFZlWVoukp8WHMXZmEmRF/ukqC5E0l5wonyTlFfYueZCOyPw2Cpsayu+bRV6QuuWODtbQHhfp3QeQo875vGDBvlvRJCRkr8ixATPO2d8BMmQ/Jp8uVJQT38Lrln9KcJEP4iRjKQEM9GEtjaE3jFgLW1XRWpbmfxbwiIBV6yjGZ/YTbmc4f01mUNTT7jVP7kCB548HAHRD8I0gaUGO0zikOOsKrF9kgXr19hTwqzFBierpL4FyFM/O3ybG0e39gGAouXilBadWBtZXXNpwX/y4VYvEDXX7AQbm7JeDD6CxYigG085lIwITeLvsTKdDHfb02cI3Q+0TQ34s47bP1QfDnQ0++S+2b2Bgc2DE2DYU+wWgLrVxsT77DCXUuhXRWpa2f60wQIfhDlrqqTig9IhS472XaTzxjgT04NBw83SzZD/lbjCHQ8VQ5Fe6Srm6U4aTqkxtVOYBu5PX6GXUxV7+z2DqxTWR3yaSJe493NBiA6XhYCwfa71/aig3NRD7vpWO4kPDOAbTzuflJCbpHZRsIzXcw1AzYcfNb29Imd77dUOqjZ+lHw5X39Lrlz1Ha0gZEF/MbhPF/1NtyWGKGpnc02aRvP+q53hA+9fa6oy662ndDkM7r7k/PAwcON4lttDSaGsuVxQLqo+yzFUem6I7LzFcpewjxNqwLqdp82jssn/t4iUJZu9ZcFRLDFd49AP3/mIa/L2UZ1PBxAEDJ+krNsX38PZ6yMjoN/fbmCCRdfhQgj78vjs/ldcgdk+/A3RtpOkjNzk4p98s0xQns7y/qn5LfCpMvM4J3SFm/V2XaausFnDPcnp4KDhxvEtzTMQweRuq+ucrkQmChT6P3SAT+BOgNuwA7S2f/pGhiYrrJtz/42GFBH9CdM6lYF/C+42WpCW1ld86klxvc2AIJkuVjTNGiGjQABtn1GDx3Ql5+FcyaEkDESr9/hCgdvacSV2W4nnxD/IixMWpR9edTf75IHwYdlbLH4zNpK1pYMPBfm36pihDw921l6NvKoLck3SrsuUWnb+1sNPuMof3Iq5MMTSUdACifqdS8MwyvIlVyDcGRZIk+agDS97J+mBEzpHZWuSZ6h6RKK+oscIQEh1cciR6TpqvOIHJGrU1UeMnKkQD5tc1ld80lkMosV9sxy2n2eBf1EjhSlZ2vyLcjYVBYhXTi/DyN7iv4x9SeJnaf+OTV6z8zbtGeqvrvJl6s09WvkXIzRpjyzrt/ypNkpRkjbYFWn1NjOkhhhTG3wMu+nXpfNtl3Qc5PPaPQn50PV3wMPHpKGjcIvaehN9xLO1wgbyvbM0nVAaWxpA0quK410aLocFU5iaDpZrb8kwFbkK3SYbYOH6rpWy1VfVtd8UgdReEYoQUCewmArEaJ28FDd9or3OHAgwxljoHPPeGZdf5IfPJR8j+qb2nz5Hg4ersHobMozG/u2fftoaVedBw+5mGB87e8i76dJl022Lct6rvcZzffOhao/TUop+69XkH///uHPnz//397ZI7fqc2H8YeZdCqTI9QrwCuw0qdymw6Vp0qVMlwZK06V1lSawArMC/ikCe9FbALYAIeRvO35+M57JRUg6OkhHR5/30mLcLNQfIZeFbZCQ4/In21QRYuz84E3c/nmaq/4+N6BnWX//u7AshBBCCCHkCim+V0DwebUO7V/h1vTMwQMhhBBCCOlgL9ZYX1qIO+DW9MzblgghhBBCCCFGWFmW8cwDIYQQQgghZBAemN6Tqz54cwNQf4RcFrZBQo4L29R1w+9zGLL+uG2JEEIIIYQQYgQHD4QQQgghhBAjOHgghBBCCCGEGMHBAyGEEEIIIcQIDh4IIYQQQv4UBcKxBcuyYFlzJI2wBHNrjLC4kGjk5rn7wUMRjmFZFsatVlQ/r3/zpCeBa5KrCDHuCWvGaxkSTTydLHvH65ZWMnJ9xq4kmfd9j6E0jpEHgGQ+UC+qfFoBybz9LMHcasujluvQMpvFszAOwyPIZKIjWZRmHbLGIQpJRmX937zTk0ZfnevNyzSdPn0O6WXoW/d9j2J3fZLrpfUddXZRZ6+1fUAjDzqHd03yAX8UQwiBPMjwLlWGZD4F4jUW9vb1fXye2t7JdVnra9wJQzow8o1a9qKRni7spCWTEHdLLDxAuEEsAhfCDfJtUB4I1w1EvvmnKwBPxFLsLMuuTK46XhUaewJwRfnPWHhSvNiDgBe38uuJ1yfL3vFKmvrLW++V/97KKOfpCs9zFWHtNNrlHAo3yCMPhAuI7eOmXqWEJV3U8aR/t9GG71Lmtt7Kf3ei9T4/gkymOhKiqydR1umyPN3vVYdDTi/2BNAqSyVDI642L9N0hvSm+1Zymm29atLdRZ87cjobRrqUdcPMJmjsta4PaNfx2Ov0W+S0XFObygPJDsXe5u/G8+3Lgz5Ph9gTcD3hNey0zte4POf5Pib+Vr9vpE1Zo89z6FrW3x0PHmrUTkrzla6hP30l3FGuTkfR75A0HDCjeApZ9o1XoR88KJzEOk83EHkeCLdj2Hpk3KQxFG6Qx9AgoJHMtiEPNmpdujuWuam3Ew0ejqKj0oj2y2AyeNC0kUb93C+vbjoDetN+q00B9hg8mNW5XbkmR+fP06kTrcGENqrCFjbSLdPpvmeeBzkOV9WmpP5tM1Gis00yg3antll6P0Vbdy/AJb6PWgcG/l03of5vcsJ+QkbW391vWzIi/0GKER7s4VfPiiRX8ZsB7iOc1ivZb3tZLMGHn8KdPcHGLvGa7BvPjALfq62MG8m/ovKZ/YSZGzWWYVVphO8RMHqA+rOpw7V52E+YuSl8Z3g7wOQ1gBt9ISlCvEcugtfJUKGV7Fpmld6OzVF0VPwig4fn/dRSpfGNVepi9qQo7eQZHjL8FgZ5maYzwG7fypAd6hy5YuwF3rwI0802tSmy4LOxbURN0153kPoA+2EEpD/IGy+k+MlVEcmfZ/KKAD4cy4Ljj/C2AMIXH6N4iUGzO+DzFOEL/FGMpTahgbp7FxxPB8mHj9R7U9oMXdip4OBhkNLJdIPX4QZ3VobksvEwkv652SM3ReTFWPfWslY8Y/aNtyX1nUpGB37bmauc8PKZjaeZi3T1jbY/JaexmuUQLeumDR/Mw8ZiLRB7KXxnYE9x7Sw4BzTqPcrc0ZuGaLrHXslj6Sj/QWqQ3bZs5c/x27F0g/rKcTLKyyAdHYbfSof6e+xQ58hVM1kKxF6EqeXAR4BPnVEwstetPmCyrNKv69A7MvdEhSE3QGk7hBAQYgmndvid7dku9Z77Ad+iCPHijxD3jRyMfY0/zNF1kOArAjzlDJgu7HRw8DBAMjcw9BdgWK4Cv5n0z8myMiIC+eO7xllsxTNm33hb3CDfyCjiUWO2tfheIXVnqP1i+2kGN13hu+hJI/aQ+h+dMurCTfOYLCs9BtDOCE9eA7jw+o3sADuXWaE3HV4stvGEwWzUDjKZ6miIRtmEQB60vSHdqoCLx/bSWC+HpWOqFx2673EsfZJLUR6a/3quvuNsBUc3EDSw16o+oK4n5e8NI5MROvn7FCFeVjPkS6dafRAQIsbIf+nUQb1vUQyvXhj7Gn+YI+ugCN8RuQFUGxh0YaeEgwcNydzCNAuQrxdXteymkku9ZA2MFNOp9tMMbuUs7RKvkcae8YyZPMPbzPiW23GQlkuwlmXBcnykSLHq884mrwh0W0c64bvnYS8+Ebin2hawR5mBlt4uL1OvjibP8BDh6xCLaj9g1FfW5AtRvZowlJdpOr3s+a324LR1jpyKdgdff0eT+iHb6xqjvin5QnTo1kDyB0gwd1aYfdZ1pZ4McfDYmosZrlc5flJ5ldSBn1YrxO3b66Cuu/fG4Tootz55b6pvogs7LRw8KCmvTry+gYNGrraDlHzAT6uOowgxlu5dK75X2/2Mung69o1nSvKFqDZyyQf81EWQi84stGp1ocTG4k29+qAMN8ijCMfNZd4qjvns9g7sVWY09XYBmcx1NMFr4CKaNmdfO/G1qNNAEWI8lZfdh/IyTWd/vezLWescORmdyZbiG6u0nmxpXe+ss9fGfVOCuUndJX+eZN4+X1NPPuT4Sc3q1faq8QmWQrZzOQK3WiFeL2Br6+6dcIAOule6VxMPPZMAurCTc9yz2LdEeQMLWj83yDfXNnZ+0nUop76qdS+5qmsdy+fyyfvqCk9lmC6eRpZD4nX015YPjWsz+28rkm/RUd1eYB6+Sx69emxzwM0W+8nT1Js63BVBro7XuRb4KDLpdVReCSi9P3CTUu8tXJ0y7pKXaTpqfbrKa4XbetkI0Xvbkvp77FjnduCqboa5A2Kvr72pr1hWfnNdH9Cwx7tfA0kO5+raVN+Ngu06MuBb9Nv+nuvCT2CvjsF5vo9OB3rfqKvn1pX4DXRhp0HWnyWEEEMDDNLlv//+w79//y4txs1C/RFyWdgGCTkuf7JNFSHGzg/eDM/FXTNX/X1uQM+y/v53YVkIIYQQQsgVUnyvgODzah3av8Kt6ZmDB0IIIYQQ0sFerLG+tBB3wK3pmQemCSGEEEIIIUZYWZbxzAMhhBBCCCFkEB6Y3pOrPnhzA1B/hFwWtkFCjgvb1HXD73MYsv64bYkQQgghhBBiBAcPhBBCCCGEECM4eCCEEEIIIYQYwcEDIYQQQgghxAgOHgghhBBC/hQFwrEFy7JgWXMkjbAEc2uMsLiQaOTmufvBQxGOYVkWxq1WVD9XN7xrkcvCPGkEYtwTdpx4LT3sm5+CZG413m/mJRvB7W+jm2Suz6slpzUO0baZdf5dOdV5K8vTzkfx/QZlNShvLauybugUPaQHA/mN8+4tp65sqrBtPSjrlKotlvHaRe//pjr5CDkBrfpm0rc0bWjl6OnS2SMP8odJPuCPYgghkAcZ3iWbncynQLzGwt6+vkufbfJuX19xL/T5cO023K8fRX9YK/oa2rq4W2LhAcINYhG4EG6QN8PcQNRPYg8CXtyInWXZ+eXKA+FKcuWBKwBPxI14eS20AFwR5AfE0+ph3/xK2vqLvWZZm3FyEbgQrU+w1QnksKbMzfJs0+58b7jC89zOd67zbrwfewJQP2tEr2TbvDckaytPZXlFpSu3q9M8UMkvy6fRg4n8pnlry6krW1fXqjrXiRt7HXm039T4O/xtTmfDiAmqfqUmD1wBwzqpS0cXRo7PNbWphk2Ovc3fyn7CoM/e6d3YE3A94XV8q8tynu8z4FvK/XAeCLfVL2/R+wGdXM/Q1mX93fHgoUbhHLbfUBjy01fCYbkaFa/jQA053LvHa+hh3/wqhgYPTUdxt7TVaWiIvbJceSDcjsHs+Q6N8mu+lfyeVtZuntrBQ2WYZGPRP3gY0oOh/KZ5720QewZqAwN5pdHUfVPj7/C3uSZH5+4YtFuG9VOXDuv52bmqNiXZzs1EkbKPU7BL3em8W9t4Ax/mzJz3+yjK39G/rq3vMHg4U1uX9Xf325aGSfDhp3BnT7CHXz4v+Q9SjPBgA8VvBriPcFqvZL+KJbG94jX1sG9+xhS/yODisZ1BG/sJMzeF7yj2bxa/yODheaJPIvmKynLZT5i5UWN5t5fJMzxE+EoAFN9YpS5mT4oCTp7hIcNvMSDrzjhYfAZwo/fhtIb0YCq/ad5HK2eB8D0CRg+btjd59oDoS1qaTfAVAV6rcNpvetTvQMjuJB8+Uu+tsW1kQ/GLDMDqRbFdYYd0tHmQv8/kFQF8OJYFxx/hbQGELz5G8RIDXeJufXbr3SJ8gT+KsRzM5A6xF3jzIkytORIUCMdTZMGnto1G09bWRQWXaOscPPSx2VM2ReTFWF+dBS4dKzd47TEENh5GR4hnrId981OTfPhI3Rlkf3bbiOS9fTYWa4HYS+E7rQaW/yAdyqgI8R7VjrONp5mLdPXdORMxjM7QpvjJB2RVoC6vhL3Am5fCf+me4Whgogcj+U3zHi6nrmyp71TPHaxmOYTcC8mDNgBIvhC5AV7lyjX4TXf7DoQcF/WAd0PVXmefAkIIiDyAG00V+8p16QzkQe6A0s4JISDEEk7t1Dvbs23q/fa79Nmtd4sQL/4IMUcOvUyWArEXYWo58BHgU+NTbb+fQB4AvqM603CZts7BQx+T5fajPb5f3aGzZD5U8Qr8ZkeIZ6yHffPbsnUaLUyzAPl60Vjt8eJtQxKiOXsyWcoNzNwZLL5XjUGK/TSDm67wvbMz2Z6dl2muoJjKqivvNq0YXurj5WDv11x+07x15dSVzQ3y8nnsIfU/WvVtgtfARVSNHjYrDNIbpt903zpDyCEU4Xt3wNtBGszbT5i53VVdXTpmeZC7oQjxspohXzrV6oOAEDFG/kvYwOWuAAAgAElEQVTH7u3SZzffLcxXNu6WBHPLwtdz1ffMVnAMJ6/sxVtz4qziUm2dgwcD7KcZXK1zdV6Sede5th9GQPqD9gTxSJpO3jdejayHffPTsXEahYAwjNORcfGJwK1mytuz1B0KfK9SIC2Xdi3LguX4SJFiNTR6SL4Q1VuB7AeMVLPzm/fUs/oNWfdmgmXlZH/3vjKghz3lN8obB5Rz8opAsY3MfppVW6YSfEXt7Va7f9PjfAdCTCi3f3pvGvvmPBr0N7p0DPIgd0SCubPC7LOuD/VkkINHt/XmDn12990cP6m8quzAT6tJQcUNh/dI29Gv+55BfwPo2cp9wbZ+2uMVt0DPoZb2YdCB24LOIlf1TH0LR+tQrOJA787xtHrYN7+S4QPTXV30HeLu3nq0PThUytxzy5DiBqJuOfsOPaluh2ql1XpvSFaT8pbReuoFBm5v0dy2ZCK/ad76cu5xYLrvELuruJHG4Juaf4e/zVUd7rwT1LfY5K0LCFrtoOemtL7bcLQ35ZCTco1tqmmzZfsbC8+wz25eSjHcv8vv8cC0pj9r3fwn6zn2mm0+9ro6P3db521LQoja+UXrV35oySEClI7Fqa9qVcpVXafZ+bWuyOzIvG+8IT3sm59CfyaDh32/VdnApHeqBth/tVn3pqdm3j2OZqfc7feGZR0ub4+u6m+huZqhTw/m8pvmrSvn8Lfsv3WrW5buJUv7fNP7GzgIcZ2Ozt+mdb31hvbgQbRsa7ue96UzFEZOzdW1qdZtdZtnrT5lqM9u2FWD/r3kXgcPOt+y0qXi+SasT8+dwdr527qsP0sIIczWKIjMf//9h3///l1ajJuF+iPksrANEnJc/mSbKkKMnR+89Zy7uyWu+vvcgJ5l/f3vwrIQQgghhJArpPheAcHn1Tq0f4Vb0zMHD4QQQgghpIO9WGN9aSHugFvTM29bIoQQQgghhBhhZVnGMw+EEEIIIYSQQXhgek+u+uDNDUD9EXJZ2AYJOS5sU9cNv89hyPrjtiVCCCGEEEKIERw8EEIIIYQQQozg4IEQQgghhBBiBAcPhBBCCCGEECM4eCCEEEII+VMUCMcWLMuCZc2RNMISzK0xwuJCopGb5+4HD0U4hmVZGPe0omRuacMvIVcdVv4kA1CEGG+eW5gnnajq8mjiNfNqpdkbTzZa1U8lTFOw/nxasnfDyvx6s2jJaY1DFFK8to6LcCy9U+XbTvzANIfLZKYTs7QG9FPL1+lg+uNq5S4T7NGPoT4v0OYIOTW9trtNq+1v28KwbTXOg/xtkg/4oxhCCORBhnepIiTzKRCvsbC3r2v7+jY6X8PAD7kntHpttHOztnopn7TNHQ8eEswtCy94Q+D2vTLHNPPg9YVfQK4iHMNZzZALASEEhKgNQIK54wNBXj6PPUTTVmVUlkcTrwjxIuWVBy6iae1gDufnxbWMAmKp+U/XixDjaSS9HwPvbUc7wVfkwvNcRF87WKNkDstZYZZvZclnK7wc0vCOlqamTEY6MUzLAHvxBg8ROlGTD/iph+fG5xvIa1f9JHNYjo+RXF/yAPCdixtIQo5Fv+1uk2A+zRDkclt4MbKt5nmQv07xm23+th9GSH/y8nk4xhQxGl2ytq9vo+v7DfyQe0Kn12QOS27n8Qi+06fziov4pD2IuycXgQvhBrnyuRerw7Msu4BcsfDgio6oQggRewLwRNyK78Xtf7fSHYwnixQIt85fG0+TRkVDf3K6fcSegBuIPA+E28hXl18sPOjkUH/bPHDLvDZZQ2CTyHHSHCyTiU5M0zL4HmUScjn7n+nzGtJPO82+9icUdYwck9PbMLJFY7vbdNqVHFfXlnfIg5yEq2pTtZ0WZf/jBrmibvWg6390ff8u/sQFuPj3kfTa9QmG2q/eJz0Hsv7ueOVBTxG+wB+1RueXpvhFBmD10l2yLn4zwH2E04qS/VabaXrKMxSvQf6DFCM82Gbxoqnhcpz9hJmbwnf630u+IrizJ9j2E2Zu1FiC7aX4RYb2rPmBHDFNbZkMdGKcliGTZw+IvqSZjwRfEeC1CqvNa1f9FN9YpS5mT4rp0ckzPGRQVUVCbgqN7e5gL/DmRZhacyQoEI6nyILPxgqC0rbukgf5+0xeEcCHY1lw/BHeFkD44mMULzFonqW+vo2u79/Jn7hHJL3aDyMg/UHeeCHFT66Oem0+KQcPKooQL/4I8bV8pZr8BymA2ed2OduNpj17Cm08jKo/dyqPFK9BgfA9ghu89hgeOZ6NxVrashJgYDmufD/2UviOYrBRhHiPagfTxtPMRbr61mzhqaj0NUTqO409iY6viXWsNAfLNKCTndIyZPLc3LqUfCFyA7y2lre1eRnqp4m6kyrpN6aE3Aw72W5gshSIvQhTy4GPAJ+bkYPGtu6YB/nryHVlCad2Pp3tmQT1ttChvr6bj9pnGAq7N1p6nSyrNl77Ce/I+rYjXaFPysFDh8J8dH4RJEfLfsLM7RvVFyi3POY7lqeO1ySZtzsxs3iAZj99i8lS7hC3znLxvULqzlBPTttPM7jpCt9Hmsxw6/2Z0r7EU6dpWqY+neyT1jATvAbbcwybFYaT5CWjW11w8diexiLkJjG13eW5t6/n7Xkhp2fyoGtbTfMgd0W9937pVP5AeY5u1DpLA5j09Z3Ee/t+fdh9odJr3b+XvzeMlDNv1+mTcvDQIcdPKi8LO/DTaiZZcVvOWXEe4fY4WuolMGD0AG150BtvW8GTuYVpFiBfLzaOZH9+ynVOZDs4gfbiE4FbzzgX+F6lQFouv1qWBcvxkSLFashjbc+kH4OjpLl7mZo6OSwtHfbTDG70jrAoD0U3txMZ5LWrfuwHjPpWF5IvRNpVCUJuBI3tblOE740Vv7rtK9uzbFt3yIPcEwnmzgqzz7r/rvtiB4+teTJVX99G1/fv5BfcESZ6Lfs71ZbfK/VJz3XQ4noZOnxyTQemVYed6wM2rYOqvYdN2+nq4pXvdg76DsSLveahn9jrpiHrb3OYaxthW65GGUUjTltO1aGs8r1m/G1++xyYPkKaBmXS6kTmQP10qeR3ew54D+Y1pB8zfZYHyy5zKOxeuPjhwbtCZ7srO1u3ibbtrtqCFw/ZVl0e5BxcY5uKPdmOyn1BLDyjvn7g0pBGfTX1Qy7D+b+PXq9bSr3J/Z3yshIpzUsfmL7jwUP5sdD69d26dL7Bw4BcVUdSP2/UrUZYX6ehKE9fvNjryAFIFdo0nqLhNPVXNTBFWv0NSDZS7fjNNErnVCXPfoOHQ9Pcr0zq73kM/bSpy9a9ZMkkryH9aG5wMpSPHIdrdHT+NL22uzV4EFUbUdn/Iduq6x/Iybm6NiXduNR4NlSvWn19x2brfA0jP+QynP376PTaaqttn+HaBw+WEEIcsnJxr/z333/49+/fpcW4Wag/Qi4L2yAhx+VPtqkixNj5wZu4rj33+3Az3+dKdS7r738XloUQQgghhFwhxfcKCD6vyon969yCzjl4IIQQQgghHezFGutLC3Fn3ILOedsSIYQQQgghxAgryzKeeSCEEEIIIYQMwgPTe3IzB2+uFOqPkMvCNkjIcWGbum74fQ5D1h+3LRFCCCGEEEKM4OCBEEIIIYQQYgQHD4QQQgghhBAjOHgghBBCCCGEGMHBAyGEEELIn6JAOLZgWRYsa46kEZZgbo0RFhcSjdw8dz94KMIxLMvCuNGK5EZX/eZJbxrnk2v7vP41xCpCjHvC9o2HZN6I15Bn3/z6C91IrxlP8U06BrEWuT/POkyp13YEhTzteG39nLmaEEJujD4bJNO0ny0717A5XQewr+8gd0byAX8UQwiBPMjwLtWHZD4F4jUWdjOKad3R9u86n+FOOI5+hv3QZj7nHQze8eAhwdyy8II3BK76DS8WEKL6Lc/1H4Vr5CpCvKxmyCuZ8sBFNK07lgRzxweCvJQ39hBNq8q0bzwkmE8zBHmlgzwA/Jdt2F759RV7DsvxMZJ1LmKgFc+t8xMCsRdh2vHWE3xFLjzPRfSlztF1XaT+x+7y5AHgO9vGXoQYTyOpnsTAe4j7M5WEECOSOaaZB6+nz6lewodkPxt2LpnDkm1yPILvSLZ8oE8j90Pxm23+th9GSH/y8nk4xhQxmi7NDnVnyJ/o9RnuhCPrp88PLcIxHCkfIbqDwVNyx4OHCZZCYL1wLi1IC41c9gLr9QJ1/bCfZnCR4bcAkHwhgoe3uvZMXhG4KX7yA+IVv8gwwsMm4gNGtSz75qckwbxywpsGbYKlWKJv2DZ59oDst+msJ1+I3BleX2dwoy/1AGH2hsBVDTxqCoTvEdwgb8pjL7COvdbAw8Xj5lNNsJTKTQghW0q74r294lH7XtOOOI/uxs4VvxngzvBUB06e4W1s67X2aeQS2A+jRr1xH53SsfVHiDuToTvUHV3/rvMZ7oWz6CfBhw8En5fzN+548DBMNL3McpAx+Q/SqiKWncoj2k0/U3nspvHsBd68CFNrjgQFwvEUWfCJxQH5KakGIs87Le6UHTFGD43Gk3xFcGdPsO0nzNyosVS7xcHiM4Abvau/a/GNVepi9qQQWO6s7SfM3BS+c6X1gxByNRThC/xRe8Z3iAQfflraNFQOYfqDvPFONWlDiMzkFQF8OJYFxx/hbQGELz5Gcf+E3F7I/bvGZ7hbDtSP0g8tfpEBWL1cbms9Bw9KbCzW26WicrfKwLabs1PPjr/2GAIbD8oh7W7xJstq2dxy4CPAZ28t3zc/RQzNft/Ud6rnDlazvLmdrAjxHtVOv42nmYt09a3eRmQv8Oal8F/6thlpBjubzrqsJ7GXwneueJBJCLksvTO+PWz2RU8ReTHWmxXeZWWPa/v4joxblIgS2Y9ZwqkHr872LN/h5xG6/bu5z3APHKIfjR+a/yAFMPvcbn9yo+lZz1xy8GCAvXiDhwg9W+gvQjIfqngFpC2Pe8Yr90F+PVeVd7aC0+sg75tfF3ux3pyjaONKZyza5xaK7xVSaUnffprBTVf47rGPk2UML/XxoiyQbpuVvFWpNAbbxs0BBCFEpth9xney3DoNj++NSZTa3pS/N4zSE4lN/g71PvylU9XF8oze6MDzCN3+fRef4e9zTP10/VB5+9MTZm7Pzo8TwcGDCcUvspbDeEmSuYVpFiCX99Upl7OBkTR9vmu8InxH5AZ4rXo8e/GJwE2x+i72zk/J5Hn3wdnkFUFjW1KB71UKpOUyrWVZsBwfKUp5exLBshqEfMuP7QeM+rYCJF+IelYlav1wCwEhZEuOn1TefuDAT6tV1PHwBQvaM2N7bfkk90WCubPCbLM/vvZlHDwesGql6t91PsO9cXT9yH6o8zhwjvT0cPCgIJk3R4LJh9+Y0b4c5dVdSoe87YAnH/DTulPZL15ngFB8Y5VWA4R981MywWvgIpructWpjcWbtPqQfMBP3e0tBtJNB9qblapBiO/L03e1PK0Zgep2pXoJsgjHzWXfSoZrGWQSQq6B8jDq1i7lCNxqFXW9gF1fyVgbvyLEWDKExfeq58xYedHELltCyf2RzNv76usJrhw/qW57rpyGvKe+v3/X+gx3w/76kfWs9UOr85abQUfleyjPaZ4KcbfEwgMEWj83yIWIveZzNxB5K3aWZZeXq/55cRk1D4S7ee6KoBZ633hCiNhTyFGzb359+muk184vF4Hbyr/SlRdXckrpq96py9NMQ8q3Hb9TjqZuapn6wwm5Xk5nw4ieti2r7MjG/mjsSstGquyhsu8gZ+Hq2lTsdf0XqV/b1g193Wn0rwP9u9ZnuDBn+T4H6Eer5/Z3bNkCpftzZGT9WUIIsee4467577//8O/fv0uLcbNQf4RcFrZBQo7Ln2xTRYix84M3zbXpt8JVf58b0LOsv/9dWBZCCCGEEHKFFN8rIPi8Wof2r3BreubggRBCCCGEdLAXa6wvLcQdcGt65oFpQgghhBBCiBFWlmU880AIIYQQQggZhAem9+SqD97cANQfIZeFbZCQ48I2dd3w+xyGrD9uWyKEEEIIIYQYwcEDIYQQQgghxAgOHgghhBBCCCFGcPBACCGEEEIIMYKDB0IIIYSQP0WBcGzBsixY1hxJIyzB3BojLC4kGrl57n7wUIRjWJaFsaIV1WHl77wNrU+upkwW5kkjEOOeMG08TX7aME1+Ncnc6k1XSkgycipjpwrfplnnoY6rllUpUzJX6CjB3Ormvc1HJ9tQuSrZFYqry6TSKSHk9mjaYIWN6n1XtgMKm9IyEjpbTu6I5AP+KIYQAnmQ4V2qD8l8CsRrLGzpfYP+XEqgxzcarp/3wCHttz8dtc0w87GOzx0PHkqn8AVvCNxuaBGO4axmyIWAEAJCtBraJeQqQrxIMuWBi2haV6gEc8cHgryUN/YQTatGPRSvVw8DYX35bV6ZY5p58BT6VeHWaQmB2IswbTUqLxabcCEE1tIHkePmQYap3NCSOSzHx0iOnweA72wbXBFiPI2kPGLgPUSBCZZSHBcugrx+Z7n5r+RNZVOVq0uCr8iF57mIvu7P8BLy90jwIdlgrR3Q2uuShr1Z1lZI36eR+6L4zTZ/2w8jpD95+TwcY4oYm2oDwKg/37w6hzXNtv1gPILvmNTPO2Hv9tvGwGbs6GMdkzsePJRO4XrhKMISfPhA8LnAWcYLpnLZC6zXW5nspxlcZPgtACRfiODhrXZaJ68I3BQ/+UA8rR40Ybr8AAAFwvcI3tsrHvfRwrMHZL/YZyxtL97gIULpd5dyuEHeNJb2AuvYQ+p/SI3axeOmqBMs18f//kblSr4QuTO8vs7gRl/aGUpCyC3QtCfOo9tvB7T2eiCPXltO7g37YbSpY8VvBvfRKR1bf4S47bAO9udbit8McGd4qivo5BmeUf28E/Zuv22GbMZhPtah3PHgQUPxiwzA6uXKl97yH6QY4cGuG/Qj2t1GpqqxUrx9GcqvCF/gj9qzG8apI3yPgNHDfs578YusHggU31ilLmZPipRko2c/Yeam8J1Tbk8zK1fyFcGdPcG2nzBzo8ZyMyHk1knw4adlGzd5XWGvo+llttOSG2LyigA+HMuC44/wtgDCFx+jeLtiXrOL/2A/jID0B81xRXOgwfopcZT227UZh/lYh8PBg4r8BymA2ae0XSWaXtn+83pG/bVjCEpsPIz2ibcvUn59sxsDpL5TNSgHq1neWc7bNjj9nuHkw0cqz4xoB0q10bOxWAvEXgrf2d3o6WQbKleDIsR7VA92bDzNXKSr771WYAghV8Rmn/gUkRc3tjb207bXpZ3abtFEZ8sIISVyXVnCqZ1NZ3u2oX+ffJ//AGCyLLfQbPq7d2TuNh7rp8yB7bfPZuzpYx0TDh56kRxO+wkzt2cW/0Ikcwc+Anz2dkAFpC2PO8Tblzq/vHd2YwhX2m/Z3E5U0jxX0Ex/66BbmGYB8saWI92SobxVCZgs5UZtPoDQyTZULpnie9UY+NhPM7jpCt/XU/UIIfswWW6dhsf3wUPTwLC9bm7RJKSHeh/+0qn65/Jc38h/6enj1P5DTd1Plr83jFL1e/dePw9uv0qbUeztYx0TDh5UOI977lE7D8m86yCrlxKBkTTlroq3L/35AT+pPBPvwE8r534cms2gT14R7LhdRz6ULOTy2Q8YQb13s9znqV6VsBefvXs+92awXAW+VymQlkvNlmXBcnykSLHi6IGQP4PJPmgjey1v0SRESYK5s8Jsc4azri8OHqsVAxP/oT/58rzEs8qTveP6eez2u7UZ+eE+1hHg4EFFtf9947AlH/D79s2flfKaL2WFnDw3R7DJB/y0btCaePvSm590O5EQECJH4FbOvXHeNhZvw7P0hoLiNXC7N0dUtyvVy4lFOG4u4Vbf/LhGb6BcVZ7b25y2tzUcRxeEkItQhBhL+16L75W0D7q6vnET3m+vk3nTjnW3aBLSJJlPkQWf0m2R9aRYjp+0qoNa/6H/SnEgwVzqR1k/gUPab0PPvTbjGD7WERB3Syw8QKD1c4O8DM4D4UrPvbgZO8uy88sVe53nAARq4Royu6Iuij6eTg+76EjKr0EuAleKU9HUn+qdMu+yaGV4nxyx102/q9a2DtrytvNQlCcPhDsYT5ZtqFyl7PX3k/9uCd+IQ8gxOJ0NI1109qUK2xqFfnvdDnMDsbUuA/aanJyra1Ox16ojolGHGnVD0583+qaWb+Q2X9TUz8tzlu+zd/tt+wAGPon03jnauaw/Swgh9hx33DX//fcf/v37d2kxbhbqj5DLwjZIyHH5k22qCDF2fvAmLrvH/hhc9fe5AT3L+vvfhWUhhBBCCCFXSPG9AoLPq3Vo/wq3pmcOHgghhBBCSAd7scb60kLcAbemZx6YJoQQQgghhBhhZVnGMw+EEEIIIYSQQXhgek+u+uDNDUD9EXJZ2AYJOS5sU9cNv89hyPrjtiVCCCGEEEKIERw8EEIIIYQQQozg4IEQQgghhBBiBAcPhBBCCCGEECM4eCCEEEII+VMUCMcWLMuCZc2RNMISzK0xwuJCopGb5+4HD0U4hmVZGMutKJlXDa79azfAM8vVCit/kgEoQowleedJX5xWOTTxtLIY59dNs6fQjfSscYhCF96RSTaW7bImmCu/af2OKq6UfqtOqMujTqP57kA+EsncoP4Z6qQrb99z03QJIbuis+sNWvZGfr/Xll9Bv0WuiOQD/iiGEAJ5kOFdqkPJfArEayxs6f0BP0B6sduHKV6u+6977Dd6/Z+d2qhez1qf7gzc8eChdCZf8IbAbQVNlhBCNH6xB8B7PsN/Ha6RC2WFcVYz5BvZagOQYO74QJCXz2MP0bQeWCT4kOLEXoTptjZr4/XLoolXhHiR8ssDF9F0oHInc1jOCrN8q/N8tsKL7Lw7Pkax9F3yAPCdjnFya5kaZZ1gKcVz4SLY5LXcfFcvbn739cIujeo0ksJi4L01sOnJv9RL14Aq8xlIKw8yTNvOgqFOduJU6RJyt+jteufdaba1T3kA+C/Dtvyi/Ra5NorfbPO3/TBC+pOXz8MxpoixbFQKnR+gptGHLVs1LJljmnnwBuv6H0Tn/+zRRtV61vl05+GOBw+lM7leOMOvFiHeIxfB6zlMsE6uBB8+EHwu0HE1ky9E8PBWO6GTVwRuitJeTLBcb+M4jy6Q/ZbO71C8Pll08ewF1lJ+9tMMLjL89hqiBPNpBK81E2Iv1pVTXSB8j+AGedPg2QusYw+p/9E7MJk8e9uyHoSLx40amvrUMllCDMhoir14g4cIXwlwiE70nCpdQu6ZXfqbX2QY4WFjQB8wktPps+WddM7Zb5Frw34YbepG8ZvBfXRKx9YfIe44+zo/YFfKPsR7e8XjgWW4SXbxf/ZuozvYgRNxx4MHc5IPH6n3hp7J4fNR/CIDsHrpLmMVvxngPqLdNWWdGpvgw0/hzp5g7xSvLcoO8fIfpHJnqCyXh+e+9lN8Y5W6mD0pEpg8w+sdmJRGDKMHM0e/D/sJMzeF7+y5R3TyLDn9B1D8IqsHMXvrZCiPE6VLCDHDXuDNi6pVxgLheIos+FT0P01b3gm9ln6LXIbJKwL4cCwLjj/C2wIIX3yM4mVnlnsfPyCaKrZOAyjCF/ij9srGHaPxf0zaaJ+epVS0duBUcPAwSIKvCPB6Pdszkv8gBTD7lLbfRNOevYk2HkbSPzd77aaIvLh3m0wnnjF98eqZ7Nf+pfOqXHo0gw80Z0hS36nK6mA1y7tLqhq2DVXeR2hjsRaIvRS+o2vE5qjz0ZN8+EjdGbZ+vblOduNU6RJCTJgsq60IlgMfAT5le21ky6+o3yIXouy36q25Tu3UO9uzDf3bUHV+gJyuQLmjterD+lY27had/zPURjV6Bnbw6U4DBw8DFOE7IjfA9az8ysvZT5i5fbMDBaQtj429dvnju8ZhbcUzRh0vmSs6v73QzXjLW4qkcwJ7bLNpnkVoztBMlnIjPmwAoctHZjsQsjDNAuSN7VLmOtmNU6VLCBmmPB/x9bw9++XIExYGtvz6+i1yUep9+EunWn0oz+6NNmdpOhGM/YDtdtqid2XjXtH5P7u20ea2Zezg050GDh60lMtB3pvh/vZT4zz27p2zH0ZA+oP2pPBIMYUs78HbJd6u+SVzlcOrYGhbj/2AUd+Md/KFqG+mfPKKwI0at0wcA3vxudt+0Go/6T6TgI3D17Ie99XJEKdKlxBiRNupqO3N6rtrx9T7qa+s3yIXJsHcWWG2OStZTwA5eKwONO/rBwCQttPm+EnlVXUHflpNgLVvTrwD9P7PHm1U3rbcYvhc6fHh4EFDEb7v7fSdhGrv/aYTST7g1/vT2w548gE/rWQvQozlK76+V9s9eLp4OrTxyivGjAYOZWJ4DdzO7Q5FOK6WVdXh9S1I/VuibCzeDj/ku5WjotK70Qz8oIz7sq9OLpUuIURNdSVjZaM7jlzxjVVaOXI6W14/u7Z+i1yUZN4+M1NPDuX4Sc38gGS+rZ/JvNk3bLfTSjcaCgEhcgRuNQFmesHIn2DY/+lro2Z6hpEdODnibomFBwi0fm6QN8K3/26SZdll5MoD4UrPvViK2ghzxVb0XASunJ4cpou3iyxSvNjrxAEgIAmr0l8euM333UA0tN9Jt1WOqpzNb1aWoasndVx1WQf0p01jl3yaxF5//dtVJ913BmQdTJfcOqezYaSLzpZWbVEyUrHXZx+GbJG+3yKn5eraVOxp+9FGPen1A6r6WNfPdt/QTn+boKI/vixn+T6D/k9/GzXXs6lPclxk/VlCCLH7kIP8999/+Pfv36XFuFmoP0IuC9sgIcflT7apIsTY+cGb5mzerXDV3+cG9Czr738XloUQQgghhFwhxfcKCD6v1qH9K9yanjl4IIQQQgghHezFGutLC3EH3JqeeWCaEEIIIYQQYoSVZRnPPBBCCCGEEEIG4YHpPbnqgzc3APVHyGVhGyTkuLBNXTf8Poch64/blgghhBBCCCFGcJmoExwAABPXSURBVPBACCGEEEIIMYKDB0IIIYQQQogRHDwQQgghhBBCjODggRBCCCHkT1EgHFuwLAuWNUfSCEswt8YIiwuJRm6eux88FOEYlmVh3G5FybxqdJY6/FJySWHlTzIARYixJPM86YvTMiSaeMfJr5tmT6Eb6VnjEIUuvKMf2Vi2y5pgbrXD5HdUcaX0W/VBXR51Gs13B/IxKotBOkbyEkLOic6uq0jmXfugta2Ndk/n8K5JPuCPYgghkAcZ3qXKkMynQLzGwpbeH/ADlFnsWj/vBBMdqHTXR9+7u9qTY3LHg4fSmXzBGwJXETbNEOQCQgiIPAD8lzMZYp1cZWVxVjPkopJN1AYgwdzxgSAvn8ceomndeST4kOLEXoTppjbr4u2ZXxHiRYqTBy6iaXvmo13sOSxnhVmtcyGQz1Z4kZ1hx8co3oaX38XpNBy3lqlR1gmWUjwX7vb7iuXmv4T35PSFwHphl0Z1GklhMfDeGtj05F/qpdu4lfkMpNX8bseTlxByavR2XR1ljmnmwZPf19nWZA5L7rfiEXxnwO6SP0vxm23+th9GSH/y8nk4xhQxlhP5bb0foGTX+nkvmOhApbs+lO/uYU+OzB0PHkpncr1wukHFLzKM8FD7c/YDRtcgFxJ8+EDwuUDH1Uy+EMHDW+2ETl4RuClKezHBcr2N4zy6QPZbOpPaeHvmZy+wlvKzn2ZwkeG31xAlmE8jeK2ZEHuxrpzqAuF7BDfImwbPXmAde0j9j17jNHn2tmU9CBePm0/S1KeWyRJiQEZTdivLnvISQk6Azq6rKG2e9/aKR/mxxrYWvxngzvBUB06e4WntLvnL2A+jTX9R/GZwH53SsfVHiJsjhwE/QMXu9fNuGNRBj+6U9L27qz05Pnc8eNBgL/DmRZhutrNMkQWf6JkcPh/FLzIAqxdpq0o1E112HI9oV6Ws02oTfPgp3NkT7KF4R8kPQP6DVB6MKcvl4XnSF/6NVepi9qRIQNtBlg0Po4fDHGf7CTM3he/suQ1g8gwPEb4OGj3sUJZD5SWEXJQifIE/as8OK5Bsq/0wAtIfNP09nQNI/jSTVwTw4VgWHH+EtwUQvvgYxduV9pqd+nPsVz/vlpYOjHW347vnhoOHHibLapuI5cBHgM+LjxxQVUJg9iltv4mmPXsKbTzIyyWbvbBTRF7cu02mEe+Q/DbUqwavHYPVLpcenQFqdpCp71RldbCa5RA7tLxoqjpjYGOxFoi9FL5znL3E6ny6DJXlXPISQs5E3+xw98WmbZ0sqz6rtgfvyC60pYFcA2U/UG/NdWpH1NmebejfK9/Xn2P/+nmXtHRgrLsd370AHDwoKfeTfT1v9947V+OAydupnjBz+2YHCkhbHsvtM/UevMd3jcPairdvfhXJ/FiDL93Sp7xFRzonsMd2oeYZguYMzWRZ72HEwbP6unxkhspyLnkJIeeg6J0dbqOyrXWbL39vGA3PypB7oN6Hv3Sq+lWehRv1nuVU9+eH1s97o6kDc93t9u5l4OBBQRG+I3IDvFZfzV58InBTrL4v7H05j737B9VL1sBIMV0v78HTxjswv2RuYZoFyIf22w9t67EfMOpbfk++EPWtSkxeEbhR45aJY1DXB+PtANV+0t5tWSYcUJad5SWEXIgcP6m8oujAT6sVSOn2OSPbegy7Q/4ACebOCrPN2cV6ss3BY7UyZe4/HLF+/nG6OjDTHXZ+9zJw8KCg05CKb6xStSN+Vqq97JtBTPIBvz4L0HbAkw/4adVxFCHG0l6j4nu13YOni7dvftU1oubGY4LXwO3c7lCE42pZVR1e3yrUvyxqY/F2+GHlrRwVlR4eTc4qDcpoinlZDpKXEHJmqmuX27fCCQEhcgRutQK5XsA2tq3lJRT3vWWEAOW1rM0zm/VEUo6f1MAPQHVV6FHr51+mTwdDuttFz1eAuFti4QECrZ8b5GWop35ek2XZReQSeSBc6bkXS1EbYa7YipyLwJXTk8N08fbML/Y68gMQkCKr9JcHbvN9NxANrXfSbclalbP5rUp9duVWx1XrfUB/2jR2yWeXshxDXnLPnM6GkS46u16114aRqmnZAZ1tbdnqrk0hp+bq2lTsafvRRh3R+AGxd4T6eQWc5fsY66DbxxvrechPPBGy/iwhhNhn0HHv/Pfff/j379+lxbhZqD9CLgvbICHH5U+2qSLE2PnBm+Zs3q1w1d/nBvQs6+9/F5aFEEIIIYRcIcX3Cgg+r9ah/Svcmp45eCCEEEIIIR3sxRrrSwtxB9yannlgmhBCCCGEEGKElWUZzzwQQgghhBBCBuGB6T256oM3NwD1R8hlYRsk5LiwTV03/D6HIeuP25YIIYQQQgghRnDwQAghhBBCCDGCgwdCCCGEEEKIERw8EEIIIYQQQozg4IEQQggh5E9RIBxbsCwLljVH0ghLMLfGCIsLiUZunrsfPBThGJZlYdxuRcm8anQWrAs0sj656uf1b540AjHuCdPG0+SnDTsgvzbJ3Gq8v40jG0CVISzDO+knc1jjEAUSzK1u2iqDWsuglLVRHzTl6X1PVY6WTlv6LOVX6+kgGQkh10GrzXZsk6YfatrYtnNI7p7kA/4ohhACeZDhXao8yXwKxGssbOl9TX/eRte/s15qdDDU3nuo+33ZX9jVxzo2dzx4KJ3KF7whcNtBc1jTDEEuIISAiEfwnXM1Ao1cRYiX1Qy5EJVBcBFNa7kSzB0fCPJKZg/RtOpshuL15TcUtld+/bh1WtVvOVGHxV6EqXFLmWBZp5kHcOFuv6tYSv8VfIKvyIXnuYi+OiMrjKcRvLiOFwPvXcfe5L1tWPlb19Y7mcNyVpjl27B8tsJLY8B2BBkJIdfDZNmwB6V9A+A9Y6LthxJ8SDZ2N5tI7oHiN9v8bT+MkP7k5fNwjCniRv+q7c87Cev9CdZLjQ507b03uTmmmQdP9sH29LGOyR0PHkqncr1wOiHFbwa4MzzVo/LJMzxk+D2LJ9YvF+wF1usFarHspxncWq7kCxE8vNXO6OQVgZviJx+Ip8tPF7Z3foczefaA7Pe4jnHyhcid4fV1Bjf6UjRCF48bNUywlMq333uNzDGfRvBaM0H2Yr0dXBxVRkLIVVKEeI9cBK+TgX6o2b6dR/f4NpHcNPbDaFMnit8M7qNTOp3+CPGy5arq+vNOwgP+xN3Xyx10ILV3NQXC9wje2yse5ccn9rFMuOPBQz/2wwhIf9BsNz0N6ZLkP0gxwoNdD3ge0XbzM1VtkuLty7nzk3JG+B4Bo4ejOsbJVwR39gTbfsLMjRpLvLCfMHNT+M7A9jXT99oUv8jg4bl36uGIMhJCrpbkw0fqvWFh79IPJfjw09I2nE1ScvVMXhHAh2NZcPwR3hZA+OJjFC87s9w79edtevt31sshHcjtXUURvsAftVeJFBzVxzKDgwcVk2W51LTZT/aOrLNt59KUTrQbvPYsd9l4GO0Tb18Ozy/1nd49gNswB6tZDjHYmnagGv3PnmwANp5mLtLVtzRTYGOxFoi9FL6jOwMz/F40VexzzH+Qnk1GQsh1kuArArx6FmGoH9rsn54i8uLmKiUhVZ9Qb9F1akfU2Z5tUJ1xrOOq+/M2iv6d9dJQB6323qZvlaj74ol8Oj0cPPQwWcr70t4wGvTuzksyd+AjwGdvwywgbXncId6+HJ5f88xDc3bElfZipv7HUff2Fd8rpNL2APtpBjdd4btlV+s6kQfQzvDr3mueeejOAJ1LRkLIdVGE74jcAPIOBm0/JO2fzh/f7/ZwKjGg3iO/dKrVh/Jc3Mh/6ekj1P15G2X/znpppANVe5dCe1eJ2pzOp9PDwYMJ1X7AoW0l5yKZW5hmAXJ5z5tyiRsYSetYqnj7cu78NkxeEbS37KC7vFqYWL7yTXyvUiAtl3cty4Ll+EiRYtX2zCvsxWf/ftA93iv3Mkdon4E+h4yEkGug3N7gvWlspaYfusSeZ3IrJJg7K8w+67pVn41z8FitZJn0551UDfp31ss+HQy19xw/qbxTwYGfVjswpFsYT+JjGcLBwyDlYdZzLwmpKa/7VFaWtgOafMBP645GE29fzp3fBhuLN3n1odrC01iNMOiIN69+wE/lG5i2txfUaRbhuLm8W8V5bG0QNX2vywSvgdu53WKT3hFlJIRcH0X4PjBB1eqHihBj6Rab4nt19j3P5DZI5lNkwae0r76eVMrxk1Z1RtufV1eFbuqbpn9nvTTSQV973+pZuiVSCAiRI3CrHRjrBeyT+liGiLslFh4g0Pq5QS5EHgi3/axFlmXnlyv2Os8BCHhxGbUhtys2YmvjafLThu2bn1p/safWsxC5CNx2WCmXlJzIA1ctYyOpQLiynFW+slzqPEoZoCqrQlb1e+2wrpztMsANRH50GQkpOZ0NI7tRtuOOzdL2Q2zv18jVtanY2/QjjWeqOtXXn4tWH6Tt36+7Xp7n+wzpoKe9C11f3/KDDHysUyDrzxJCiP2HHvfLf//9h3///l1ajJuF+iPksrANEnJc/mSbKkKMnR+87XBG71q56u9zA3qW9fe/C8tCCCGEEEKukOJ7BQSfV+vQ/hVuTc8cPBBCCCGEkA72Yo31pYW4A25NzzwwTQghhBBCCDHCyrKMZx4IIYQQQgghg/DA9J5c9cGbG4D6I+SysA0SclzYpq4bfp/DkPXHbUuEEEIIIYQQIzh4IIQQQgghhBjBwQMhhBBCCCHECA4eCCGEEEIIIUZw8EAIIYQQ8qcoEI4tWJYFy5ojaYQlmFtjhMWFRCM3z10PHopwXDWs8jdPGoEY94WdUbZxq3XvK/Ne8ZJ5I872VxmiAR31lUFRWoTjnrKOQxTSO53vkMw777TlHYdFJUvbgPak2yqXsgwt3Zy7fhBC/gBDNhbDdjSZ99goct8kH/BHMYQQyIMM71L9SOZTIF5jYUvv7+DzaP0J7NL3/12UOjBo76o0+t5php93MHi/g4cixMtqhlyIqnG5iKb1x0kwd3wgyCGEgIg9RNNzfZgEc8vCC94QuEeSed94k2X5TPrFHgDvGROtjjRlOANe3JR5vbBhL97gIcJXZ/DxAT/18Fz/n/DJHJbjYySnkQeA72yNQBFiPI2kfGLgvR7AEEKIIUM2dsiOJnNMMw/eBewsuW6K32zzt/0wQvqTl8/DMaaIsZzIb+/g8wz5Exfs+68DjQ607b2bzoek59iLMJVGaUU4hiOFC9EaDJ4aQUryQLhwRZALIWJPAJ6It4EicCG87QORZdmpBRKBC+EGueaV3WQ+f7z+MjT1p34vD1wBNxC5Tq7YG35n8yoEWoHNZxqdy+WV9UDIjXJ6G0Z2Rmlb+uxSbe8M+gpyFq6qTUl9Yx64Zf3IA+E2+m3pXVM/oM1OdfaynPf77OjDDaXW8Idi4V3AB5H1d78rD23yH6QY4cGuRuzuI5zWK9nvlc0t7yvznvGSDx+p94bFLelIYvLsAdGXtPSX4CsCvHrZofjGKnUxe1IM3yfP8JDhtwBgP2HmpvAd7hklhBwP2cYOUYQv8EftGWRCKiavCODDsSw4/ghvCyB88TGKl51Z7oP6c8mfILth3t4TfPgp3NkTbAAofpEBWL1IW5/OvHeagwcAQIHwPYIbvCqWjgDAxsPozCINsq/M+8ZrOdrG8cxJfaexD9Dx073SiaY9ewknz82tS8kXIjfAa6NIOiOYolz5tbFYC8ReCt85/15DQshfZMjGShQhXvwRYo4cSC9lPyWEgBBLOPVg09mebeg/k2Danw/5E6Qfg/a+OSMxReTFWNejjPwHKYDZ53ZrtRtNz3r2koMHAMncgY8An73DvwLS9sGrYF+Z941XhO8KR3s43i649X5LaS/lPjTPPMizLBO8Bi6iavSQfEXbkfyGanVBLSEepamZybKWE1yFIIQcxLCN3bzZO4NMiJL6nMLSqepOeVZv5L/09Ftm/fmwP0H6MGrv0hmJ/PG9dWhamui0nzBzz7vz4+4HD8ncwjQLkK8XGyfSfhgB6Q/y1rujK1mX21fm/ctaLpl5b5fXUbtxFDuOWOynGdzoHWGR4CtqbVGyHzDarC60SL4Q9axK2ItPBG5PPEIIGaRrY/vJ8ZPKK6wO/LRauR3z4gbSJsHcWWH2WdetehLMwWM1P7dPf67yJ4gpu7T3EvtpBree3HQet39fiDsePJRXdCorf2d7S+tGnouxr8yHlbUI3xGhVf6z68jG08xF6n80zizs2gDr8wqrl3dE7gzN4w3VykT7lonqdqV6abYIx63r1z7gp81VCUIIMUVpY3uZYNm4sSVH4FYrt3TkSItkPkUWfEr76uuJrhw/aTUhNtCfJ3N5T73GnyBG9LX3hp6LEGP5dqXv1fZsSe3HfFd+SOWDKM9rnorzntW+ImJPAOj+6usF8kC4m+fdU+2nO7UfC08hlxvk+8t8UFlLeZQ3BvTG05ShYvfblqRnPWnW6ejyldPovUmioy/1TRL94YRcP1d1M8xd02djh+1oyXXebHOPXF2batxGKD1T1SWNH9C4lVDrT5jW2ctwnu8zpIN+n0p1+2Ovn9H4XoY3Yx2IrD9LCCEOH4LcH//99x/+/ft3aTFuFuqPkMvCNkjIcfmTbaoIMXZ+8CZu/4zNVX+fG9CzrL//XVgWQgghhBByhRTfKyD4vFqH9q9wa3rm4IEQQgghhHSwF2usLy3EHXBrer7jA9OEEEIIIYSQXbCyLOOZB0IIIYQQQsggPDC9J1d98OYGoP4IuSxsg4QcF7ap64bf5zBk/XHbEiGEEEIIIcQIDh4IIYQQQgghRvwfbUCGFUGW4qYAAAAASUVORK5CYII=;" vertex="1" parent="1">
          <mxGeometry x="425" y="510" width="405.32" height="220" as="geometry" />
        </mxCell>
      </root>
    </mxGraphModel>
  </diagram>
</mxfile>
